EncodeSansExpanded-Light.ufo
<glyph name="exclam" format="2">
  <advance width="526.5050505050506"/>
  <unicode hex="0021"/>
  <outline>
    <contour>
      <point x="223.4141414141414" y="346.54545454545456" type="line"/>
      <point x="303.939393939394" y="346.54545454545456" type="line"/>
      <point x="328.66666666666674" y="904.989898989899" type="line"/>
      <point x="328.66666666666674" y="1480.0" type="line"/>
      <point x="197.83838383838383" y="1480.0" type="line"/>
      <point x="197.83838383838383" y="904.989898989899" type="line"/>
    </contour>
    <contour>
      <point x="263.2525252525253" y="-11.414141414141415" type="curve" smooth="yes"/>
      <point x="319.89898989898995" y="-11.414141414141415"/>
      <point x="357.49494949494954" y="22.48484848484849"/>
      <point x="357.49494949494954" y="75.19191919191921" type="curve" smooth="yes"/>
      <point x="357.49494949494954" y="127.89898989898992"/>
      <point x="320.4646464646465" y="163.51515151515156"/>
      <point x="263.2525252525253" y="163.51515151515156" type="curve" smooth="yes"/>
      <point x="206.04040404040404" y="163.51515151515156"/>
      <point x="169.010101010101" y="128.46464646464648"/>
      <point x="169.010101010101" y="75.19191919191921" type="curve" smooth="yes"/>
      <point x="169.010101010101" y="21.919191919191924"/>
      <point x="206.6060606060606" y="-11.414141414141415"/>
    </contour>
  </outline>
</glyph>
<glyph name="dollar" format="2">
  <advance width="1185.6767676767677"/>
  <unicode hex="0024"/>
  <outline>
    <contour>
      <point x="525.010101010101" y="-18.282828282828284" type="curve" smooth="yes"/>
      <point x="884.8686868686868" y="-18.282828282828284"/>
      <point x="1089.050505050505" y="129.93939393939394"/>
      <point x="1089.050505050505" y="395.5959595959596" type="curve" smooth="yes"/>
      <point x="1089.050505050505" y="606.7070707070707"/>
      <point x="960.4848484848485" y="729.2323232323232"/>
      <point x="634.5656565656566" y="792.6464646464647" type="curve" smooth="yes"/>
      <point x="552.3838383838383" y="808.6262626262626" type="line" smooth="yes"/>
      <point x="310.16161616161617" y="856.3838383838385"/>
      <point x="224.34343434343435" y="935.0505050505051"/>
      <point x="224.34343434343435" y="1097.8181818181818" type="curve" smooth="yes"/>
      <point x="224.34343434343435" y="1284.6060606060605"/>
      <point x="361.33333333333337" y="1390.4242424242425"/>
      <point x="651.6767676767677" y="1390.4242424242425" type="curve" smooth="yes"/>
      <point x="775.959595959596" y="1390.4242424242425"/>
      <point x="903.0505050505051" y="1372.141414141414"/>
      <point x="1023.6565656565657" y="1335.5555555555554" type="curve"/>
      <point x="1023.6565656565657" y="1445.979797979798" type="line"/>
      <point x="910.7878787878788" y="1480.2828282828282"/>
      <point x="782.2424242424242" y="1498.2828282828282"/>
      <point x="651.7171717171717" y="1498.2828282828282" type="curve" smooth="yes"/>
      <point x="280.80808080808083" y="1498.2828282828282"/>
      <point x="96.62626262626262" y="1341.7373737373737"/>
      <point x="96.62626262626262" y="1092.121212121212" type="curve" smooth="yes"/>
      <point x="96.62626262626262" y="878.1616161616162"/>
      <point x="226.9090909090909" y="751.3333333333334"/>
      <point x="522.5454545454545" y="693.9191919191919" type="curve" smooth="yes"/>
      <point x="604.7272727272727" y="677.9393939393939" type="line" smooth="yes"/>
      <point x="859.4949494949494" y="627.8989898989898"/>
      <point x="961.3333333333333" y="555.8181818181818"/>
      <point x="961.3333333333333" y="390.4848484848485" type="curve" smooth="yes"/>
      <point x="961.3333333333333" y="194.82828282828285"/>
      <point x="823.1717171717172" y="89.5757575757576"/>
      <point x="526.1616161616162" y="89.5757575757576" type="curve" smooth="yes"/>
      <point x="408.7474747474747" y="89.5757575757576"/>
      <point x="261.45454545454544" y="108.70707070707073"/>
      <point x="118.02020202020202" y="156.14141414141417" type="curve"/>
      <point x="118.02020202020202" y="45.717171717171716" type="line"/>
      <point x="248.0" y="2.5656565656565657"/>
      <point x="393.3939393939394" y="-18.282828282828284"/>
    </contour>
    <contour>
      <point x="534.969696969697" y="-240.0" type="line"/>
      <point x="652.1414141414142" y="-240.0" type="line"/>
      <point x="652.1414141414142" y="8.484848484848492" type="line"/>
      <point x="534.969696969697" y="8.484848484848492" type="line"/>
    </contour>
    <contour>
      <point x="534.969696969697" y="1471.5151515151515" type="line"/>
      <point x="652.1414141414142" y="1471.5151515151515" type="line"/>
      <point x="652.1414141414142" y="1720.0" type="line"/>
      <point x="534.969696969697" y="1720.0" type="line"/>
    </contour>
  </outline>
</glyph>
<glyph name="percent" format="2">
  <advance width="1946.4646464646466"/>
  <unicode hex="0025"/>
  <note>
450
</note>
  <outline>
    <contour>
      <point x="536.5656565656566" y="0.0" type="line"/>
      <point x="653.5555555555557" y="0.0" type="line"/>
      <point x="1409.8989898989898" y="1480.0" type="line"/>
      <point x="1292.909090909091" y="1480.0" type="line"/>
    </contour>
    <contour>
      <point x="481.2727272727273" y="576.3030303030303" type="curve" smooth="yes"/>
      <point x="684.8484848484849" y="576.3030303030303"/>
      <point x="833.0505050505051" y="710.8080808080808"/>
      <point x="833.0505050505051" y="1037.1515151515152" type="curve" smooth="yes"/>
      <point x="833.0505050505051" y="1363.4949494949494"/>
      <point x="688.2828282828283" y="1498.2828282828282"/>
      <point x="481.2727272727273" y="1498.2828282828282" type="curve" smooth="yes"/>
      <point x="274.26262626262627" y="1498.2828282828282"/>
      <point x="129.49494949494948" y="1363.4949494949494"/>
      <point x="129.49494949494948" y="1037.1515151515152" type="curve" smooth="yes"/>
      <point x="129.49494949494948" y="710.8080808080808"/>
      <point x="277.6969696969697" y="576.3030303030303"/>
    </contour>
    <contour>
      <point x="481.2727272727273" y="669.7171717171717" type="curve" smooth="yes"/>
      <point x="336.5858585858586" y="669.7171717171717"/>
      <point x="237.3737373737374" y="770.3636363636364"/>
      <point x="237.3737373737374" y="1038.8686868686868" type="curve" smooth="yes"/>
      <point x="237.3737373737374" y="1307.3737373737374"/>
      <point x="336.5858585858586" y="1404.8686868686868"/>
      <point x="481.2727272727273" y="1404.8686868686868" type="curve" smooth="yes"/>
      <point x="624.2424242424242" y="1404.8686868686868"/>
      <point x="725.1717171717172" y="1307.3737373737374"/>
      <point x="725.1717171717172" y="1035.4343434343434" type="curve" smooth="yes"/>
      <point x="725.1717171717172" y="763.4949494949495"/>
      <point x="624.2424242424242" y="669.7171717171717"/>
    </contour>
    <contour>
      <point x="1465.1919191919192" y="-18.0" type="curve" smooth="yes"/>
      <point x="1668.7676767676767" y="-18.0"/>
      <point x="1816.969696969697" y="116.5050505050505"/>
      <point x="1816.969696969697" y="442.8484848484849" type="curve" smooth="yes"/>
      <point x="1816.969696969697" y="769.1919191919192"/>
      <point x="1672.2020202020203" y="903.979797979798"/>
      <point x="1465.1919191919192" y="903.979797979798" type="curve" smooth="yes"/>
      <point x="1258.1818181818182" y="903.979797979798"/>
      <point x="1113.4141414141413" y="769.1919191919192"/>
      <point x="1113.4141414141413" y="442.8484848484849" type="curve" smooth="yes"/>
      <point x="1113.4141414141413" y="116.5050505050505"/>
      <point x="1261.6161616161617" y="-18.0"/>
    </contour>
    <contour>
      <point x="1465.1919191919192" y="75.41414141414144" type="curve" smooth="yes"/>
      <point x="1322.2222222222222" y="75.41414141414144"/>
      <point x="1221.2929292929293" y="176.06060606060606"/>
      <point x="1221.2929292929293" y="444.5656565656566" type="curve" smooth="yes"/>
      <point x="1221.2929292929293" y="713.070707070707"/>
      <point x="1322.2222222222222" y="810.5656565656566"/>
      <point x="1465.1919191919192" y="810.5656565656566" type="curve" smooth="yes"/>
      <point x="1608.1616161616162" y="810.5656565656566"/>
      <point x="1709.090909090909" y="713.070707070707"/>
      <point x="1709.090909090909" y="441.1313131313131" type="curve" smooth="yes"/>
      <point x="1709.090909090909" y="169.19191919191923"/>
      <point x="1608.1616161616162" y="75.41414141414144"/>
    </contour>
  </outline>
</glyph>
<glyph name="ampersand" format="2">
  <advance width="1651.9595959595958"/>
  <unicode hex="0026"/>
  <outline>
    <contour>
      <point x="1595.5959595959596" y="-20.0" type="line"/>
      <point x="1651.9595959595958" y="73.03030303030306" type="line"/>
      <point x="775.89898989899" y="673.1111111111111" type="line" smooth="yes"/>
      <point x="527.9191919191919" y="848.4646464646464"/>
      <point x="473.03030303030306" y="936.5454545454545"/>
      <point x="473.03030303030306" y="1077.5555555555557" type="curve" smooth="yes"/>
      <point x="473.03030303030306" y="1274.040404040404"/>
      <point x="592.8484848484849" y="1390.4242424242425"/>
      <point x="898.6464646464647" y="1390.4242424242425" type="curve" smooth="yes"/>
      <point x="1007.8181818181819" y="1390.4242424242425"/>
      <point x="1103.2323232323233" y="1376.7070707070707"/>
      <point x="1182.3838383838383" y="1354.121212121212" type="curve"/>
      <point x="1182.3838383838383" y="1464.5454545454545" type="line"/>
      <point x="1106.1212121212122" y="1485.1313131313132"/>
      <point x="1010.1212121212121" y="1498.2828282828282"/>
      <point x="895.8383838383838" y="1498.2828282828282" type="curve" smooth="yes"/>
      <point x="521.7777777777778" y="1498.2828282828282"/>
      <point x="345.3131313131313" y="1342.040404040404"/>
      <point x="345.3131313131313" y="1080.6666666666667" type="curve" smooth="yes"/>
      <point x="345.3131313131313" y="903.7575757575758"/>
      <point x="430.4848484848485" y="776.6666666666666"/>
      <point x="719.5353535353536" y="580.0808080808081" type="curve" smooth="yes"/>
    </contour>
    <contour>
      <point x="762.8080808080808" y="-18.0" type="curve" smooth="yes"/>
      <point x="1169.7979797979797" y="-18.0"/>
      <point x="1391.3939393939395" y="169.07070707070707"/>
      <point x="1391.3939393939395" y="502.8686868686869" type="curve" smooth="yes"/>
      <point x="1391.3939393939395" y="597.1919191919192"/>
      <point x="1375.959595959596" y="692.0606060606061"/>
      <point x="1343.939393939394" y="780.6464646464647" type="curve"/>
      <point x="1233.2121212121212" y="780.6464646464647" type="line"/>
      <point x="1265.2323232323233" y="692.0606060606061"/>
      <point x="1284.3838383838383" y="593.4747474747475"/>
      <point x="1284.3838383838383" y="504.020202020202" type="curve" smooth="yes"/>
      <point x="1284.3838383838383" y="221.4545454545455"/>
      <point x="1101.2121212121212" y="82.22222222222224"/>
      <point x="772.4444444444445" y="82.22222222222224" type="curve" smooth="yes"/>
      <point x="421.8585858585859" y="82.22222222222224"/>
      <point x="292.10101010101016" y="222.64646464646466"/>
      <point x="292.10101010101016" y="412.7878787878788" type="curve" smooth="yes"/>
      <point x="292.10101010101016" y="564.6262626262626"/>
      <point x="369.8787878787879" y="675.2929292929293"/>
      <point x="540.6464646464647" y="745.3333333333334" type="curve"/>
      <point x="470.3636363636364" y="816.9090909090909" type="line"/>
      <point x="274.32323232323233" y="738.2828282828283"/>
      <point x="164.38383838383837" y="593.4141414141415"/>
      <point x="164.38383838383837" y="400.8484848484849" type="curve" smooth="yes"/>
      <point x="164.38383838383837" y="158.3030303030303"/>
      <point x="346.3030303030303" y="-18.0"/>
    </contour>
  </outline>
</glyph>
<glyph name="quotesingle" format="2">
  <advance width="449.49494949494954"/>
  <unicode hex="0027"/>
  <outline>
    <contour>
      <point x="187.77777777777777" y="931.6767676767677" type="line"/>
      <point x="261.7171717171717" y="931.6767676767677" type="line"/>
      <point x="290.2020202020202" y="1616.0" type="line"/>
      <point x="159.29292929292927" y="1616.0" type="line"/>
    </contour>
  </outline>
</glyph>
<glyph name="parenleft" format="2">
  <advance width="724.1010101010102"/>
  <unicode hex="0028"/>
  <outline>
    <contour>
      <point x="537.4545454545455" y="-440.0" type="curve"/>
      <point x="683.4343434343434" y="-440.0" type="line"/>
      <point x="389.7777777777778" y="-126.56565656565657"/>
      <point x="278.3636363636364" y="211.49494949494948"/>
      <point x="278.3636363636364" y="588.0" type="curve" smooth="yes"/>
      <point x="278.3636363636364" y="964.5050505050505"/>
      <point x="389.7777777777778" y="1302.5656565656566"/>
      <point x="683.4343434343434" y="1616.0" type="curve"/>
      <point x="537.4545454545455" y="1616.0" type="line"/>
      <point x="266.0808080808081" y="1324.5050505050506"/>
      <point x="150.36363636363637" y="969.3737373737374"/>
      <point x="150.36363636363637" y="588.0" type="curve" smooth="yes"/>
      <point x="150.36363636363637" y="206.62626262626262"/>
      <point x="266.0808080808081" y="-148.50505050505052"/>
    </contour>
  </outline>
</glyph>
<glyph name="parenright" format="2">
  <advance width="724.1010101010102"/>
  <unicode hex="0029"/>
  <outline>
    <contour>
      <point x="40.66666666666664" y="-440.0" type="curve"/>
      <point x="186.64646464646466" y="-440.0" type="line"/>
      <point x="458.020202020202" y="-148.50505050505052"/>
      <point x="573.7373737373738" y="206.62626262626262"/>
      <point x="573.7373737373738" y="588.0" type="curve" smooth="yes"/>
      <point x="573.7373737373738" y="969.3737373737374"/>
      <point x="458.020202020202" y="1324.5050505050506"/>
      <point x="186.64646464646466" y="1616.0" type="curve"/>
      <point x="40.66666666666664" y="1616.0" type="line"/>
      <point x="334.32323232323233" y="1302.5656565656566"/>
      <point x="445.73737373737373" y="964.5050505050505"/>
      <point x="445.73737373737373" y="588.0" type="curve" smooth="yes"/>
      <point x="445.73737373737373" y="211.49494949494948"/>
      <point x="334.32323232323233" y="-126.56565656565657"/>
    </contour>
  </outline>
</glyph>
<glyph name="asterisk" format="2">
  <advance width="937.4141414141415"/>
  <unicode hex="002A"/>
  <outline>
    <contour>
      <point x="515.9191919191919" y="1188.4242424242425" type="line"/>
      <point x="709.3939393939394" y="1231.6161616161617" type="line"/>
      <point x="907.4141414141415" y="1295.050505050505" type="line"/>
      <point x="877.7979797979798" y="1384.7474747474748" type="line"/>
      <point x="681.4949494949495" y="1321.3131313131314" type="line"/>
      <point x="496.5858585858586" y="1240.7676767676767" type="line"/>
      <point x="516.2626262626263" y="1441.090909090909" type="line"/>
      <point x="516.2626262626263" y="1616.0" type="line"/>
      <point x="421.1515151515151" y="1616.0" type="line"/>
      <point x="421.1515151515151" y="1441.090909090909" type="line"/>
      <point x="440.82828282828285" y="1240.7676767676767" type="line"/>
      <point x="255.91919191919192" y="1321.3131313131314" type="line"/>
      <point x="59.61616161616162" y="1384.7474747474748" type="line"/>
      <point x="30.0" y="1295.050505050505" type="line"/>
      <point x="228.02020202020202" y="1231.6161616161617" type="line"/>
      <point x="421.4949494949495" y="1188.4242424242425" type="line"/>
      <point x="289.4949494949495" y="1038.3636363636363" type="line"/>
      <point x="179.17171717171718" y="888.6060606060606" type="line"/>
      <point x="256.34343434343435" y="832.5050505050505" type="line"/>
      <point x="366.6666666666667" y="981.9797979797979" type="line"/>
      <point x="468.7070707070707" y="1157.9595959595958" type="line"/>
      <point x="570.7474747474747" y="981.9797979797979" type="line"/>
      <point x="681.070707070707" y="832.5050505050505" type="line"/>
      <point x="758.2424242424242" y="888.6060606060606" type="line"/>
      <point x="647.9191919191919" y="1038.3636363636363" type="line"/>
    </contour>
  </outline>
</glyph>
<glyph name="plus" format="2">
  <advance width="1120.4444444444443"/>
  <unicode hex="002B"/>
  <outline>
    <contour>
      <point x="505.85858585858585" y="362.7272727272727" type="line"/>
      <point x="614.5858585858587" y="362.7272727272727" type="line"/>
      <point x="614.5858585858587" y="708.4848484848485" type="line"/>
      <point x="941.1919191919192" y="708.4848484848485" type="line"/>
      <point x="941.1919191919192" y="811.5151515151515" type="line"/>
      <point x="614.5858585858587" y="811.5151515151515" type="line"/>
      <point x="614.5858585858587" y="1157.2727272727273" type="line"/>
      <point x="505.85858585858585" y="1157.2727272727273" type="line"/>
      <point x="505.85858585858585" y="811.5151515151515" type="line"/>
      <point x="179.25252525252523" y="811.5151515151515" type="line"/>
      <point x="179.25252525252523" y="708.4848484848485" type="line"/>
      <point x="505.85858585858585" y="708.4848484848485" type="line"/>
    </contour>
  </outline>
</glyph>
<glyph name="hyphen" format="2">
  <advance width="952.5252525252525"/>
  <unicode hex="002D"/>
  <outline>
    <contour>
      <point x="179.25252525252523" y="507.6363636363636" type="line"/>
      <point x="773.2727272727273" y="507.6363636363636" type="line"/>
      <point x="773.2727272727273" y="615.1919191919192" type="line"/>
      <point x="179.25252525252523" y="615.1919191919192" type="line"/>
    </contour>
  </outline>
</glyph>
<glyph name="period" format="2">
  <advance width="486.5050505050505"/>
  <unicode hex="002E"/>
  <outline>
    <contour>
      <point x="243.25252525252526" y="-11.414141414141415" type="curve" smooth="yes"/>
      <point x="299.89898989898995" y="-11.414141414141415"/>
      <point x="337.49494949494954" y="23.616161616161623"/>
      <point x="337.49494949494954" y="78.02020202020205" type="curve" smooth="yes"/>
      <point x="337.49494949494954" y="132.42424242424246"/>
      <point x="300.4646464646465" y="169.1717171717172"/>
      <point x="243.25252525252526" y="169.1717171717172" type="curve" smooth="yes"/>
      <point x="186.04040404040404" y="169.1717171717172"/>
      <point x="149.010101010101" y="132.98989898989902"/>
      <point x="149.010101010101" y="78.02020202020205" type="curve" smooth="yes"/>
      <point x="149.010101010101" y="23.05050505050506"/>
      <point x="186.6060606060606" y="-11.414141414141415"/>
    </contour>
  </outline>
</glyph>
<glyph name="slash" format="2">
  <advance width="678.5050505050506"/>
  <unicode hex="002F"/>
  <outline>
    <contour>
      <point x="0.0" y="-240.0" type="line"/>
      <point x="124.28282828282832" y="-240.0" type="line"/>
      <point x="678.5050505050506" y="1616.0" type="line"/>
      <point x="554.2222222222222" y="1616.0" type="line"/>
    </contour>
  </outline>
</glyph>
<glyph name="zero" format="2">
  <advance width="1390.2626262626263"/>
  <unicode hex="0030"/>
  <note>
600
</note>
  <outline>
    <contour>
      <point x="694.989898989899" y="-18.282828282828284" type="curve" smooth="yes"/>
      <point x="1029.4141414141413" y="-18.282828282828284"/>
      <point x="1249.8989898989898" y="189.91919191919192"/>
      <point x="1249.8989898989898" y="740.0" type="curve" smooth="yes"/>
      <point x="1249.8989898989898" y="1290.080808080808"/>
      <point x="1034.5656565656566" y="1498.2828282828282"/>
      <point x="694.989898989899" y="1498.2828282828282" type="curve" smooth="yes"/>
      <point x="355.41414141414145" y="1498.2828282828282"/>
      <point x="140.36363636363637" y="1290.080808080808"/>
      <point x="140.36363636363637" y="740.0" type="curve" smooth="yes"/>
      <point x="140.36363636363637" y="189.91919191919192"/>
      <point x="360.5656565656566" y="-18.282828282828284"/>
    </contour>
    <contour>
      <point x="695.2727272727273" y="91.83838383838386" type="curve" smooth="yes"/>
      <point x="437.3737373737374" y="91.83838383838386"/>
      <point x="267.51515151515156" y="240.50505050505052"/>
      <point x="267.51515151515156" y="743.4343434343434" type="curve" smooth="yes"/>
      <point x="267.51515151515156" y="1239.4949494949494"/>
      <point x="437.939393939394" y="1388.1616161616162"/>
      <point x="695.2727272727273" y="1388.1616161616162" type="curve" smooth="yes"/>
      <point x="952.3232323232323" y="1388.1616161616162"/>
      <point x="1122.7474747474748" y="1239.4949494949494"/>
      <point x="1122.7474747474748" y="736.5656565656566" type="curve" smooth="yes"/>
      <point x="1122.7474747474748" y="240.50505050505052"/>
      <point x="952.3232323232323" y="91.83838383838386"/>
    </contour>
  </outline>
</glyph>
<glyph name="one" format="2">
  <advance width="833.3131313131314"/>
  <unicode hex="0031"/>
  <outline>
    <contour>
      <point x="493.77777777777777" y="0.0" type="line"/>
      <point x="619.4747474747476" y="0.0" type="line"/>
      <point x="619.4747474747476" y="1484.2828282828282" type="line"/>
      <point x="534.7272727272727" y="1484.2828282828282" type="line"/>
      <point x="29.393939393939398" y="1123.2121212121212" type="line"/>
      <point x="29.393939393939398" y="992.5858585858585" type="line"/>
      <point x="534.7272727272727" y="1350.2222222222222" type="line"/>
      <point x="493.77777777777777" y="1386.5252525252524" type="line"/>
    </contour>
  </outline>
</glyph>
<glyph name="two" format="2">
  <advance width="1098.2626262626263"/>
  <unicode hex="0032"/>
  <outline>
    <contour>
      <point x="77.19191919191918" y="0.0" type="line"/>
      <point x="1021.939393939394" y="0.0" type="line"/>
      <point x="1021.939393939394" y="106.98989898989902" type="line"/>
      <point x="211.11111111111114" y="106.98989898989902" type="line"/>
      <point x="222.8484848484849" y="69.41414141414144" type="line"/>
      <point x="654.4040404040404" y="563.0909090909091" type="line" smooth="yes"/>
      <point x="855.3131313131314" y="792.6262626262626"/>
      <point x="922.4646464646464" y="926.9090909090909"/>
      <point x="922.4646464646464" y="1099.7979797979797" type="curve" smooth="yes"/>
      <point x="922.4646464646465" y="1370.888888888889"/>
      <point x="753.959595959596" y="1498.2828282828282"/>
      <point x="437.95959595959596" y="1498.2828282828282" type="curve" smooth="yes"/>
      <point x="292.52525252525254" y="1498.2828282828282"/>
      <point x="159.19191919191917" y="1475.1515151515152"/>
      <point x="59.19191919191918" y="1438.2828282828282" type="curve"/>
      <point x="59.19191919191918" y="1327.858585858586" type="line"/>
      <point x="170.64646464646464" y="1368.7272727272727"/>
      <point x="295.73737373737373" y="1390.4242424242425"/>
      <point x="432.86868686868684" y="1390.4242424242425" type="curve" smooth="yes"/>
      <point x="677.7979797979798" y="1390.4242424242425"/>
      <point x="796.4646464646464" y="1296.060606060606"/>
      <point x="796.4646464646464" y="1088.7272727272727" type="curve" smooth="yes"/>
      <point x="796.4646464646464" y="953.7575757575758"/>
      <point x="735.8585858585859" y="829.0909090909091"/>
      <point x="558.6262626262626" y="624.1010101010102" type="curve" smooth="yes"/>
      <point x="77.19191919191918" y="68.56565656565658" type="line"/>
    </contour>
  </outline>
</glyph>
<glyph name="three" format="2">
  <advance width="1109.6969696969697"/>
  <unicode hex="0033"/>
  <outline>
    <contour>
      <point x="457.8787878787879" y="-18.282828282828284" type="curve" smooth="yes"/>
      <point x="853.7171717171717" y="-18.282828282828284"/>
      <point x="1031.111111111111" y="143.97979797979798"/>
      <point x="1031.111111111111" y="406.82828282828285" type="curve" smooth="yes"/>
      <point x="1031.111111111111" y="623.1313131313132"/>
      <point x="887.6565656565657" y="754.8888888888889"/>
      <point x="628.6868686868687" y="781.7373737373738" type="curve"/>
      <point x="628.6868686868687" y="754.2828282828283" type="line"/>
      <point x="838.7676767676768" y="795.7171717171717"/>
      <point x="978.8282828282829" y="924.5858585858585"/>
      <point x="978.8282828282829" y="1124.080808080808" type="curve" smooth="yes"/>
      <point x="978.8282828282829" y="1357.7373737373737"/>
      <point x="803.7373737373738" y="1498.2828282828282"/>
      <point x="490.24242424242425" y="1498.2828282828282" type="curve" smooth="yes"/>
      <point x="357.979797979798" y="1498.2828282828282"/>
      <point x="227.49494949494948" y="1479.1515151515152"/>
      <point x="112.62626262626262" y="1443.4343434343434" type="curve"/>
      <point x="112.62626262626262" y="1338.3838383838383" type="line"/>
      <point x="236.92929292929293" y="1378.1010101010102"/>
      <point x="363.1717171717172" y="1395.232323232323"/>
      <point x="482.3030303030303" y="1395.232323232323" type="curve" smooth="yes"/>
      <point x="723.5555555555555" y="1395.232323232323"/>
      <point x="854.8080808080808" y="1292.0"/>
      <point x="854.8080808080808" y="1117.2727272727273" type="curve" smooth="yes"/>
      <point x="854.8080808080808" y="909.6161616161617"/>
      <point x="694.6262626262626" y="811.8181818181819"/>
      <point x="393.8787878787879" y="811.8181818181819" type="curve" smooth="yes"/>
      <point x="292.14141414141415" y="811.8181818181819" type="line"/>
      <point x="292.14141414141415" y="708.4848484848485" type="line"/>
      <point x="510.0" y="708.4848484848485" type="line" smooth="yes"/>
      <point x="782.10101010101" y="708.4848484848485"/>
      <point x="909.070707070707" y="602.10101010101"/>
      <point x="909.070707070707" y="412.5050505050505" type="curve" smooth="yes"/>
      <point x="909.070707070707" y="204.02020202020205"/>
      <point x="771.5353535353536" y="84.76767676767679"/>
      <point x="457.35353535353534" y="84.76767676767679" type="curve" smooth="yes"/>
      <point x="332.26262626262627" y="84.76767676767679"/>
      <point x="193.73737373737373" y="107.33333333333336"/>
      <point x="62.58585858585859" y="149.3535353535354" type="curve"/>
      <point x="62.58585858585859" y="44.303030303030305" type="line"/>
      <point x="183.13131313131314" y="3.717171717171717"/>
      <point x="325.95959595959596" y="-18.282828282828284"/>
    </contour>
  </outline>
</glyph>
<glyph name="four" format="2">
  <advance width="1294.5252525252527"/>
  <unicode hex="0034"/>
  <outline>
    <contour>
      <point x="54.6060606060606" y="365.8989898989899" type="line"/>
      <point x="1247.0707070707072" y="365.8989898989899" type="line"/>
      <point x="1247.0707070707072" y="471.75757575757575" type="line"/>
      <point x="164.0808080808081" y="471.75757575757575" type="line"/>
      <point x="184.62626262626264" y="433.8787878787879" type="line"/>
      <point x="853.7373737373738" y="1480.0" type="line"/>
      <point x="722.5656565656566" y="1480.0" type="line"/>
      <point x="54.6060606060606" y="435.5959595959596" type="line"/>
    </contour>
    <contour>
      <point x="894.3838383838383" y="0.0" type="line"/>
      <point x="1013.010101010101" y="0.0" type="line"/>
      <point x="1013.010101010101" y="980.0" type="line"/>
      <point x="912.060606060606" y="980.0" type="line"/>
      <point x="894.3838383838383" y="471.75757575757575" type="line"/>
    </contour>
  </outline>
</glyph>
<glyph name="five" format="2">
  <advance width="1126.848484848485"/>
  <unicode hex="0035"/>
  <outline>
    <contour>
      <point x="485.3131313131313" y="-18.282828282828284" type="curve" smooth="yes"/>
      <point x="865.1515151515151" y="-18.282828282828284"/>
      <point x="1058.5454545454545" y="135.3939393939394"/>
      <point x="1058.828282828283" y="418.5050505050505" type="curve" smooth="yes"/>
      <point x="1059.111111111111" y="680.7474747474747"/>
      <point x="884.0" y="817.2727272727273"/>
      <point x="402.6666666666667" y="844.7070707070707" type="curve" smooth="yes"/>
      <point x="190.74747474747477" y="856.7070707070707" type="line"/>
      <point x="280.64646464646466" y="797.4343434343434" type="line"/>
      <point x="325.79797979797985" y="1422.4242424242425" type="line"/>
      <point x="265.1717171717172" y="1377.5353535353536" type="line"/>
      <point x="996.2626262626263" y="1377.5353535353536" type="line"/>
      <point x="996.2626262626263" y="1480.0" type="line"/>
      <point x="209.47474747474746" y="1480.0" type="line"/>
      <point x="156.62626262626262" y="754.2222222222222" type="line"/>
      <point x="368.54545454545456" y="742.2222222222222" type="line" smooth="yes"/>
      <point x="799.8181818181818" y="717.3535353535353"/>
      <point x="936.5050505050505" y="619.5555555555555"/>
      <point x="936.5050505050505" y="417.93939393939394" type="curve" smooth="yes"/>
      <point x="936.5050505050505" y="196.56565656565658"/>
      <point x="788.6666666666666" y="85.89898989898992"/>
      <point x="484.7878787878788" y="85.89898989898992" type="curve" smooth="yes"/>
      <point x="356.26262626262627" y="85.89898989898992"/>
      <point x="217.73737373737373" y="108.46464646464649"/>
      <point x="90.02020202020202" y="150.4848484848485" type="curve"/>
      <point x="90.02020202020202" y="45.43434343434343" type="line"/>
      <point x="208.84848484848484" y="6.0"/>
      <point x="351.67676767676767" y="-18.282828282828284"/>
    </contour>
  </outline>
</glyph>
<glyph name="six" format="2">
  <advance width="1267.6565656565658"/>
  <unicode hex="0036"/>
  <outline>
    <contour>
      <point x="709.8585858585859" y="-18.282828282828284" type="curve" smooth="yes"/>
      <point x="996.8080808080808" y="-18.282828282828284"/>
      <point x="1191.919191919192" y="129.91919191919192"/>
      <point x="1191.919191919192" y="409.9191919191919" type="curve" smooth="yes"/>
      <point x="1191.919191919192" y="697.8585858585859"/>
      <point x="1001.3939393939395" y="841.010101010101"/>
      <point x="681.959595959596" y="841.010101010101" type="curve" smooth="yes"/>
      <point x="525.939393939394" y="841.010101010101"/>
      <point x="354.7676767676768" y="792.4242424242425"/>
      <point x="248.72727272727275" y="713.2525252525253" type="curve"/>
      <point x="248.72727272727275" y="608.1414141414141" type="line"/>
      <point x="358.4848484848485" y="699.6363636363636"/>
      <point x="533.4747474747476" y="739.6565656565656"/>
      <point x="664.6666666666667" y="739.6565656565656" type="curve" smooth="yes"/>
      <point x="926.8888888888889" y="739.6565656565656"/>
      <point x="1071.858585858586" y="631.5555555555555"/>
      <point x="1071.858585858586" y="406.7878787878788" type="curve" smooth="yes"/>
      <point x="1071.858585858586" y="185.15151515151518"/>
      <point x="924.5858585858585" y="83.0707070707071"/>
      <point x="709.8585858585859" y="83.0707070707071" type="curve" smooth="yes"/>
      <point x="433.3535353535354" y="83.0707070707071"/>
      <point x="271.51515151515156" y="244.64646464646466"/>
      <point x="271.51515151515156" y="681.2525252525253" type="curve" smooth="yes"/>
      <point x="271.51515151515156" y="720.6868686868687" type="line" smooth="yes"/>
      <point x="271.51515151515156" y="1173.9595959595958"/>
      <point x="455.61616161616166" y="1394.1010101010102"/>
      <point x="823.1717171717172" y="1394.1010101010102" type="curve" smooth="yes"/>
      <point x="913.1313131313132" y="1394.1010101010102"/>
      <point x="1030.828282828283" y="1380.969696969697"/>
      <point x="1121.090909090909" y="1344.6868686868686" type="curve"/>
      <point x="1121.090909090909" y="1450.8686868686868" type="line"/>
      <point x="1030.848484848485" y="1486.0"/>
      <point x="921.4343434343434" y="1498.2828282828282"/>
      <point x="816.6464646464647" y="1498.2828282828282" type="curve" smooth="yes"/>
      <point x="379.6969696969697" y="1498.2828282828282"/>
      <point x="146.92929292929293" y="1229.1919191919192"/>
      <point x="146.92929292929293" y="692.3030303030303" type="curve" smooth="yes"/>
      <point x="146.92929292929293" y="190.52525252525254"/>
      <point x="361.3939393939394" y="-18.282828282828284"/>
    </contour>
  </outline>
</glyph>
<glyph name="seven" format="2">
  <advance width="1031.6767676767677"/>
  <unicode hex="0037"/>
  <outline>
    <contour>
      <point x="202.0" y="0.0" type="line"/>
      <point x="335.41414141414145" y="0.0" type="line"/>
      <point x="970.2424242424242" y="1411.4343434343434" type="line"/>
      <point x="970.2424242424242" y="1480.0" type="line"/>
      <point x="15.434343434343434" y="1480.0" type="line"/>
      <point x="15.434343434343434" y="1373.010101010101" type="line"/>
      <point x="878.8686868686868" y="1373.010101010101" type="line"/>
      <point x="843.6363636363636" y="1413.151515151515" type="line"/>
    </contour>
  </outline>
</glyph>
<glyph name="eight" format="2">
  <advance width="1390.2626262626263"/>
  <unicode hex="0038"/>
  <outline>
    <contour>
      <point x="703.8585858585859" y="-18.282828282828284" type="curve" smooth="yes"/>
      <point x="1073.3535353535353" y="-18.282828282828284"/>
      <point x="1266.2020202020203" y="140.4848484848485"/>
      <point x="1266.2020202020203" y="383.9191919191919" type="curve" smooth="yes"/>
      <point x="1266.2020202020203" y="592.7676767676768"/>
      <point x="1123.5959595959596" y="722.1616161616162"/>
      <point x="749.6969696969697" y="787.5353535353536" type="curve" smooth="yes"/>
      <point x="412.52525252525254" y="845.7979797979798"/>
      <point x="303.2727272727273" y="941.030303030303"/>
      <point x="303.2727272727273" y="1118.3434343434344" type="curve" smooth="yes"/>
      <point x="303.2727272727273" y="1291.111111111111"/>
      <point x="431.67676767676767" y="1398.6262626262626"/>
      <point x="691.7979797979798" y="1398.6262626262626" type="curve" smooth="yes"/>
      <point x="946.2424242424242" y="1398.6262626262626"/>
      <point x="1092.949494949495" y="1300.828282828283"/>
      <point x="1092.949494949495" y="1114.9292929292928" type="curve" smooth="yes"/>
      <point x="1092.949494949495" y="951.6363636363636"/>
      <point x="1003.4545454545455" y="847.5757575757576"/>
      <point x="789.6161616161617" y="769.8383838383838" type="curve"/>
      <point x="883.89898989899" y="726.7878787878788" type="line"/>
      <point x="1098.4040404040404" y="799.070707070707"/>
      <point x="1209.030303030303" y="933.6363636363636"/>
      <point x="1209.030303030303" y="1124.8484848484848" type="curve" smooth="yes"/>
      <point x="1209.030303030303" y="1358.5656565656566"/>
      <point x="1020.5050505050506" y="1498.2828282828282"/>
      <point x="695.4949494949495" y="1498.2828282828282" type="curve" smooth="yes"/>
      <point x="364.9090909090909" y="1498.2828282828282"/>
      <point x="178.94949494949495" y="1351.4949494949494"/>
      <point x="178.94949494949495" y="1113.7979797979797" type="curve" smooth="yes"/>
      <point x="178.94949494949495" y="893.2121212121212"/>
      <point x="321.25252525252523" y="754.989898989899"/>
      <point x="705.1717171717172" y="687.8787878787879" type="curve" smooth="yes"/>
      <point x="1025.7777777777778" y="631.3131313131313"/>
      <point x="1142.7272727272727" y="545.8181818181818"/>
      <point x="1142.7272727272727" y="376.24242424242425" type="curve" smooth="yes"/>
      <point x="1142.7272727272727" y="185.75757575757578"/>
      <point x="992.3030303030303" y="81.3737373737374"/>
      <point x="705.8585858585859" y="81.3737373737374" type="curve" smooth="yes"/>
      <point x="405.67676767676767" y="81.3737373737374"/>
      <point x="245.53535353535358" y="186.8888888888889"/>
      <point x="245.53535353535358" y="388.22222222222223" type="curve" smooth="yes"/>
      <point x="245.53535353535358" y="549.5151515151515"/>
      <point x="354.2020202020202" y="683.030303030303"/>
      <point x="574.8686868686868" y="739.8989898989898" type="curve"/>
      <point x="467.19191919191917" y="782.10101010101" type="line"/>
      <point x="250.92929292929293" y="715.7979797979798"/>
      <point x="123.21212121212122" y="578.3636363636364"/>
      <point x="123.21212121212122" y="375.17171717171715" type="curve" smooth="yes"/>
      <point x="123.21212121212122" y="122.24242424242425"/>
      <point x="320.9494949494949" y="-18.282828282828284"/>
    </contour>
  </outline>
</glyph>
<glyph name="nine" format="2">
  <advance width="1267.6565656565658"/>
  <unicode hex="0039"/>
  <outline>
    <contour>
      <point x="557.7979797979798" y="1498.2828282828282" type="curve" smooth="yes"/>
      <point x="270.8484848484849" y="1498.2828282828282"/>
      <point x="75.73737373737373" y="1350.080808080808"/>
      <point x="75.73737373737373" y="1070.080808080808" type="curve" smooth="yes"/>
      <point x="75.73737373737373" y="782.1414141414141"/>
      <point x="266.26262626262627" y="638.989898989899"/>
      <point x="585.6969696969697" y="638.989898989899" type="curve" smooth="yes"/>
      <point x="741.7171717171717" y="638.989898989899"/>
      <point x="912.8888888888889" y="687.5757575757575"/>
      <point x="1018.929292929293" y="766.7474747474747" type="curve"/>
      <point x="1018.929292929293" y="871.8585858585859" type="line"/>
      <point x="909.1717171717172" y="780.3636363636364"/>
      <point x="734.1818181818182" y="740.3434343434344"/>
      <point x="602.989898989899" y="740.3434343434344" type="curve" smooth="yes"/>
      <point x="340.7676767676768" y="740.3434343434344"/>
      <point x="195.79797979797985" y="848.4444444444445"/>
      <point x="195.79797979797985" y="1073.2121212121212" type="curve" smooth="yes"/>
      <point x="195.79797979797985" y="1294.8484848484848"/>
      <point x="343.0707070707071" y="1396.9292929292928"/>
      <point x="557.7979797979798" y="1396.9292929292928" type="curve" smooth="yes"/>
      <point x="834.3030303030303" y="1396.9292929292928"/>
      <point x="996.1414141414141" y="1235.3535353535353"/>
      <point x="996.1414141414141" y="798.7474747474747" type="curve" smooth="yes"/>
      <point x="996.1414141414141" y="759.3131313131313" type="line" smooth="yes"/>
      <point x="996.1414141414141" y="306.04040404040404"/>
      <point x="812.040404040404" y="85.89898989898992"/>
      <point x="444.4848484848485" y="85.89898989898992" type="curve" smooth="yes"/>
      <point x="354.52525252525254" y="85.89898989898992"/>
      <point x="236.82828282828285" y="99.03030303030306"/>
      <point x="146.56565656565658" y="135.31313131313135" type="curve"/>
      <point x="146.56565656565658" y="29.13131313131313" type="line"/>
      <point x="236.80808080808083" y="-6.0"/>
      <point x="346.22222222222223" y="-18.282828282828284"/>
      <point x="451.01010101010104" y="-18.282828282828284" type="curve" smooth="yes"/>
      <point x="887.959595959596" y="-18.282828282828284"/>
      <point x="1120.7272727272727" y="250.80808080808083"/>
      <point x="1120.7272727272727" y="787.6969696969697" type="curve" smooth="yes"/>
      <point x="1120.7272727272727" y="1289.4747474747476"/>
      <point x="906.2626262626263" y="1498.2828282828282"/>
    </contour>
  </outline>
</glyph>
<glyph name="colon" format="2">
  <advance width="486.5050505050505"/>
  <unicode hex="003A"/>
  <outline>
    <contour>
      <point x="243.25252525252526" y="-11.414141414141415" type="curve" smooth="yes"/>
      <point x="299.89898989898995" y="-11.414141414141415"/>
      <point x="337.49494949494954" y="23.616161616161623"/>
      <point x="337.49494949494954" y="78.02020202020205" type="curve" smooth="yes"/>
      <point x="337.49494949494954" y="132.42424242424246"/>
      <point x="300.4646464646465" y="169.1717171717172"/>
      <point x="243.25252525252526" y="169.1717171717172" type="curve" smooth="yes"/>
      <point x="186.04040404040404" y="169.1717171717172"/>
      <point x="149.010101010101" y="132.98989898989902"/>
      <point x="149.010101010101" y="78.02020202020205" type="curve" smooth="yes"/>
      <point x="149.010101010101" y="23.05050505050506"/>
      <point x="186.6060606060606" y="-11.414141414141415"/>
    </contour>
    <contour>
      <point x="243.25252525252526" y="913.6565656565656" type="curve" smooth="yes"/>
      <point x="299.89898989898995" y="913.6565656565656"/>
      <point x="337.49494949494954" y="948.6868686868687"/>
      <point x="337.49494949494954" y="1003.0909090909091" type="curve" smooth="yes"/>
      <point x="337.49494949494954" y="1057.4949494949494"/>
      <point x="300.4646464646465" y="1094.2424242424242"/>
      <point x="243.25252525252526" y="1094.2424242424242" type="curve" smooth="yes"/>
      <point x="186.04040404040404" y="1094.2424242424242"/>
      <point x="149.010101010101" y="1058.060606060606"/>
      <point x="149.010101010101" y="1003.0909090909091" type="curve" smooth="yes"/>
      <point x="149.010101010101" y="948.1212121212121"/>
      <point x="186.6060606060606" y="913.6565656565656"/>
    </contour>
  </outline>
</glyph>
<glyph name="equal" format="2">
  <advance width="1120.4444444444443"/>
  <unicode hex="003D"/>
  <outline>
    <contour>
      <point x="179.25252525252523" y="900.10101010101" type="line"/>
      <point x="941.1919191919192" y="900.10101010101" type="line"/>
      <point x="941.1919191919192" y="1003.1313131313132" type="line"/>
      <point x="179.25252525252523" y="1003.1313131313132" type="line"/>
    </contour>
    <contour>
      <point x="179.25252525252523" y="516.8686868686868" type="line"/>
      <point x="941.1919191919192" y="516.8686868686868" type="line"/>
      <point x="941.1919191919192" y="619.89898989899" type="line"/>
      <point x="179.25252525252523" y="619.89898989899" type="line"/>
    </contour>
  </outline>
</glyph>
<glyph name="greater" format="2">
  <advance width="1120.4444444444443"/>
  <unicode hex="003E"/>
  <outline>
    <contour>
      <point x="179.25252525252523" y="379.6969696969697" type="line"/>
      <point x="941.1919191919192" y="707.4141414141413" type="line"/>
      <point x="941.1919191919192" y="812.5858585858587" type="line"/>
      <point x="179.25252525252523" y="1140.3030303030303" type="line"/>
      <point x="179.25252525252523" y="1030.4040404040404" type="line"/>
      <point x="852.5858585858585" y="746.3030303030303" type="line"/>
      <point x="852.5858585858585" y="775.1111111111111" type="line"/>
      <point x="179.25252525252523" y="489.5959595959596" type="line"/>
    </contour>
  </outline>
</glyph>
<glyph name="question" format="2">
  <advance width="980.2222222222223"/>
  <unicode hex="003F"/>
  <outline>
    <contour>
      <point x="412.86868686868684" y="332.80808080808083" type="line"/>
      <point x="493.3939393939394" y="332.80808080808083" type="line"/>
      <point x="505.939393939394" y="673.4545454545455" type="line"/>
      <point x="805.7373737373738" y="776.10101010101"/>
      <point x="913.3535353535353" y="902.3838383838383"/>
      <point x="913.3535353535353" y="1122.6666666666667" type="curve" smooth="yes"/>
      <point x="913.3535353535353" y="1357.7373737373737"/>
      <point x="738.2626262626263" y="1498.2828282828282"/>
      <point x="424.7676767676768" y="1498.2828282828282" type="curve" smooth="yes"/>
      <point x="292.5050505050505" y="1498.2828282828282"/>
      <point x="162.02020202020202" y="1479.1515151515152"/>
      <point x="47.15151515151515" y="1443.4343434343434" type="curve"/>
      <point x="47.15151515151515" y="1335.5555555555554" type="line"/>
      <point x="171.45454545454544" y="1375.2727272727273"/>
      <point x="297.13131313131316" y="1392.4040404040404"/>
      <point x="416.26262626262627" y="1392.4040404040404" type="curve" smooth="yes"/>
      <point x="658.0808080808081" y="1392.4040404040404"/>
      <point x="789.3333333333333" y="1290.020202020202"/>
      <point x="789.3333333333333" y="1116.7070707070707" type="curve" smooth="yes"/>
      <point x="789.3333333333333" y="937.3737373737374"/>
      <point x="693.2929292929293" y="835.3131313131313"/>
      <point x="391.25252525252523" y="745.7777777777778" type="curve"/>
    </contour>
    <contour>
      <point x="453.27272727272725" y="-11.414141414141415" type="curve" smooth="yes"/>
      <point x="511.6363636363636" y="-11.414141414141415"/>
      <point x="547.5151515151515" y="24.202020202020208"/>
      <point x="547.5151515151515" y="75.19191919191921" type="curve" smooth="yes"/>
      <point x="547.5151515151515" y="127.89898989898992"/>
      <point x="510.4848484848485" y="163.51515151515156"/>
      <point x="453.27272727272725" y="163.51515151515156" type="curve" smooth="yes"/>
      <point x="396.06060606060606" y="163.51515151515156"/>
      <point x="359.030303030303" y="128.46464646464648"/>
      <point x="359.030303030303" y="75.19191919191921" type="curve" smooth="yes"/>
      <point x="359.030303030303" y="23.63636363636364"/>
      <point x="396.62626262626264" y="-11.414141414141415"/>
    </contour>
  </outline>
</glyph>
<glyph name="at" format="2">
  <advance width="2133.212121212121"/>
  <unicode hex="0040"/>
  <outline>
    <contour>
      <point x="1120.0404040404042" y="-460.0" type="curve" smooth="yes"/>
      <point x="1268.828282828283" y="-460.0"/>
      <point x="1421.919191919192" y="-440.2828282828283"/>
      <point x="1555.8383838383838" y="-404.2828282828283" type="curve"/>
      <point x="1555.8383838383838" y="-306.86868686868684" type="line"/>
      <point x="1402.7474747474748" y="-346.30303030303025"/>
      <point x="1267.111111111111" y="-364.30303030303025"/>
      <point x="1120.0404040404042" y="-364.30303030303025" type="curve" smooth="yes"/>
      <point x="526.0606060606061" y="-364.30303030303025"/>
      <point x="237.71717171717174" y="-74.42424242424241"/>
      <point x="237.71717171717174" y="523.4343434343434" type="curve" smooth="yes"/>
      <point x="237.71717171717174" y="1105.8383838383838"/>
      <point x="522.6262626262626" y="1402.3030303030303"/>
      <point x="1072.888888888889" y="1402.3030303030303" type="curve" smooth="yes"/>
      <point x="1621.7171717171718" y="1402.3030303030303"/>
      <point x="1901.4747474747476" y="1113.8383838383838"/>
      <point x="1902.3232323232323" y="557.6767676767677" type="curve" smooth="yes"/>
      <point x="1902.888888888889" y="208.98989898989902"/>
      <point x="1787.6565656565658" y="76.00000000000003"/>
      <point x="1650.7070707070707" y="76.00000000000003" type="curve" smooth="yes"/>
      <point x="1551.7777777777778" y="76.00000000000003"/>
      <point x="1496.888888888889" y="121.17171717171719"/>
      <point x="1496.888888888889" y="259.85858585858585" type="curve" smooth="yes"/>
      <point x="1496.888888888889" y="714.8080808080808" type="line" smooth="yes"/>
      <point x="1496.888888888889" y="1005.2121212121212"/>
      <point x="1342.080808080808" y="1096.2828282828282"/>
      <point x="1064.6464646464647" y="1096.2828282828282" type="curve" smooth="yes"/>
      <point x="954.1212121212121" y="1096.2828282828282"/>
      <point x="826.4444444444445" y="1077.7171717171718"/>
      <point x="727.3535353535353" y="1041.1515151515152" type="curve"/>
      <point x="727.3535353535353" y="937.2323232323232" type="line"/>
      <point x="843.0909090909091" y="978.10101010101"/>
      <point x="963.3535353535353" y="993.2323232323232"/>
      <point x="1054.4848484848485" y="993.2323232323232" type="curve" smooth="yes"/>
      <point x="1260.7878787878788" y="993.2323232323232"/>
      <point x="1374.3030303030303" y="936.6464646464647"/>
      <point x="1374.3030303030303" y="715.9191919191919" type="curve" smooth="yes"/>
      <point x="1374.3030303030303" y="230.16161616161617" type="line"/>
      <point x="1280.4848484848485" y="131.45454545454547"/>
      <point x="1152.4040404040404" y="81.95959595959599"/>
      <point x="1026.2424242424242" y="81.95959595959599" type="curve" smooth="yes"/>
      <point x="857.7777777777778" y="81.95959595959599"/>
      <point x="776.8888888888889" y="156.62626262626264"/>
      <point x="776.8888888888889" y="283.5959595959596" type="curve" smooth="yes"/>
      <point x="776.8888888888889" y="407.6969696969697"/>
      <point x="858.3838383838385" y="472.34343434343435"/>
      <point x="1050.2626262626263" y="495.5151515151515" type="curve" smooth="yes"/>
      <point x="1418.7474747474748" y="540.4242424242424" type="line"/>
      <point x="1421.111111111111" y="628.7676767676768" type="line"/>
      <point x="1044.6060606060605" y="583.8585858585859" type="line" smooth="yes"/>
      <point x="768.5050505050506" y="553.2727272727273"/>
      <point x="648.5858585858585" y="455.5959595959596"/>
      <point x="648.5858585858585" y="274.22222222222223" type="curve" smooth="yes"/>
      <point x="648.5858585858585" y="93.67676767676768"/>
      <point x="778.5656565656566" y="-16.848484848484848"/>
      <point x="1004.7474747474747" y="-16.848484848484848" type="curve" smooth="yes"/>
      <point x="1154.2020202020203" y="-16.848484848484848"/>
      <point x="1295.6565656565656" y="41.474747474747474"/>
      <point x="1375.7171717171718" y="130.2828282828283" type="curve"/>
      <point x="1387.6969696969697" y="130.2828282828283" type="line"/>
      <point x="1419.6161616161617" y="39.73737373737374"/>
      <point x="1498.3838383838383" y="-16.848484848484848"/>
      <point x="1630.3030303030305" y="-16.848484848484848" type="curve" smooth="yes"/>
      <point x="1839.7979797979797" y="-16.848484848484848"/>
      <point x="2001.1313131313132" y="148.58585858585857"/>
      <point x="2002.848484848485" y="563.959595959596" type="curve" smooth="yes"/>
      <point x="2004.5656565656566" y="1163.090909090909"/>
      <point x="1678.969696969697" y="1498.0"/>
      <point x="1072.888888888889" y="1498.0" type="curve" smooth="yes"/>
      <point x="468.80808080808083" y="1498.0"/>
      <point x="130.36363636363637" y="1163.090909090909"/>
      <point x="130.36363636363637" y="520.0" type="curve" smooth="yes"/>
      <point x="130.36363636363637" y="-126.52525252525253"/>
      <point x="470.52525252525254" y="-458.2828282828283"/>
    </contour>
  </outline>
</glyph>
<glyph name="B" format="2">
  <advance width="1367.4545454545455"/>
  <unicode hex="0042"/>
  <anchor x="699.5555555555555" y="0.0" name="bottom"/>
  <anchor x="699.5555555555555" y="1480.0" name="top"/>
  <outline>
    <contour>
      <point x="604.8282828282828" y="-11.414141414141415" type="curve" smooth="yes"/>
      <point x="1100.0" y="-11.414141414141415"/>
      <point x="1280.828282828283" y="135.3939393939394"/>
      <point x="1280.828282828283" y="404.24242424242425" type="curve" smooth="yes"/>
      <point x="1280.828282828283" y="603.3737373737374"/>
      <point x="1170.0" y="743.7171717171717"/>
      <point x="915.5555555555557" y="769.7171717171717" type="curve"/>
      <point x="910.4040404040404" y="754.2828282828283" type="line"/>
      <point x="1139.979797979798" y="786.2828282828283"/>
      <point x="1237.6767676767677" y="918.5858585858585"/>
      <point x="1237.6767676767677" y="1100.909090909091" type="curve" smooth="yes"/>
      <point x="1237.6767676767677" y="1361.171717171717"/>
      <point x="1064.3030303030303" y="1494.8484848484848"/>
      <point x="647.89898989899" y="1494.8484848484848" type="curve" smooth="yes"/>
      <point x="476.2020202020202" y="1494.8484848484848"/>
      <point x="346.3838383838384" y="1480.3030303030303"/>
      <point x="203.83838383838383" y="1450.888888888889" type="curve"/>
      <point x="203.83838383838383" y="15.434343434343434" type="line"/>
      <point x="355.57575757575756" y="-4.282828282828283"/>
      <point x="470.8282828282828" y="-11.414141414141415"/>
    </contour>
    <contour>
      <point x="625.2121212121212" y="90.50505050505053" type="curve" smooth="yes"/>
      <point x="506.52525252525254" y="90.50505050505053"/>
      <point x="420.74747474747477" y="95.65656565656568"/>
      <point x="327.83838383838383" y="110.24242424242428" type="curve"/>
      <point x="327.83838383838383" y="1366.3434343434344" type="line"/>
      <point x="417.33333333333337" y="1383.2121212121212"/>
      <point x="513.6767676767677" y="1392.9292929292928"/>
      <point x="657.2525252525253" y="1392.9292929292928" type="curve" smooth="yes"/>
      <point x="985.5151515151515" y="1392.9292929292928"/>
      <point x="1116.7878787878788" y="1307.7171717171716"/>
      <point x="1116.7878787878788" y="1098.080808080808" type="curve" smooth="yes"/>
      <point x="1116.7878787878788" y="897.3131313131313"/>
      <point x="984.0808080808081" y="811.5353535353536"/>
      <point x="711.3131313131313" y="811.5353535353536" type="curve" smooth="yes"/>
      <point x="306.74747474747477" y="811.5353535353536" type="line"/>
      <point x="306.74747474747477" y="708.7676767676768" type="line"/>
      <point x="728.9898989898991" y="708.7676767676768" type="line" smooth="yes"/>
      <point x="1022.6262626262626" y="708.7676767676768"/>
      <point x="1160.20202020202" y="618.1212121212121"/>
      <point x="1160.20202020202" y="409.65656565656565" type="curve" smooth="yes"/>
      <point x="1160.20202020202" y="199.17171717171718"/>
      <point x="1038.6666666666667" y="90.50505050505053"/>
    </contour>
  </outline>
</glyph>
<glyph name="E" format="2">
  <advance width="1314.2626262626263"/>
  <unicode hex="0045"/>
  <anchor x="726.1818181818182" y="0.0" name="bottom"/>
  <anchor x="1126.5454545454545" y="0.0" name="ogonek"/>
  <anchor x="722.7474747474747" y="1520.0" name="top"/>
  <anchor x="45.15151515151515" y="1480.0" name="topleft"/>
  <outline>
    <contour>
      <point x="203.83838383838383" y="0.0" type="line"/>
      <point x="1209.3737373737374" y="0.0" type="line"/>
      <point x="1209.3737373737374" y="106.1616161616162" type="line"/>
      <point x="328.6868686868687" y="106.1616161616162" type="line"/>
      <point x="328.6868686868687" y="1373.8383838383838" type="line"/>
      <point x="1199.3737373737374" y="1373.8383838383838" type="line"/>
      <point x="1199.3737373737374" y="1480.0" type="line"/>
      <point x="203.83838383838383" y="1480.0" type="line"/>
    </contour>
    <contour>
      <point x="270.42424242424244" y="707.070707070707" type="line"/>
      <point x="1098.5252525252527" y="707.070707070707" type="line"/>
      <point x="1098.5252525252527" y="813.2323232323232" type="line"/>
      <point x="270.42424242424244" y="813.2323232323232" type="line"/>
    </contour>
  </outline>
</glyph>
<glyph name="F" format="2">
  <advance width="1271.3737373737374"/>
  <unicode hex="0046"/>
  <outline>
    <contour>
      <point x="203.83838383838383" y="0.0" type="line"/>
      <point x="329.5353535353536" y="0.0" type="line"/>
      <point x="329.5353535353536" y="1372.4242424242425" type="line"/>
      <point x="1190.7878787878788" y="1372.4242424242425" type="line"/>
      <point x="1190.7878787878788" y="1480.0" type="line"/>
      <point x="203.83838383838383" y="1480.0" type="line"/>
    </contour>
    <contour>
      <point x="292.1212121212121" y="699.4343434343434" type="line"/>
      <point x="1089.090909090909" y="699.4343434343434" type="line"/>
      <point x="1089.090909090909" y="807.010101010101" type="line"/>
      <point x="292.1212121212121" y="807.010101010101" type="line"/>
    </contour>
  </outline>
</glyph>
<glyph name="I" format="2">
  <advance width="533.3737373737374"/>
  <unicode hex="0049"/>
  <anchor x="266.4040404040404" y="0.0" name="bottom"/>
  <anchor x="329.5353535353536" y="0.0" name="ogonek"/>
  <anchor x="266.6868686868687" y="1520.0" name="top"/>
  <outline>
    <contour>
      <point x="203.83838383838383" y="0.0" type="line"/>
      <point x="329.5353535353536" y="0.0" type="line"/>
      <point x="329.5353535353536" y="1480.0" type="line"/>
      <point x="203.83838383838383" y="1480.0" type="line"/>
    </contour>
  </outline>
</glyph>
<glyph name="J" format="2">
  <advance width="533.3737373737374"/>
  <unicode hex="004A"/>
  <anchor x="384.4848484848485" y="0.0" name="bottom"/>
  <anchor x="266.969696969697" y="1520.0" name="top"/>
  <outline>
    <contour>
      <point x="84.24242424242428" y="-342.54545454545456" type="line"/>
      <point x="256.1212121212121" y="-146.86868686868686"/>
      <point x="317.51515151515156" y="28.505050505050512"/>
      <point x="329.5353535353536" y="259.6161616161616" type="curve"/>
      <point x="329.5353535353536" y="1480.0" type="line"/>
      <point x="204.4040404040404" y="1480.0" type="line"/>
      <point x="204.4040404040404" y="288.26262626262627" type="line" smooth="yes"/>
      <point x="204.4040404040404" y="61.65656565656566"/>
      <point x="142.64646464646464" y="-114.14141414141413"/>
      <point x="1.7373737373737352" y="-283.9191919191919" type="curve"/>
    </contour>
  </outline>
</glyph>
<glyph name="K" format="2">
  <advance width="1357.111111111111"/>
  <unicode hex="004B"/>
  <anchor x="695.7979797979798" y="0.0" name="bottom"/>
  <anchor x="694.9494949494949" y="1480.0" name="top"/>
  <outline>
    <contour>
      <point x="1200.4848484848485" y="0.0" type="line"/>
      <point x="1349.0101010101012" y="0.0" type="line"/>
      <point x="704.8686868686868" y="779.3737373737374" type="line"/>
      <point x="703.1717171717172" y="743.2121212121212" type="line"/>
      <point x="1305.878787878788" y="1480.0" type="line"/>
      <point x="1161.6161616161617" y="1480.0" type="line"/>
      <point x="572.3030303030303" y="757.4343434343434" type="line"/>
    </contour>
    <contour>
      <point x="203.83838383838383" y="0.0" type="line"/>
      <point x="329.5353535353536" y="0.0" type="line"/>
      <point x="329.5353535353536" y="1480.0" type="line"/>
      <point x="203.83838383838383" y="1480.0" type="line"/>
    </contour>
    <contour>
      <point x="306.74747474747477" y="703.3939393939394" type="line"/>
      <point x="638.6666666666667" y="703.3939393939394" type="line"/>
      <point x="638.6666666666667" y="816.9090909090909" type="line"/>
      <point x="306.74747474747477" y="816.9090909090909" type="line"/>
    </contour>
  </outline>
</glyph>
<glyph name="M" format="2">
  <advance width="1911.5555555555557"/>
  <unicode hex="004D"/>
  <anchor x="960.3030303030303" y="0.0" name="bottom"/>
  <anchor x="960.3030303030303" y="1480.0" name="top"/>
  <outline>
    <contour>
      <point x="207.83838383838383" y="0.0" type="line"/>
      <point x="327.29292929292933" y="0.0" type="line"/>
      <point x="327.29292929292933" y="1377.8989898989898" type="line"/>
      <point x="276.82828282828285" y="1377.8989898989898" type="line"/>
      <point x="895.4343434343434" y="202.82828282828282" type="line"/>
      <point x="1016.1212121212121" y="202.82828282828282" type="line"/>
      <point x="1629.6161616161617" y="1377.8989898989898" type="line"/>
      <point x="1584.2626262626263" y="1377.8989898989898" type="line"/>
      <point x="1584.2626262626263" y="0.0" type="line"/>
      <point x="1703.7171717171718" y="0.0" type="line"/>
      <point x="1703.7171717171718" y="1480.0" type="line"/>
      <point x="1558.4444444444443" y="1480.0" type="line"/>
      <point x="940.929292929293" y="286.0202020202021" type="line"/>
      <point x="976.040404040404" y="286.0202020202021" type="line"/>
      <point x="353.11111111111114" y="1480.0" type="line"/>
      <point x="207.83838383838383" y="1480.0" type="line"/>
    </contour>
  </outline>
</glyph>
<glyph name="O" format="2">
  <advance width="1617.2525252525252"/>
  <unicode hex="004F"/>
  <anchor x="808.6262626262626" y="0.0" name="bottom"/>
  <anchor x="808.6262626262626" y="740.0" name="center"/>
  <anchor x="985.5151515151515" y="0.0" name="ogonek"/>
  <anchor x="808.6262626262626" y="1520.0" name="top"/>
  <anchor x="51.41414141414141" y="1480.0" name="topleft"/>
  <anchor x="993.9797979797979" y="1480.0" name="topright"/>
  <outline>
    <contour>
      <point x="808.6262626262626" y="-18.282828282828284" type="curve" smooth="yes"/>
      <point x="1206.969696969697" y="-18.282828282828284"/>
      <point x="1486.888888888889" y="217.33333333333334"/>
      <point x="1486.888888888889" y="740.0" type="curve" smooth="yes"/>
      <point x="1486.888888888889" y="1262.6666666666667"/>
      <point x="1212.4040404040404" y="1498.2828282828282"/>
      <point x="808.6262626262626" y="1498.2828282828282" type="curve" smooth="yes"/>
      <point x="410.0" y="1498.2828282828282"/>
      <point x="130.36363636363637" y="1263.2323232323233"/>
      <point x="130.36363636363637" y="740.0" type="curve" smooth="yes"/>
      <point x="130.36363636363637" y="216.7676767676768"/>
      <point x="405.13131313131316" y="-18.282828282828284"/>
    </contour>
    <contour>
      <point x="808.6262626262626" y="92.14141414141417" type="curve" smooth="yes"/>
      <point x="481.9191919191919" y="92.14141414141417"/>
      <point x="260.62626262626264" y="275.6565656565657"/>
      <point x="260.62626262626264" y="744.5656565656566" type="curve" smooth="yes"/>
      <point x="260.62626262626264" y="1204.3434343434344"/>
      <point x="482.7676767676768" y="1387.858585858586"/>
      <point x="808.6262626262626" y="1387.858585858586" type="curve" smooth="yes"/>
      <point x="1134.4848484848485" y="1387.858585858586"/>
      <point x="1356.6262626262626" y="1203.4949494949494"/>
      <point x="1356.6262626262626" y="735.4343434343434" type="curve" smooth="yes"/>
      <point x="1356.6262626262626" y="276.5050505050505"/>
      <point x="1135.3333333333333" y="92.14141414141417"/>
    </contour>
  </outline>
</glyph>
<glyph name="P" format="2">
  <advance width="1344.2626262626263"/>
  <unicode hex="0050"/>
  <outline>
    <contour>
      <point x="203.83838383838383" y="0.0" type="line"/>
      <point x="329.5353535353536" y="0.0" type="line"/>
      <point x="329.5353535353536" y="511.9191919191919" type="line"/>
      <point x="420.7676767676768" y="503.3333333333333"/>
      <point x="492.24242424242425" y="499.6161616161616"/>
      <point x="580.6060606060606" y="499.6161616161616" type="curve" smooth="yes"/>
      <point x="1044.020202020202" y="499.6161616161616"/>
      <point x="1242.2222222222222" y="678.7474747474747"/>
      <point x="1242.2222222222222" y="1000.6666666666666" type="curve" smooth="yes"/>
      <point x="1242.2222222222222" y="1343.7373737373737"/>
      <point x="1022.5656565656566" y="1494.8484848484848"/>
      <point x="619.3333333333334" y="1494.8484848484848" type="curve" smooth="yes"/>
      <point x="468.5656565656566" y="1494.8484848484848"/>
      <point x="347.2323232323232" y="1481.7171717171718"/>
      <point x="203.83838383838383" y="1453.4343434343434" type="curve"/>
    </contour>
    <contour>
      <point x="581.1717171717172" y="602.3838383838383" type="curve" smooth="yes"/>
      <point x="485.0909090909091" y="602.3838383838383"/>
      <point x="409.8787878787879" y="607.8181818181819"/>
      <point x="329.5353535353536" y="618.969696969697" type="curve"/>
      <point x="329.5353535353536" y="1366.909090909091" type="line"/>
      <point x="417.33333333333337" y="1383.2121212121212"/>
      <point x="509.7171717171717" y="1392.080808080808"/>
      <point x="625.8383838383838" y="1392.080808080808" type="curve" smooth="yes"/>
      <point x="951.2121212121212" y="1392.080808080808"/>
      <point x="1115.6363636363635" y="1272.5656565656566"/>
      <point x="1115.6363636363635" y="998.9494949494949" type="curve" smooth="yes"/>
      <point x="1115.6363636363635" y="735.939393939394"/>
      <point x="966.6666666666666" y="602.3838383838383"/>
    </contour>
  </outline>
</glyph>
<glyph name="Q" format="2">
  <advance width="1617.2525252525252"/>
  <unicode hex="0051"/>
  <outline>
    <contour>
      <point x="1441.5151515151515" y="-210.26262626262627" type="curve"/>
      <point x="1458.2828282828282" y="-104.10101010101009" type="line"/>
      <point x="1206.6666666666667" y="-84.98989898989898"/>
      <point x="921.5151515151515" y="-44.44444444444443"/>
      <point x="733.3535353535353" y="28.3838383838384" type="curve"/>
      <point x="701.8585858585859" y="-2.9090909090909047" type="line"/>
      <point x="1212.1010101010102" y="-56.56565656565657"/>
      <point x="1486.888888888889" y="207.03030303030303"/>
      <point x="1486.888888888889" y="740.0" type="curve" smooth="yes"/>
      <point x="1486.888888888889" y="1272.969696969697"/>
      <point x="1207.2525252525252" y="1498.2828282828282"/>
      <point x="808.6262626262626" y="1498.2828282828282" type="curve" smooth="yes"/>
      <point x="410.0" y="1498.2828282828282"/>
      <point x="130.36363636363637" y="1263.2323232323233"/>
      <point x="130.36363636363637" y="737.1717171717172" type="curve" smooth="yes"/>
      <point x="130.36363636363637" y="157.03030303030303"/>
      <point x="423.4343434343434" y="-112.989898989899"/>
    </contour>
    <contour>
      <point x="808.6262626262626" y="92.14141414141417" type="curve" smooth="yes"/>
      <point x="481.3535353535354" y="92.14141414141417"/>
      <point x="260.62626262626264" y="275.0909090909091"/>
      <point x="260.62626262626264" y="744.5656565656566" type="curve" smooth="yes"/>
      <point x="260.62626262626264" y="1204.3434343434344"/>
      <point x="482.7676767676768" y="1387.858585858586"/>
      <point x="808.6262626262626" y="1387.858585858586" type="curve" smooth="yes"/>
      <point x="1134.4848484848485" y="1387.858585858586"/>
      <point x="1356.6262626262626" y="1203.4949494949494"/>
      <point x="1356.6262626262626" y="735.4343434343434" type="curve" smooth="yes"/>
      <point x="1356.6262626262626" y="276.5050505050505"/>
      <point x="1135.3333333333333" y="92.14141414141417"/>
    </contour>
  </outline>
</glyph>
<glyph name="T" format="2">
  <advance width="1284.7272727272727"/>
  <unicode hex="0054"/>
  <anchor x="642.3636363636364" y="0.0" name="bottom"/>
  <anchor x="642.3636363636364" y="785.8585858585858" name="center"/>
  <anchor x="642.3636363636364" y="1520.0" name="top"/>
  <outline>
    <contour>
      <point x="579.5151515151515" y="0.0" type="line"/>
      <point x="705.2121212121212" y="0.0" type="line"/>
      <point x="705.2121212121212" y="1371.2929292929293" type="line"/>
      <point x="1264.4444444444446" y="1371.2929292929293" type="line"/>
      <point x="1264.4444444444446" y="1480.0" type="line"/>
      <point x="20.282828282828284" y="1480.0" type="line"/>
      <point x="20.282828282828284" y="1371.2929292929293" type="line"/>
      <point x="579.5151515151515" y="1371.2929292929293" type="line"/>
    </contour>
  </outline>
</glyph>
<glyph name="V" format="2">
  <advance width="1442.929292929293"/>
  <unicode hex="0056"/>
  <outline>
    <contour>
      <point x="632.4646464646464" y="0.0" type="line"/>
      <point x="810.4646464646465" y="0.0" type="line"/>
      <point x="1421.4747474747476" y="1480.0" type="line"/>
      <point x="1293.4747474747473" y="1480.0" type="line"/>
      <point x="710.9494949494949" y="62.06060606060608" type="line"/>
      <point x="740.5252525252525" y="62.06060606060608" type="line"/>
      <point x="157.69696969696975" y="1480.0" type="line"/>
      <point x="21.454545454545453" y="1480.0" type="line"/>
    </contour>
  </outline>
</glyph>
<glyph name="X" format="2">
  <advance width="1399.6767676767677"/>
  <unicode hex="0058"/>
  <outline>
    <contour>
      <point x="1223.2929292929293" y="0.0" type="line"/>
      <point x="1375.2323232323233" y="0.0" type="line"/>
      <point x="774.929292929293" y="752.8080808080808" type="line"/>
      <point x="700.1212121212121" y="842.1616161616162" type="line"/>
      <point x="190.0404040404041" y="1480.0" type="line"/>
      <point x="38.1010101010101" y="1480.0" type="line"/>
      <point x="622.1818181818181" y="749.959595959596" type="line"/>
      <point x="696.989898989899" y="660.6060606060606" type="line"/>
    </contour>
    <contour>
      <point x="23.010101010101" y="0.0" type="line"/>
      <point x="170.969696969697" y="0.0" type="line"/>
      <point x="696.989898989899" y="660.6060606060606" type="line"/>
      <point x="774.929292929293" y="752.8080808080808" type="line"/>
      <point x="1357.5959595959596" y="1480.0" type="line"/>
      <point x="1211.6363636363635" y="1480.0" type="line"/>
      <point x="700.1212121212121" y="842.1616161616162" type="line"/>
      <point x="622.1818181818181" y="749.959595959596" type="line"/>
    </contour>
  </outline>
</glyph>
<glyph name="Z" format="2">
  <advance width="1287.959595959596"/>
  <unicode hex="005A"/>
  <anchor x="644.1212121212121" y="0.0" name="bottom"/>
  <anchor x="644.1212121212121" y="1520.0" name="top"/>
  <outline>
    <contour>
      <point x="71.97979797979798" y="0.0" type="line"/>
      <point x="1215.979797979798" y="0.0" type="line"/>
      <point x="1215.979797979798" y="106.98989898989902" type="line"/>
      <point x="209.01010101010107" y="106.98989898989902" type="line"/>
      <point x="219.31313131313135" y="73.93939393939397" type="line"/>
      <point x="1202.5454545454545" y="1409.7373737373737" type="line"/>
      <point x="1202.5454545454545" y="1480.0" type="line"/>
      <point x="85.41414141414141" y="1480.0" type="line"/>
      <point x="85.41414141414141" y="1373.010101010101" type="line"/>
      <point x="1065.5151515151515" y="1373.010101010101" type="line"/>
      <point x="1055.2121212121212" y="1406.060606060606" type="line"/>
      <point x="71.97979797979798" y="70.26262626262628" type="line"/>
    </contour>
  </outline>
</glyph>
<glyph name="bracketleft" format="2">
  <advance width="724.1010101010102"/>
  <unicode hex="005B"/>
  <outline>
    <contour>
      <point x="223.83838383838383" y="-440.0" type="line"/>
      <point x="758.7272727272727" y="-440.0" type="line"/>
      <point x="758.7272727272727" y="-334.1414141414141" type="line"/>
      <point x="347.8383838383839" y="-334.1414141414141" type="line"/>
      <point x="347.8383838383839" y="1510.141414141414" type="line"/>
      <point x="761.5555555555555" y="1510.141414141414" type="line"/>
      <point x="761.5555555555555" y="1616.0" type="line"/>
      <point x="223.83838383838383" y="1616.0" type="line"/>
    </contour>
  </outline>
</glyph>
<glyph name="backslash" format="2">
  <advance width="685.3737373737374"/>
  <unicode hex="005C"/>
  <outline>
    <contour>
      <point x="557.6565656565657" y="-240.0" type="line"/>
      <point x="685.3737373737374" y="-240.0" type="line"/>
      <point x="127.71717171717177" y="1616.0" type="line"/>
      <point x="0.0" y="1616.0" type="line"/>
    </contour>
  </outline>
</glyph>
<glyph name="bracketright" format="2">
  <advance width="724.1010101010102"/>
  <unicode hex="005D"/>
  <outline>
    <contour>
      <point x="-34.62626262626262" y="-440.0" type="line"/>
      <point x="500.2626262626263" y="-440.0" type="line"/>
      <point x="500.2626262626263" y="1616.0" type="line"/>
      <point x="-37.45454545454545" y="1616.0" type="line"/>
      <point x="-37.45454545454545" y="1510.141414141414" type="line"/>
      <point x="376.26262626262627" y="1510.141414141414" type="line"/>
      <point x="376.26262626262627" y="-334.1414141414141" type="line"/>
      <point x="-34.62626262626262" y="-334.1414141414141" type="line"/>
    </contour>
  </outline>
</glyph>
<glyph name="asciicircum" format="2">
  <advance width="1233.939393939394"/>
  <unicode hex="005E"/>
  <outline>
    <contour>
      <point x="102.68686868686868" y="740.0" type="line"/>
      <point x="238.42424242424246" y="740.0" type="line"/>
      <point x="635.959595959596" y="1412.7878787878788" type="line"/>
      <point x="597.9797979797979" y="1412.7878787878788" type="line"/>
      <point x="995.5151515151515" y="740.0" type="line"/>
      <point x="1131.2525252525252" y="740.0" type="line"/>
      <point x="689.2727272727273" y="1480.0" type="line"/>
      <point x="542.9494949494949" y="1480.0" type="line"/>
    </contour>
  </outline>
</glyph>
<glyph name="underscore" format="2">
  <advance width="1253.959595959596"/>
  <unicode hex="005F"/>
  <outline>
    <contour>
      <point x="98.58585858585859" y="-106.14141414141417" type="line"/>
      <point x="1155.3737373737374" y="-106.14141414141417" type="line"/>
      <point x="1155.3737373737374" y="-0.28282828282828304" type="line"/>
      <point x="98.58585858585859" y="-0.28282828282828304" type="line"/>
    </contour>
  </outline>
</glyph>
<glyph name="grave" format="2">
  <advance width="1200.0"/>
  <unicode hex="0060"/>
  <anchor x="600.0" y="1200.0" name="_top"/>
  <anchor x="600.0" y="1570.141414141414" name="top"/>
  <outline>
    <contour>
      <point x="537.9797979797979" y="1257.7777777777778" type="line"/>
      <point x="662.0202020202021" y="1257.7777777777778" type="line"/>
      <point x="395.4343434343435" y="1616.0" type="line"/>
      <point x="251.47474747474746" y="1616.0" type="line"/>
    </contour>
  </outline>
</glyph>
<glyph name="b" format="2">
  <advance width="1265.050505050505"/>
  <unicode hex="0062"/>
  <anchor x="634.3838383838383" y="0.0" name="bottom"/>
  <anchor x="246.6868686868687" y="1616.0" name="top"/>
  <outline>
    <contour>
      <point x="555.5151515151515" y="-18.565656565656568" type="curve" smooth="yes"/>
      <point x="945.0505050505051" y="-18.565656565656568"/>
      <point x="1145.818181818182" y="175.11111111111111"/>
      <point x="1145.818181818182" y="562.8282828282828" type="curve" smooth="yes"/>
      <point x="1145.818181818182" y="946.8686868686868"/>
      <point x="939.8585858585859" y="1099.111111111111"/>
      <point x="677.010101010101" y="1099.111111111111" type="curve" smooth="yes"/>
      <point x="525.5555555555555" y="1099.111111111111"/>
      <point x="402.10101010101016" y="1045.6565656565656"/>
      <point x="316.66666666666674" y="959.6363636363636" type="curve"/>
      <point x="308.6868686868687" y="959.6363636363636" type="line"/>
      <point x="308.6868686868687" y="1616.0" type="line"/>
      <point x="184.68686868686868" y="1616.0" type="line"/>
      <point x="184.68686868686868" y="32.82828282828283" type="line"/>
      <point x="304.8888888888889" y="-2.0"/>
      <point x="428.1818181818182" y="-18.565656565656568"/>
    </contour>
    <contour>
      <point x="568.3232323232323" y="86.18181818181822" type="curve" smooth="yes"/>
      <point x="464.80808080808083" y="86.18181818181822"/>
      <point x="375.59595959595964" y="100.76767676767679"/>
      <point x="308.6868686868687" y="120.78787878787881" type="curve"/>
      <point x="308.6868686868687" y="843.070707070707" type="line"/>
      <point x="398.46464646464653" y="948.060606060606"/>
      <point x="522.5656565656566" y="990.969696969697"/>
      <point x="649.5353535353536" y="990.969696969697" type="curve" smooth="yes"/>
      <point x="861.959595959596" y="990.969696969697"/>
      <point x="1019.2323232323232" y="878.020202020202"/>
      <point x="1019.2323232323232" y="551.4343434343434" type="curve" smooth="yes"/>
      <point x="1019.2323232323232" y="232.5858585858586"/>
      <point x="867.1111111111111" y="86.18181818181822"/>
    </contour>
  </outline>
</glyph>
<glyph name="f" format="2">
  <advance width="801.4141414141415"/>
  <unicode hex="0066"/>
  <outline>
    <contour>
      <point x="257.47474747474746" y="0.0" type="line"/>
      <point x="381.4747474747475" y="0.0" type="line"/>
      <point x="381.4747474747475" y="1223.8989898989898" type="line" smooth="yes"/>
      <point x="381.4747474747475" y="1446.949494949495"/>
      <point x="480.10101010101016" y="1529.2727272727273"/>
      <point x="689.3333333333334" y="1529.2727272727273" type="curve" smooth="yes"/>
      <point x="737.6363636363636" y="1529.2727272727273"/>
      <point x="793.6767676767677" y="1523.8383838383838"/>
      <point x="845.6969696969697" y="1514.6868686868686" type="curve"/>
      <point x="845.6969696969697" y="1622.2828282828282" type="line"/>
      <point x="793.4343434343434" y="1630.2828282828282"/>
      <point x="737.1313131313132" y="1636.0"/>
      <point x="681.4545454545455" y="1636.0" type="curve" smooth="yes"/>
      <point x="401.33333333333337" y="1636.0"/>
      <point x="257.47474747474746" y="1496.121212121212"/>
      <point x="257.47474747474746" y="1215.050505050505" type="curve" smooth="yes"/>
    </contour>
    <contour>
      <point x="25.959595959595962" y="976.969696969697" type="line"/>
      <point x="800.0" y="976.969696969697" type="line"/>
      <point x="800.0" y="1082.828282828283" type="line"/>
      <point x="25.959595959595962" y="1082.828282828283" type="line"/>
    </contour>
  </outline>
</glyph>
<glyph name="j" format="2">
  <advance width="493.3737373737374"/>
  <unicode hex="006A"/>
  <anchor x="245.27272727272728" y="1210.3030303030303" name="_top"/>
  <anchor x="245.27272727272728" y="1210.3030303030303" name="top"/>
  <outline>
    <contour>
      <point x="63.95959595959599" y="-462.26262626262627" type="line"/>
      <point x="235.2727272727273" y="-266.5858585858586"/>
      <point x="308.6868686868687" y="-74.6060606060606"/>
      <point x="308.6868686868687" y="173.67676767676767" type="curve" smooth="yes"/>
      <point x="308.6868686868687" y="1082.828282828283" type="line"/>
      <point x="184.68686868686868" y="1082.828282828283" type="line"/>
      <point x="184.68686868686868" y="167.97979797979798" type="line" smooth="yes"/>
      <point x="184.68686868686868" y="-58.62626262626262"/>
      <point x="122.92929292929293" y="-234.4242424242424"/>
      <point x="-17.97979797979798" y="-404.2020202020202" type="curve"/>
    </contour>
    <contour>
      <point x="245.27272727272728" y="1348.5252525252524" type="curve" smooth="yes"/>
      <point x="303.0505050505051" y="1348.5252525252524"/>
      <point x="337.2525252525253" y="1379.5959595959596"/>
      <point x="337.2525252525253" y="1431.7373737373737" type="curve" smooth="yes"/>
      <point x="337.2525252525253" y="1483.878787878788"/>
      <point x="303.0505050505051" y="1516.6666666666667"/>
      <point x="245.27272727272728" y="1516.6666666666667" type="curve" smooth="yes"/>
      <point x="187.49494949494948" y="1516.6666666666667"/>
      <point x="153.29292929292927" y="1483.878787878788"/>
      <point x="153.29292929292927" y="1431.7373737373737" type="curve" smooth="yes"/>
      <point x="153.29292929292927" y="1379.5959595959596"/>
      <point x="187.49494949494948" y="1348.5252525252524"/>
    </contour>
  </outline>
</glyph>
<glyph name="k" format="2">
  <advance width="1134.888888888889"/>
  <unicode hex="006B"/>
  <anchor x="600.3232323232323" y="0.0" name="bottom"/>
  <anchor x="246.6868686868687" y="1616.0" name="top"/>
  <outline>
    <contour>
      <point x="1000.3030303030303" y="0.0" type="line"/>
      <point x="1145.4141414141413" y="0.0" type="line"/>
      <point x="636.1414141414142" y="571.89898989899" type="line"/>
      <point x="636.1414141414142" y="539.1717171717172" type="line"/>
      <point x="1112.5656565656566" y="1082.828282828283" type="line"/>
      <point x="968.8686868686868" y="1082.828282828283" type="line"/>
      <point x="500.14141414141415" y="553.979797979798" type="line"/>
    </contour>
    <contour>
      <point x="290.42424242424244" y="500.2020202020202" type="line"/>
      <point x="561.6969696969697" y="500.2020202020202" type="line"/>
      <point x="561.6969696969697" y="607.7575757575758" type="line"/>
      <point x="290.42424242424244" y="607.7575757575758" type="line"/>
    </contour>
    <contour>
      <point x="184.68686868686868" y="0.0" type="line"/>
      <point x="308.6868686868687" y="0.0" type="line"/>
      <point x="308.6868686868687" y="1616.0" type="line"/>
      <point x="184.68686868686868" y="1616.0" type="line"/>
    </contour>
  </outline>
</glyph>
<glyph name="l" format="2">
  <advance width="493.3737373737374"/>
  <unicode hex="006C"/>
  <anchor x="246.40404040404042" y="0.0" name="bottom"/>
  <anchor x="443.03030303030306" y="1616.0" name="caronalt"/>
  <anchor x="508.4848484848485" y="794.0" name="periodcentered"/>
  <anchor x="246.6868686868687" y="714.0" name="slash"/>
  <anchor x="246.6868686868687" y="1616.0" name="top"/>
  <outline>
    <contour>
      <point x="184.68686868686868" y="0.0" type="line"/>
      <point x="308.6868686868687" y="0.0" type="line"/>
      <point x="308.6868686868687" y="1616.0" type="line"/>
      <point x="184.68686868686868" y="1616.0" type="line"/>
    </contour>
  </outline>
</glyph>
<glyph name="m" format="2">
  <advance width="1858.1212121212122"/>
  <unicode hex="006D"/>
  <anchor x="942.060606060606" y="0.0" name="bottom"/>
  <anchor x="942.060606060606" y="1200.0" name="top"/>
  <outline>
    <contour>
      <point x="184.68686868686868" y="0.0" type="line"/>
      <point x="308.6868686868687" y="0.0" type="line"/>
      <point x="308.6868686868687" y="824.5454545454545" type="line"/>
      <point x="397.3535353535354" y="938.10101010101"/>
      <point x="518.3232323232323" y="988.1414141414141"/>
      <point x="632.6868686868687" y="988.1414141414141" type="curve" smooth="yes"/>
      <point x="782.5252525252525" y="988.1414141414141"/>
      <point x="880.6262626262626" y="910.929292929293"/>
      <point x="880.6262626262626" y="688.4646464646464" type="curve" smooth="yes"/>
      <point x="880.6262626262626" y="0.0" type="line"/>
      <point x="1003.2121212121212" y="0.0" type="line"/>
      <point x="1003.2121212121212" y="694.7070707070707" type="line" smooth="yes"/>
      <point x="1003.2121212121212" y="985.1717171717172"/>
      <point x="862.9898989898991" y="1099.111111111111"/>
      <point x="658.2020202020202" y="1099.111111111111" type="curve" smooth="yes"/>
      <point x="525.070707070707" y="1099.111111111111"/>
      <point x="400.4848484848485" y="1048.5252525252524"/>
      <point x="308.4646464646465" y="954.2020202020202" type="curve"/>
      <point x="298.7676767676768" y="954.2020202020202" type="line"/>
      <point x="289.6565656565657" y="1082.828282828283" type="line"/>
      <point x="184.68686868686868" y="1082.828282828283" type="line"/>
    </contour>
    <contour>
      <point x="1566.3030303030303" y="0.0" type="line"/>
      <point x="1690.020202020202" y="0.0" type="line"/>
      <point x="1690.020202020202" y="693.8585858585858" type="line" smooth="yes"/>
      <point x="1690.020202020202" y="985.1717171717172"/>
      <point x="1545.5151515151515" y="1099.111111111111"/>
      <point x="1333.030303030303" y="1099.111111111111" type="curve" smooth="yes"/>
      <point x="1204.1818181818182" y="1099.111111111111"/>
      <point x="1052.7272727272727" y="1050.5252525252524"/>
      <point x="929.2929292929293" y="907.89898989899" type="curve"/>
      <point x="963.7575757575758" y="793.6363636363636" type="line"/>
      <point x="1054.141414141414" y="938.10101010101"/>
      <point x="1196.020202020202" y="988.1414141414141"/>
      <point x="1312.080808080808" y="988.1414141414141" type="curve" smooth="yes"/>
      <point x="1463.3535353535353" y="988.1414141414141"/>
      <point x="1566.3030303030303" y="910.929292929293"/>
      <point x="1566.3030303030303" y="688.4646464646464" type="curve" smooth="yes"/>
    </contour>
  </outline>
</glyph>
<glyph name="n" format="2">
  <advance width="1274.828282828283"/>
  <unicode hex="006E"/>
  <anchor x="15.434343434343434" y="1200.0" name="apostrophe"/>
  <anchor x="646.7070707070707" y="0.0" name="bottom"/>
  <anchor x="646.7070707070707" y="1200.0" name="top"/>
  <outline>
    <contour>
      <point x="184.68686868686868" y="0.0" type="line"/>
      <point x="308.6868686868687" y="0.0" type="line"/>
      <point x="308.6868686868687" y="829.6969696969696" type="line"/>
      <point x="415.6565656565657" y="944.969696969697"/>
      <point x="565.7979797979798" y="988.1414141414141"/>
      <point x="689.030303030303" y="988.1414141414141" type="curve" smooth="yes"/>
      <point x="871.4747474747475" y="988.1414141414141"/>
      <point x="982.7272727272727" y="907.4949494949494"/>
      <point x="982.7272727272727" y="685.030303030303" type="curve" smooth="yes"/>
      <point x="982.7272727272727" y="0.0" type="line"/>
      <point x="1106.7272727272727" y="0.0" type="line"/>
      <point x="1106.7272727272727" y="686.989898989899" type="line" smooth="yes"/>
      <point x="1106.7272727272727" y="983.4545454545455"/>
      <point x="947.3535353535353" y="1099.111111111111"/>
      <point x="708.5454545454546" y="1099.111111111111" type="curve" smooth="yes"/>
      <point x="559.959595959596" y="1099.111111111111"/>
      <point x="416.7878787878788" y="1048.5252525252524"/>
      <point x="308.4646464646465" y="954.2020202020202" type="curve"/>
      <point x="298.7676767676768" y="954.2020202020202" type="line"/>
      <point x="289.6565656565657" y="1082.828282828283" type="line"/>
      <point x="184.68686868686868" y="1082.828282828283" type="line"/>
    </contour>
  </outline>
</glyph>
<glyph name="p" format="2">
  <advance width="1265.050505050505"/>
  <unicode hex="0070"/>
  <outline>
    <contour>
      <point x="184.68686868686868" y="-440.0" type="line"/>
      <point x="308.6868686868687" y="-440.0" type="line"/>
      <point x="308.6868686868687" y="3.1717171717171695" type="line"/>
      <point x="377.5757575757576" y="-7.696969696969699"/>
      <point x="465.0505050505051" y="-18.565656565656568"/>
      <point x="554.2424242424242" y="-18.565656565656568" type="curve" smooth="yes"/>
      <point x="944.2020202020202" y="-18.565656565656568"/>
      <point x="1145.818181818182" y="175.95959595959596"/>
      <point x="1145.818181818182" y="561.979797979798" type="curve" smooth="yes"/>
      <point x="1145.818181818182" y="949.4141414141415"/>
      <point x="935.878787878788" y="1099.111111111111"/>
      <point x="664.7676767676768" y="1099.111111111111" type="curve" smooth="yes"/>
      <point x="518.7676767676768" y="1099.111111111111"/>
      <point x="392.74747474747477" y="1043.959595959596"/>
      <point x="309.03030303030306" y="952.7878787878788" type="curve"/>
      <point x="301.0505050505051" y="952.7878787878788" type="line"/>
      <point x="290.7878787878788" y="1082.828282828283" type="line"/>
      <point x="184.68686868686868" y="1082.828282828283" type="line"/>
    </contour>
    <contour>
      <point x="552.8686868686868" y="86.46464646464649" type="curve" smooth="yes"/>
      <point x="464.80808080808083" y="86.46464646464649"/>
      <point x="375.59595959595964" y="97.61616161616165"/>
      <point x="308.6868686868687" y="115.63636363636365" type="curve"/>
      <point x="308.6868686868687" y="831.3535353535353" type="line"/>
      <point x="397.89898989898995" y="947.7777777777777"/>
      <point x="520.8484848484849" y="990.969696969697"/>
      <point x="642.9494949494949" y="990.969696969697" type="curve" smooth="yes"/>
      <point x="861.6767676767677" y="990.969696969697"/>
      <point x="1019.2323232323232" y="878.020202020202"/>
      <point x="1019.2323232323232" y="550.8686868686868" type="curve" smooth="yes"/>
      <point x="1019.2323232323232" y="232.8686868686869"/>
      <point x="867.1111111111111" y="86.46464646464649"/>
    </contour>
  </outline>
</glyph>
<glyph name="q" format="2">
  <advance width="1265.050505050505"/>
  <unicode hex="0071"/>
  <outline>
    <contour>
      <point x="956.3636363636364" y="-440.0" type="line"/>
      <point x="1080.3636363636365" y="-440.0" type="line"/>
      <point x="1080.3636363636365" y="1047.7171717171718" type="line"/>
      <point x="962.7070707070707" y="1081.6969696969697"/>
      <point x="836.8686868686868" y="1099.111111111111"/>
      <point x="709.5353535353536" y="1099.111111111111" type="curve" smooth="yes"/>
      <point x="320.0" y="1099.111111111111"/>
      <point x="119.23232323232322" y="905.4343434343434"/>
      <point x="119.23232323232322" y="517.7171717171717" type="curve" smooth="yes"/>
      <point x="119.23232323232322" y="133.67676767676767"/>
      <point x="325.19191919191917" y="-18.565656565656568"/>
      <point x="588.040404040404" y="-18.565656565656568" type="curve" smooth="yes"/>
      <point x="739.4949494949495" y="-18.565656565656568"/>
      <point x="862.9494949494949" y="34.888888888888886"/>
      <point x="948.3838383838383" y="120.9090909090909" type="curve"/>
      <point x="956.3636363636364" y="120.9090909090909" type="line"/>
    </contour>
    <contour>
      <point x="615.5151515151515" y="89.5757575757576" type="curve" smooth="yes"/>
      <point x="403.0909090909091" y="89.5757575757576"/>
      <point x="245.81818181818184" y="202.52525252525254"/>
      <point x="245.81818181818184" y="529.1111111111111" type="curve" smooth="yes"/>
      <point x="245.81818181818184" y="847.959595959596"/>
      <point x="399.0707070707071" y="994.3636363636364"/>
      <point x="696.7272727272727" y="994.3636363636364" type="curve" smooth="yes"/>
      <point x="800.5252525252525" y="994.3636363636364"/>
      <point x="889.4545454545455" y="981.4949494949494"/>
      <point x="956.3636363636364" y="963.1919191919192" type="curve"/>
      <point x="956.3636363636364" y="237.4747474747475" type="line"/>
      <point x="866.5858585858587" y="132.4848484848485"/>
      <point x="739.0505050505051" y="89.5757575757576"/>
    </contour>
  </outline>
</glyph>
<glyph name="v" format="2">
  <advance width="1173.2929292929293"/>
  <unicode hex="0076"/>
  <anchor x="588.3636363636364" y="0.0" name="bottom"/>
  <anchor x="588.3636363636364" y="1200.0" name="top"/>
  <outline>
    <contour>
      <point x="507.55555555555554" y="0.0" type="line"/>
      <point x="665.4545454545455" y="0.0" type="line"/>
      <point x="1142.6464646464647" y="1082.828282828283" type="line"/>
      <point x="1018.6262626262626" y="1082.828282828283" type="line"/>
      <point x="584.0606060606061" y="84.94949494949499" type="line"/>
      <point x="599.4747474747475" y="84.94949494949499" type="line"/>
      <point x="164.90909090909093" y="1082.828282828283" type="line"/>
      <point x="30.64646464646464" y="1082.828282828283" type="line"/>
    </contour>
  </outline>
</glyph>
<glyph name="w" format="2">
  <advance width="1852.9292929292928"/>
  <unicode hex="0077"/>
  <anchor x="928.3232323232323" y="0.0" name="bottom"/>
  <anchor x="928.3232323232323" y="1200.0" name="top"/>
  <outline>
    <contour>
      <point x="447.27272727272725" y="0.0" type="line"/>
      <point x="600.6666666666667" y="0.0" type="line"/>
      <point x="936.8888888888889" y="994.1616161616162" type="line"/>
      <point x="917.4545454545455" y="994.1616161616162" type="line"/>
      <point x="1254.2626262626263" y="0.0" type="line"/>
      <point x="1407.6565656565658" y="0.0" type="line"/>
      <point x="1768.888888888889" y="1082.828282828283" type="line"/>
      <point x="1647.111111111111" y="1082.828282828283" type="line"/>
      <point x="1320.2828282828282" y="95.1515151515152" type="line"/>
      <point x="1337.6969696969697" y="95.1515151515152" type="line"/>
      <point x="1005.4343434343434" y="1082.828282828283" type="line"/>
      <point x="852.040404040404" y="1082.828282828283" type="line"/>
      <point x="520.929292929293" y="95.43434343434348" type="line"/>
      <point x="536.929292929293" y="95.43434343434348" type="line"/>
      <point x="210.3636363636364" y="1082.828282828283" type="line"/>
      <point x="84.04040404040404" y="1082.828282828283" type="line"/>
    </contour>
  </outline>
</glyph>
<glyph name="x" format="2">
  <advance width="1132.7676767676767"/>
  <unicode hex="0078"/>
  <anchor x="568.1010101010102" y="0.0" name="bottom"/>
  <anchor x="568.1010101010102" y="1200.0" name="top"/>
  <outline>
    <contour>
      <point x="950.4444444444443" y="0.0" type="line"/>
      <point x="1101.5555555555557" y="0.0" type="line"/>
      <point x="643.2121212121212" y="547.979797979798" type="line"/>
      <point x="568.9494949494949" y="632.7676767676768" type="line"/>
      <point x="195.19191919191923" y="1082.828282828283" type="line"/>
      <point x="44.080808080808076" y="1082.828282828283" type="line"/>
      <point x="490.70707070707067" y="545.4141414141415" type="line"/>
      <point x="565.8181818181819" y="460.6262626262626" type="line"/>
    </contour>
    <contour>
      <point x="34.36363636363636" y="0.0" type="line"/>
      <point x="183.49494949494954" y="0.0" type="line"/>
      <point x="565.8181818181819" y="460.6262626262626" type="line"/>
      <point x="643.2121212121212" y="547.979797979798" type="line"/>
      <point x="1089.2727272727273" y="1082.828282828283" type="line"/>
      <point x="943.5757575757575" y="1082.828282828283" type="line"/>
      <point x="568.9494949494949" y="632.7676767676768" type="line"/>
      <point x="490.70707070707067" y="545.4141414141415" type="line"/>
    </contour>
  </outline>
</glyph>
<glyph name="z" format="2">
  <advance width="1028.4444444444446"/>
  <unicode hex="007A"/>
  <anchor x="517.7777777777778" y="0.0" name="bottom"/>
  <anchor x="517.7777777777778" y="1200.0" name="top"/>
  <outline>
    <contour>
      <point x="71.39393939393939" y="0.0" type="line"/>
      <point x="963.8787878787879" y="0.0" type="line"/>
      <point x="963.8787878787879" y="105.85858585858588" type="line"/>
      <point x="219.01010101010104" y="105.85858585858588" type="line"/>
      <point x="219.01010101010104" y="75.0707070707071" type="line"/>
      <point x="950.4444444444445" y="1006.060606060606" type="line"/>
      <point x="950.4444444444445" y="1082.828282828283" type="line"/>
      <point x="84.82828282828282" y="1082.828282828283" type="line"/>
      <point x="84.82828282828282" y="976.969696969697" type="line"/>
      <point x="802.8282828282828" y="976.969696969697" type="line"/>
      <point x="802.8282828282828" y="1007.7575757575758" type="line"/>
      <point x="71.39393939393939" y="76.76767676767679" type="line"/>
    </contour>
  </outline>
</glyph>
<glyph name="braceleft" format="2">
  <advance width="764.1010101010102"/>
  <unicode hex="007B"/>
  <outline>
    <contour>
      <point x="668.2626262626263" y="-460.0" type="curve" smooth="yes"/>
      <point x="717.9191919191919" y="-460.0"/>
      <point x="767.030303030303" y="-455.7171717171717"/>
      <point x="801.5555555555555" y="-449.4343434343434" type="curve"/>
      <point x="801.5555555555555" y="-351.57575757575756" type="line"/>
      <point x="677.2727272727273" y="-351.57575757575756" type="line" smooth="yes"/>
      <point x="484.5050505050505" y="-351.57575757575756"/>
      <point x="387.8383838383839" y="-277.4949494949495"/>
      <point x="387.8383838383839" y="-82.72727272727272" type="curve" smooth="yes"/>
      <point x="387.8383838383839" y="370.8888888888889" type="line" smooth="yes"/>
      <point x="387.8383838383839" y="532.5454545454545"/>
      <point x="331.3737373737374" y="609.6363636363636"/>
      <point x="202.50505050505052" y="631.959595959596" type="curve"/>
      <point x="202.50505050505052" y="614.8686868686868" type="line"/>
      <point x="331.3737373737374" y="637.1919191919192"/>
      <point x="387.8383838383839" y="714.2828282828283"/>
      <point x="387.8383838383839" y="875.939393939394" type="curve" smooth="yes"/>
      <point x="387.8383838383839" y="1258.7272727272727" type="line" smooth="yes"/>
      <point x="387.8383838383839" y="1453.4949494949494"/>
      <point x="484.5050505050505" y="1527.5757575757575"/>
      <point x="677.2727272727273" y="1527.5757575757575" type="curve" smooth="yes"/>
      <point x="801.5555555555555" y="1527.5757575757575" type="line"/>
      <point x="801.5555555555555" y="1625.4343434343434" type="line"/>
      <point x="767.030303030303" y="1631.7171717171718"/>
      <point x="717.9191919191919" y="1636.0"/>
      <point x="668.2626262626263" y="1636.0" type="curve" smooth="yes"/>
      <point x="400.64646464646466" y="1636.0"/>
      <point x="263.83838383838383" y="1512.6262626262626"/>
      <point x="263.83838383838383" y="1258.6666666666667" type="curve" smooth="yes"/>
      <point x="263.83838383838383" y="861.3131313131313" type="line" smooth="yes"/>
      <point x="263.83838383838383" y="729.4949494949495"/>
      <point x="203.8181818181818" y="676.3434343434344"/>
      <point x="80.58585858585859" y="676.3434343434344" type="curve" smooth="yes"/>
      <point x="47.79797979797979" y="676.3434343434344" type="line"/>
      <point x="47.79797979797979" y="570.4848484848485" type="line"/>
      <point x="80.58585858585859" y="570.4848484848485" type="line" smooth="yes"/>
      <point x="203.8181818181818" y="570.4848484848485"/>
      <point x="263.83838383838383" y="517.3333333333334"/>
      <point x="263.83838383838383" y="385.5151515151515" type="curve" smooth="yes"/>
      <point x="263.83838383838383" y="-82.66666666666666" type="line" smooth="yes"/>
      <point x="263.83838383838383" y="-336.62626262626264"/>
      <point x="400.64646464646466" y="-460.0"/>
    </contour>
  </outline>
</glyph>
<glyph name="bar" format="2">
  <advance width="525.4545454545455"/>
  <unicode hex="007C"/>
  <outline>
    <contour>
      <point x="203.83838383838383" y="-440.0" type="line"/>
      <point x="321.61616161616166" y="-440.0" type="line"/>
      <point x="321.61616161616166" y="1616.0" type="line"/>
      <point x="203.83838383838383" y="1616.0" type="line"/>
    </contour>
  </outline>
</glyph>
<glyph name="braceright" format="2">
  <advance width="764.1010101010102"/>
  <unicode hex="007D"/>
  <outline>
    <contour>
      <point x="95.83838383838385" y="-460.0" type="curve" smooth="yes"/>
      <point x="363.4545454545455" y="-460.0"/>
      <point x="500.2626262626263" y="-336.62626262626264"/>
      <point x="500.2626262626263" y="-82.66666666666666" type="curve" smooth="yes"/>
      <point x="500.2626262626263" y="385.5151515151515" type="line" smooth="yes"/>
      <point x="500.2626262626263" y="517.3333333333334"/>
      <point x="560.2828282828283" y="570.4848484848485"/>
      <point x="683.5151515151515" y="570.4848484848485" type="curve" smooth="yes"/>
      <point x="716.3030303030303" y="570.4848484848485" type="line"/>
      <point x="716.3030303030303" y="676.3434343434344" type="line"/>
      <point x="683.5151515151515" y="676.3434343434344" type="line" smooth="yes"/>
      <point x="560.2828282828283" y="676.3434343434344"/>
      <point x="500.2626262626263" y="729.4949494949495"/>
      <point x="500.2626262626263" y="861.3131313131313" type="curve" smooth="yes"/>
      <point x="500.2626262626263" y="1258.6666666666667" type="line" smooth="yes"/>
      <point x="500.2626262626263" y="1512.6262626262626"/>
      <point x="363.4545454545455" y="1636.0"/>
      <point x="95.83838383838385" y="1636.0" type="curve" smooth="yes"/>
      <point x="46.18181818181819" y="1636.0"/>
      <point x="-2.9292929292929237" y="1631.7171717171718"/>
      <point x="-37.45454545454545" y="1625.4343434343434" type="curve"/>
      <point x="-37.45454545454545" y="1527.5757575757575" type="line"/>
      <point x="86.82828282828282" y="1527.5757575757575" type="line" smooth="yes"/>
      <point x="279.5959595959596" y="1527.5757575757575"/>
      <point x="376.26262626262627" y="1453.4949494949494"/>
      <point x="376.26262626262627" y="1258.7272727272727" type="curve" smooth="yes"/>
      <point x="376.26262626262627" y="875.939393939394" type="line" smooth="yes"/>
      <point x="376.26262626262627" y="714.2828282828283"/>
      <point x="432.72727272727275" y="637.1919191919192"/>
      <point x="561.5959595959596" y="614.8686868686868" type="curve"/>
      <point x="561.5959595959596" y="631.959595959596" type="line"/>
      <point x="432.72727272727275" y="609.6363636363636"/>
      <point x="376.26262626262627" y="532.5454545454545"/>
      <point x="376.26262626262627" y="370.8888888888889" type="curve" smooth="yes"/>
      <point x="376.26262626262627" y="-82.72727272727272" type="line" smooth="yes"/>
      <point x="376.26262626262627" y="-277.4949494949495"/>
      <point x="279.5959595959596" y="-351.57575757575756"/>
      <point x="86.82828282828282" y="-351.57575757575756" type="curve" smooth="yes"/>
      <point x="-37.45454545454545" y="-351.57575757575756" type="line"/>
      <point x="-37.45454545454545" y="-449.4343434343434" type="line"/>
      <point x="-2.9292929292929237" y="-455.7171717171717"/>
      <point x="46.18181818181819" y="-460.0"/>
    </contour>
  </outline>
</glyph>
<glyph name="asciitilde" format="2">
  <advance width="1120.4444444444443"/>
  <unicode hex="007E"/>
  <outline>
    <contour>
      <point x="738.4444444444445" y="645.6161616161615" type="curve" smooth="yes"/>
      <point x="821.8181818181819" y="645.6161616161615"/>
      <point x="893.2323232323232" y="677.3333333333334"/>
      <point x="941.1919191919192" y="737.3131313131313" type="curve"/>
      <point x="941.1919191919192" y="856.0808080808081" type="line"/>
      <point x="882.6666666666667" y="783.2323232323232"/>
      <point x="816.969696969697" y="747.7979797979798"/>
      <point x="737.2929292929293" y="747.7979797979798" type="curve" smooth="yes"/>
      <point x="628.4848484848485" y="747.7979797979798"/>
      <point x="519.6565656565657" y="864.0808080808081"/>
      <point x="382.0" y="864.0808080808081" type="curve" smooth="yes"/>
      <point x="298.62626262626264" y="864.0808080808081"/>
      <point x="227.2121212121212" y="832.3636363636364"/>
      <point x="179.25252525252523" y="772.3838383838385" type="curve"/>
      <point x="179.25252525252523" y="653.6161616161615" type="line"/>
      <point x="237.77777777777777" y="726.4646464646464"/>
      <point x="303.47474747474746" y="761.8989898989898"/>
      <point x="383.1515151515151" y="761.8989898989898" type="curve" smooth="yes"/>
      <point x="491.95959595959596" y="761.8989898989898"/>
      <point x="600.7878787878788" y="645.6161616161615"/>
    </contour>
  </outline>
</glyph>
<glyph name="exclamdown" format="2">
  <advance width="526.5050505050506"/>
  <unicode hex="00A1"/>
  <outline>
    <contour>
      <point x="223.4141414141414" y="730.6262626262626" type="line"/>
      <point x="197.83838383838383" y="175.010101010101" type="line"/>
      <point x="197.83838383838383" y="-380.0" type="line"/>
      <point x="328.66666666666674" y="-380.0" type="line"/>
      <point x="328.66666666666674" y="175.010101010101" type="line"/>
      <point x="303.939393939394" y="730.6262626262626" type="line"/>
    </contour>
    <contour>
      <point x="263.2525252525253" y="1094.2424242424242" type="curve" smooth="yes"/>
      <point x="206.6060606060606" y="1094.2424242424242"/>
      <point x="169.010101010101" y="1059.7777777777778"/>
      <point x="169.010101010101" y="1004.8080808080808" type="curve" smooth="yes"/>
      <point x="169.010101010101" y="949.8383838383838"/>
      <point x="206.04040404040404" y="913.6565656565656"/>
      <point x="263.2525252525253" y="913.6565656565656" type="curve" smooth="yes"/>
      <point x="320.4646464646465" y="913.6565656565656"/>
      <point x="357.49494949494954" y="950.4040404040404"/>
      <point x="357.49494949494954" y="1004.8080808080808" type="curve" smooth="yes"/>
      <point x="357.49494949494954" y="1059.2121212121212"/>
      <point x="319.89898989898995" y="1094.2424242424242"/>
    </contour>
  </outline>
</glyph>
<glyph name="cent" format="2">
  <advance width="999.3737373737374"/>
  <unicode hex="00A2"/>
  <outline>
    <contour>
      <point x="634.0202020202021" y="-18.565656565656568" type="curve" smooth="yes"/>
      <point x="735.3939393939394" y="-18.565656565656568"/>
      <point x="837.939393939394" y="-0.5656565656565657"/>
      <point x="931.959595959596" y="33.73737373737374" type="curve"/>
      <point x="931.959595959596" y="141.33333333333337" type="line"/>
      <point x="818.2626262626263" y="103.59595959595961"/>
      <point x="729.0909090909091" y="88.44444444444447"/>
      <point x="645.959595959596" y="88.44444444444447" type="curve" smooth="yes"/>
      <point x="387.5757575757576" y="88.44444444444447"/>
      <point x="247.79797979797985" y="222.82828282828285"/>
      <point x="247.79797979797985" y="544.2828282828283" type="curve" smooth="yes"/>
      <point x="247.79797979797985" y="859.1515151515151"/>
      <point x="386.16161616161617" y="992.10101010101"/>
      <point x="679.6969696969697" y="992.10101010101" type="curve" smooth="yes"/>
      <point x="771.6969696969697" y="992.10101010101"/>
      <point x="847.6969696969697" y="978.9494949494949"/>
      <point x="931.959595959596" y="956.3636363636364" type="curve"/>
      <point x="931.959595959596" y="1063.959595959596" type="line"/>
      <point x="848.5454545454545" y="1087.3939393939395"/>
      <point x="767.1515151515152" y="1099.111111111111"/>
      <point x="674.6262626262626" y="1099.111111111111" type="curve" smooth="yes"/>
      <point x="313.6969696969697" y="1099.111111111111"/>
      <point x="119.23232323232322" y="919.7373737373738"/>
      <point x="119.23232323232322" y="540.8484848484849" type="curve" smooth="yes"/>
      <point x="119.23232323232322" y="160.24242424242425"/>
      <point x="304.26262626262627" y="-18.565656565656568"/>
    </contour>
    <contour>
      <point x="570.3434343434344" y="-240.0" type="line"/>
      <point x="681.8585858585859" y="-240.0" type="line"/>
      <point x="681.8585858585859" y="8.484848484848492" type="line"/>
      <point x="570.3434343434344" y="8.484848484848492" type="line"/>
    </contour>
    <contour>
      <point x="570.3434343434344" y="1074.3434343434344" type="line"/>
      <point x="681.8585858585859" y="1074.3434343434344" type="line"/>
      <point x="681.8585858585859" y="1322.828282828283" type="line"/>
      <point x="570.3434343434344" y="1322.828282828283" type="line"/>
    </contour>
  </outline>
</glyph>
<glyph name="sterling" format="2">
  <advance width="1422.5858585858587"/>
  <unicode hex="00A3"/>
  <outline>
    <contour>
      <point x="332.92929292929296" y="45.01010101010102" type="line"/>
      <point x="455.51515151515156" y="45.01010101010102" type="line"/>
      <point x="455.51515151515156" y="1026.949494949495" type="line" smooth="yes"/>
      <point x="455.51515151515156" y="1296.6262626262626"/>
      <point x="607.3737373737374" y="1390.4242424242425"/>
      <point x="898.2828282828283" y="1390.4242424242425" type="curve" smooth="yes"/>
      <point x="1022.5656565656566" y="1390.4242424242425"/>
      <point x="1149.6565656565658" y="1372.141414141414"/>
      <point x="1270.2626262626263" y="1335.5555555555554" type="curve"/>
      <point x="1270.2626262626263" y="1445.979797979798" type="line"/>
      <point x="1157.3939393939395" y="1480.2828282828282"/>
      <point x="1028.848484848485" y="1498.2828282828282"/>
      <point x="898.3232323232323" y="1498.2828282828282" type="curve" smooth="yes"/>
      <point x="527.4141414141415" y="1498.2828282828282"/>
      <point x="332.92929292929296" y="1350.9292929292928"/>
      <point x="332.92929292929296" y="1023.2727272727273" type="curve" smooth="yes"/>
    </contour>
    <contour>
      <point x="81.41414141414141" y="0.0" type="line"/>
      <point x="1318.2424242424242" y="0.0" type="line"/>
      <point x="1318.2424242424242" y="104.44444444444447" type="line"/>
      <point x="81.41414141414141" y="104.44444444444447" type="line"/>
    </contour>
    <contour>
      <point x="81.41414141414141" y="699.8989898989898" type="line"/>
      <point x="1064.6060606060605" y="699.8989898989898" type="line"/>
      <point x="1064.6060606060605" y="800.1010101010102" type="line"/>
      <point x="81.41414141414141" y="800.1010101010102" type="line"/>
    </contour>
  </outline>
</glyph>
<glyph name="currency" format="2">
  <advance width="1233.939393939394"/>
  <unicode hex="00A4"/>
  <outline>
    <contour>
      <point x="392.969696969697" y="920.2020202020202" type="line"/>
      <point x="436.7676767676768" y="962.2828282828283" type="line"/>
      <point x="322.06060606060606" y="1105.5555555555557" type="line"/>
      <point x="219.83838383838383" y="1211.4949494949494" type="line"/>
      <point x="143.75757575757575" y="1135.4141414141413" type="line"/>
      <point x="251.4141414141414" y="1033.1919191919192" type="line"/>
    </contour>
    <contour>
      <point x="840.969696969697" y="920.2020202020202" type="line"/>
      <point x="982.5252525252525" y="1033.1919191919192" type="line"/>
      <point x="1090.1818181818182" y="1135.4141414141413" type="line"/>
      <point x="1014.1010101010102" y="1211.4949494949494" type="line"/>
      <point x="911.8787878787879" y="1105.5555555555557" type="line"/>
      <point x="797.1717171717172" y="962.2828282828283" type="line"/>
    </contour>
    <contour>
      <point x="1012.3838383838383" y="268.50505050505046" type="line"/>
      <point x="1088.4646464646464" y="344.5858585858586" type="line"/>
      <point x="982.5252525252525" y="446.80808080808083" type="line"/>
      <point x="849.5555555555555" y="551.2121212121212" type="line"/>
      <point x="805.7575757575758" y="505.6969696969697" type="line"/>
      <point x="910.1616161616162" y="374.44444444444446" type="line"/>
    </contour>
    <contour>
      <point x="221.55555555555554" y="268.50505050505046" type="line"/>
      <point x="323.77777777777777" y="374.44444444444446" type="line"/>
      <point x="428.18181818181824" y="505.6969696969697" type="line"/>
      <point x="384.3838383838384" y="551.2121212121212" type="line"/>
      <point x="251.4141414141414" y="446.80808080808083" type="line"/>
      <point x="145.47474747474746" y="344.5858585858586" type="line"/>
    </contour>
    <contour>
      <point x="616.969696969697" y="400.64646464646466" type="curve" smooth="yes"/>
      <point x="809.4949494949495" y="400.64646464646466"/>
      <point x="941.7171717171717" y="535.7575757575758"/>
      <point x="941.7171717171717" y="740.0" type="curve" smooth="yes"/>
      <point x="941.7171717171717" y="942.2424242424242"/>
      <point x="809.4949494949495" y="1077.3535353535353"/>
      <point x="616.969696969697" y="1077.3535353535353" type="curve" smooth="yes"/>
      <point x="422.72727272727275" y="1077.3535353535353"/>
      <point x="292.22222222222223" y="942.2424242424242"/>
      <point x="292.22222222222223" y="740.0" type="curve" smooth="yes"/>
      <point x="292.22222222222223" y="535.7575757575758"/>
      <point x="422.72727272727275" y="400.64646464646466"/>
    </contour>
    <contour>
      <point x="616.969696969697" y="485.55555555555554" type="curve" smooth="yes"/>
      <point x="476.3030303030303" y="485.55555555555554"/>
      <point x="379.6767676767677" y="579.89898989899"/>
      <point x="379.6767676767677" y="740.0" type="curve" smooth="yes"/>
      <point x="379.6767676767677" y="900.10101010101"/>
      <point x="476.3030303030303" y="994.4444444444445"/>
      <point x="618.969696969697" y="994.4444444444445" type="curve" smooth="yes"/>
      <point x="770.2222222222222" y="994.4444444444445"/>
      <point x="854.2626262626262" y="888.6666666666666"/>
      <point x="854.2626262626262" y="740.0" type="curve" smooth="yes"/>
      <point x="854.2626262626262" y="578.1818181818182"/>
      <point x="757.6363636363636" y="485.55555555555554"/>
    </contour>
  </outline>
</glyph>
<glyph name="yen" format="2">
  <advance width="1325.3737373737374"/>
  <unicode hex="00A5"/>
  <outline>
    <contour>
      <point x="600.4040404040404" y="0.0" type="line"/>
      <point x="726.1010101010102" y="0.0" type="line"/>
      <point x="726.1010101010102" y="715.89898989899" type="line"/>
      <point x="695.9191919191919" y="625.6969696969696" type="line"/>
      <point x="1321.0101010101012" y="1480.0" type="line"/>
      <point x="1182.7070707070707" y="1480.0" type="line"/>
      <point x="639.5959595959596" y="738.0606060606061" type="line"/>
      <point x="692.6060606060606" y="738.0606060606061" type="line"/>
      <point x="148.0808080808081" y="1480.0" type="line"/>
      <point x="1.5353535353535275" y="1480.0" type="line"/>
      <point x="630.5858585858585" y="625.6969696969696" type="line"/>
      <point x="600.4040404040404" y="716.7474747474747" type="line"/>
    </contour>
    <contour>
      <point x="261.8181818181818" y="306.14141414141415" type="line"/>
      <point x="1064.6868686868688" y="306.14141414141415" type="line"/>
      <point x="1064.6868686868688" y="396.44444444444446" type="line"/>
      <point x="261.8181818181818" y="396.44444444444446" type="line"/>
    </contour>
    <contour>
      <point x="261.8181818181818" y="651.5555555555555" type="line"/>
      <point x="1064.6868686868688" y="651.5555555555555" type="line"/>
      <point x="1064.6868686868688" y="741.8585858585859" type="line"/>
      <point x="261.8181818181818" y="741.8585858585859" type="line"/>
    </contour>
  </outline>
</glyph>
<glyph name="brokenbar" format="2">
  <advance width="525.4545454545455"/>
  <unicode hex="00A6"/>
  <outline>
    <contour>
      <point x="203.83838383838383" y="836.0" type="line"/>
      <point x="321.61616161616166" y="836.0" type="line"/>
      <point x="321.61616161616166" y="1616.0" type="line"/>
      <point x="203.83838383838383" y="1616.0" type="line"/>
    </contour>
    <contour>
      <point x="203.83838383838383" y="-440.0" type="line"/>
      <point x="321.61616161616166" y="-440.0" type="line"/>
      <point x="321.61616161616166" y="340.0" type="line"/>
      <point x="203.83838383838383" y="340.0" type="line"/>
    </contour>
  </outline>
</glyph>
<glyph name="section" format="2">
  <advance width="1140.7676767676767"/>
  <unicode hex="00A7"/>
  <outline>
    <contour>
      <point x="505.3131313131313" y="-18.565656565656568" type="curve" smooth="yes"/>
      <point x="819.979797979798" y="-18.565656565656568"/>
      <point x="961.030303030303" y="102.82828282828282"/>
      <point x="961.030303030303" y="291.6161616161616" type="curve" smooth="yes"/>
      <point x="961.030303030303" y="446.44444444444446"/>
      <point x="869.0909090909091" y="530.7272727272727"/>
      <point x="657.9191919191919" y="567.8787878787879" type="curve" smooth="yes"/>
      <point x="471.83838383838383" y="600.7070707070707" type="line" smooth="yes"/>
      <point x="310.26262626262627" y="629.8787878787879"/>
      <point x="264.22222222222223" y="704.2424242424242"/>
      <point x="264.22222222222223" y="796.6262626262626" type="curve" smooth="yes"/>
      <point x="264.22222222222223" y="864.7070707070707"/>
      <point x="294.82828282828285" y="923.8989898989898"/>
      <point x="365.4545454545455" y="966.4646464646464" type="curve"/>
      <point x="289.13131313131316" y="1023.4545454545455" type="line"/>
      <point x="198.9090909090909" y="968.3232323232323"/>
      <point x="152.1010101010101" y="887.1919191919192"/>
      <point x="152.1010101010101" y="790.3838383838383" type="curve" smooth="yes"/>
      <point x="152.1010101010101" y="634.7272727272727"/>
      <point x="241.73737373737373" y="538.7272727272727"/>
      <point x="446.9090909090909" y="501.85858585858585" type="curve" smooth="yes"/>
      <point x="632.7070707070707" y="469.3131313131313" type="line" smooth="yes"/>
      <point x="791.7575757575758" y="440.98989898989896"/>
      <point x="840.6666666666667" y="385.77777777777777"/>
      <point x="840.6666666666667" y="280.7878787878788" type="curve" smooth="yes"/>
      <point x="840.6666666666667" y="154.90909090909093"/>
      <point x="753.4343434343434" y="79.11111111111113"/>
      <point x="509.33333333333337" y="79.11111111111113" type="curve" smooth="yes"/>
      <point x="397.37373737373736" y="79.11111111111113"/>
      <point x="298.3030303030303" y="89.6767676767677"/>
      <point x="173.17171717171718" y="125.11111111111113" type="curve"/>
      <point x="173.17171717171718" y="25.717171717171716" type="line"/>
      <point x="278.5656565656566" y="-6.0"/>
      <point x="386.4646464646465" y="-18.565656565656568"/>
    </contour>
    <contour>
      <point x="857.1111111111111" y="458.2828282828283" type="line"/>
      <point x="940.4444444444446" y="513.6969696969697"/>
      <point x="988.6666666666667" y="591.959595959596"/>
      <point x="988.6666666666667" y="691.6161616161617" type="curve" smooth="yes"/>
      <point x="988.6666666666667" y="849.2727272727273"/>
      <point x="896.7272727272727" y="936.1212121212121"/>
      <point x="685.8383838383838" y="972.7070707070707" type="curve" smooth="yes"/>
      <point x="497.21212121212125" y="1004.969696969697" type="line" smooth="yes"/>
      <point x="339.87878787878793" y="1033.2929292929293"/>
      <point x="297.2727272727273" y="1103.6767676767677"/>
      <point x="297.2727272727273" y="1194.6464646464647" type="curve" smooth="yes"/>
      <point x="297.2727272727273" y="1311.3737373737374"/>
      <point x="380.2020202020202" y="1398.6060606060605"/>
      <point x="640.2020202020202" y="1398.6060606060605" type="curve" smooth="yes"/>
      <point x="735.0505050505051" y="1398.6060606060605"/>
      <point x="814.4444444444445" y="1388.6060606060605"/>
      <point x="919.030303030303" y="1360.020202020202" type="curve"/>
      <point x="919.030303030303" y="1459.4141414141413" type="line"/>
      <point x="827.030303030303" y="1484.2828282828282"/>
      <point x="733.0909090909091" y="1496.2828282828282"/>
      <point x="634.8282828282829" y="1496.2828282828282" type="curve" smooth="yes"/>
      <point x="307.3939393939394" y="1496.2828282828282"/>
      <point x="176.9090909090909" y="1365.4545454545455"/>
      <point x="176.9090909090909" y="1188.969696969697" type="curve" smooth="yes"/>
      <point x="176.9090909090909" y="1037.5555555555557"/>
      <point x="266.26262626262627" y="943.8383838383838"/>
      <point x="474.8282828282828" y="906.4040404040404" type="curve" smooth="yes"/>
      <point x="660.6262626262626" y="873.5757575757575" type="line" smooth="yes"/>
      <point x="823.9191919191919" y="844.4040404040404"/>
      <point x="876.5454545454545" y="785.2121212121212"/>
      <point x="876.5454545454545" y="678.8080808080808" type="curve" smooth="yes"/>
      <point x="876.5454545454545" y="604.7474747474747"/>
      <point x="843.959595959596" y="548.1212121212121"/>
      <point x="771.939393939394" y="508.7070707070707" type="curve"/>
    </contour>
  </outline>
</glyph>
<glyph name="dieresis" format="2">
  <advance width="1200.0"/>
  <unicode hex="00A8"/>
  <anchor x="600.0" y="1200.0" name="_top"/>
  <anchor x="600.0" y="1564.4848484848485" name="top"/>
  <outline>
    <contour>
      <point x="846.5050505050506" y="1338.7878787878788" type="curve" smooth="yes"/>
      <point x="900.3232323232323" y="1338.7878787878788"/>
      <point x="932.8282828282829" y="1370.4242424242425"/>
      <point x="932.8282828282829" y="1421.4343434343434" type="curve" smooth="yes"/>
      <point x="932.8282828282829" y="1472.4444444444443"/>
      <point x="900.3232323232323" y="1505.79797979798"/>
      <point x="846.5050505050506" y="1505.79797979798" type="curve" smooth="yes"/>
      <point x="792.6868686868687" y="1505.79797979798"/>
      <point x="760.1818181818181" y="1472.4444444444443"/>
      <point x="760.1818181818181" y="1421.4343434343434" type="curve" smooth="yes"/>
      <point x="760.1818181818181" y="1370.4242424242425"/>
      <point x="792.6868686868687" y="1338.7878787878788"/>
    </contour>
    <contour>
      <point x="353.4949494949495" y="1338.7878787878788" type="curve" smooth="yes"/>
      <point x="407.3131313131313" y="1338.7878787878788"/>
      <point x="439.8181818181818" y="1370.4242424242425"/>
      <point x="439.8181818181818" y="1421.4343434343434" type="curve" smooth="yes"/>
      <point x="439.8181818181818" y="1472.4444444444443"/>
      <point x="407.3131313131313" y="1505.79797979798"/>
      <point x="353.4949494949495" y="1505.79797979798" type="curve" smooth="yes"/>
      <point x="299.67676767676767" y="1505.79797979798"/>
      <point x="267.17171717171715" y="1472.4444444444443"/>
      <point x="267.17171717171715" y="1421.4343434343434" type="curve" smooth="yes"/>
      <point x="267.17171717171715" y="1370.4242424242425"/>
      <point x="299.67676767676767" y="1338.7878787878788"/>
    </contour>
  </outline>
</glyph>
<glyph name="copyright" format="2">
  <advance width="1750.4242424242425"/>
  <unicode hex="00A9"/>
  <outline>
    <contour>
      <point x="875.2121212121212" y="-22.0" type="curve" smooth="yes"/>
      <point x="1322.060606060606" y="-22.0"/>
      <point x="1620.060606060606" y="282.0"/>
      <point x="1620.060606060606" y="740.0" type="curve" smooth="yes"/>
      <point x="1620.060606060606" y="1198.0"/>
      <point x="1322.060606060606" y="1502.0"/>
      <point x="875.2121212121212" y="1502.0" type="curve" smooth="yes"/>
      <point x="428.3636363636364" y="1502.0"/>
      <point x="130.36363636363637" y="1198.0"/>
      <point x="130.36363636363637" y="740.0" type="curve" smooth="yes"/>
      <point x="130.36363636363637" y="282.0"/>
      <point x="428.3636363636364" y="-22.0"/>
    </contour>
    <contour>
      <point x="914.3030303030303" y="324.0" type="curve" smooth="yes"/>
      <point x="992.8686868686868" y="324.0"/>
      <point x="1064.8686868686868" y="336.0"/>
      <point x="1130.3232323232323" y="364.3030303030303" type="curve"/>
      <point x="1130.3232323232323" y="456.32323232323233" type="line"/>
      <point x="1048.888888888889" y="426.3030303030303"/>
      <point x="981.1313131313132" y="416.8686868686869"/>
      <point x="923.4141414141415" y="416.8686868686869" type="curve" smooth="yes"/>
      <point x="739.2929292929293" y="416.8686868686869"/>
      <point x="625.7777777777778" y="518.9494949494949"/>
      <point x="625.7777777777778" y="737.1515151515151" type="curve" smooth="yes"/>
      <point x="625.7777777777778" y="950.4848484848485"/>
      <point x="738.4444444444445" y="1051.1313131313132"/>
      <point x="944.0" y="1051.1313131313132" type="curve" smooth="yes"/>
      <point x="1012.0202020202021" y="1051.1313131313132"/>
      <point x="1068.6060606060605" y="1041.6969696969697"/>
      <point x="1130.3232323232323" y="1024.828282828283" type="curve"/>
      <point x="1130.3232323232323" y="1116.8484848484848" type="line"/>
      <point x="1067.4545454545455" y="1136.0"/>
      <point x="1007.1717171717172" y="1144.0"/>
      <point x="938.3232323232323" y="1144.0" type="curve" smooth="yes"/>
      <point x="672.060606060606" y="1144.0"/>
      <point x="521.5353535353536" y="995.4343434343434"/>
      <point x="521.5353535353536" y="733.7171717171717" type="curve" smooth="yes"/>
      <point x="521.5353535353536" y="463.6969696969697"/>
      <point x="678.3636363636364" y="324.0"/>
    </contour>
    <contour>
      <point x="875.2121212121212" y="66.36363636363637" type="curve" smooth="yes"/>
      <point x="478.82828282828285" y="66.36363636363637"/>
      <point x="220.14141414141415" y="333.03030303030306"/>
      <point x="220.14141414141415" y="740.0" type="curve" smooth="yes"/>
      <point x="220.14141414141415" y="1146.969696969697"/>
      <point x="478.82828282828285" y="1413.6363636363635"/>
      <point x="875.2121212121212" y="1413.6363636363635" type="curve" smooth="yes"/>
      <point x="1271.5959595959596" y="1413.6363636363635"/>
      <point x="1530.2828282828282" y="1146.969696969697"/>
      <point x="1530.2828282828282" y="740.0" type="curve" smooth="yes"/>
      <point x="1530.2828282828282" y="333.03030303030306"/>
      <point x="1271.5959595959596" y="66.36363636363637"/>
    </contour>
  </outline>
</glyph>
<glyph name="ordfeminine" format="2">
  <advance width="966.3030303030303"/>
  <unicode hex="00AA"/>
  <outline>
    <contour>
      <point x="398.86868686868684" y="595.4343434343434" type="curve" smooth="yes"/>
      <point x="521.4747474747475" y="595.4343434343434"/>
      <point x="639.7979797979798" y="642.3232323232323"/>
      <point x="710.1010101010102" y="711.4747474747475" type="curve"/>
      <point x="717.7979797979798" y="711.4747474747475" type="line"/>
      <point x="727.1919191919192" y="610.0" type="line"/>
      <point x="826.1818181818182" y="610.0" type="line"/>
      <point x="826.1818181818182" y="1174.7878787878788" type="line" smooth="yes"/>
      <point x="826.1818181818182" y="1416.909090909091"/>
      <point x="695.0909090909091" y="1493.4141414141413"/>
      <point x="447.6363636363636" y="1493.4141414141413" type="curve" smooth="yes"/>
      <point x="351.65656565656565" y="1493.4141414141413"/>
      <point x="244.56565656565658" y="1479.6969696969697"/>
      <point x="156.9090909090909" y="1449.6969696969697" type="curve"/>
      <point x="156.9090909090909" y="1354.5858585858587" type="line"/>
      <point x="255.21212121212122" y="1386.888888888889"/>
      <point x="355.19191919191917" y="1399.171717171717"/>
      <point x="434.8888888888889" y="1399.171717171717" type="curve" smooth="yes"/>
      <point x="617.1717171717172" y="1399.171717171717"/>
      <point x="710.4242424242424" y="1353.1515151515152"/>
      <point x="710.4242424242424" y="1184.969696969697" type="curve" smooth="yes"/>
      <point x="710.4242424242424" y="797.6161616161617" type="line"/>
      <point x="630.9090909090909" y="722.929292929293"/>
      <point x="528.5050505050506" y="684.8686868686868"/>
      <point x="424.0808080808081" y="684.8686868686868" type="curve" smooth="yes"/>
      <point x="279.0909090909091" y="684.8686868686868"/>
      <point x="215.31313131313135" y="744.929292929293"/>
      <point x="215.31313131313135" y="842.1818181818182" type="curve" smooth="yes"/>
      <point x="215.31313131313135" y="936.2828282828283"/>
      <point x="280.24242424242425" y="989.1919191919192"/>
      <point x="454.7070707070707" y="1008.3636363636364" type="curve" smooth="yes"/>
      <point x="756.0202020202021" y="1040.121212121212" type="line"/>
      <point x="751.2323232323232" y="1115.3737373737374" type="line"/>
      <point x="442.52525252525254" y="1083.3333333333333" type="line" smooth="yes"/>
      <point x="198.06060606060606" y="1059.5959595959596"/>
      <point x="96.96969696969697" y="979.6161616161617"/>
      <point x="96.96969696969697" y="832.5252525252525" type="curve" smooth="yes"/>
      <point x="96.96969696969697" y="687.3939393939394"/>
      <point x="204.4040404040404" y="595.4343434343434"/>
    </contour>
  </outline>
</glyph>
<glyph name="guillemetleft" format="2">
  <advance width="1126.989898989899"/>
  <unicode hex="00AB"/>
  <outline>
    <contour>
      <point x="455.85858585858585" y="138.58585858585857" type="line"/>
      <point x="592.4242424242425" y="138.58585858585857" type="line"/>
      <point x="272.10101010101016" y="561.4141414141415" type="line"/>
      <point x="592.4242424242425" y="984.2424242424242" type="line"/>
      <point x="455.85858585858585" y="984.2424242424242" type="line"/>
      <point x="135.53535353535352" y="561.4141414141415" type="line"/>
    </contour>
    <contour>
      <point x="894.8888888888889" y="138.58585858585857" type="line"/>
      <point x="1031.4545454545455" y="138.58585858585857" type="line"/>
      <point x="711.1313131313132" y="561.4141414141415" type="line"/>
      <point x="1031.4545454545455" y="984.2424242424242" type="line"/>
      <point x="894.8888888888889" y="984.2424242424242" type="line"/>
      <point x="574.5656565656566" y="561.4141414141415" type="line"/>
    </contour>
  </outline>
</glyph>
<glyph name="logicalnot" format="2">
  <advance width="1427.4343434343434"/>
  <unicode hex="00AC"/>
  <outline>
    <contour>
      <point x="1150.6060606060605" y="194.54545454545456" type="line"/>
      <point x="1259.3333333333333" y="194.54545454545456" type="line"/>
      <point x="1259.3333333333333" y="811.5151515151515" type="line"/>
      <point x="179.25252525252523" y="811.5151515151515" type="line"/>
      <point x="179.25252525252523" y="708.4848484848485" type="line"/>
      <point x="1150.6060606060605" y="708.4848484848485" type="line"/>
    </contour>
  </outline>
</glyph>
<glyph name="softhyphen" format="2">
  <advance width="952.5252525252525"/>
  <unicode hex="00AD"/>
  <outline>
    <contour>
      <point x="179.25252525252523" y="507.6363636363636" type="line"/>
      <point x="773.2727272727273" y="507.6363636363636" type="line"/>
      <point x="773.2727272727273" y="615.1919191919192" type="line"/>
      <point x="179.25252525252523" y="615.1919191919192" type="line"/>
    </contour>
  </outline>
</glyph>
<glyph name="registered" format="2">
  <advance width="1569.3737373737374"/>
  <unicode hex="00AE"/>
  <outline>
    <contour>
      <point x="784.6868686868687" y="268.0" type="curve" smooth="yes"/>
      <point x="1146.6868686868686" y="268.0"/>
      <point x="1394.6868686868686" y="518.0"/>
      <point x="1394.6868686868686" y="882.0" type="curve" smooth="yes"/>
      <point x="1394.6868686868686" y="1246.0"/>
      <point x="1146.6868686868686" y="1498.0"/>
      <point x="784.6868686868687" y="1498.0" type="curve" smooth="yes"/>
      <point x="422.6868686868687" y="1498.0"/>
      <point x="174.68686868686868" y="1246.0"/>
      <point x="174.68686868686868" y="882.0" type="curve" smooth="yes"/>
      <point x="174.68686868686868" y="518.0"/>
      <point x="422.6868686868687" y="268.0"/>
    </contour>
    <contour>
      <point x="952.5050505050505" y="600.0" type="line"/>
      <point x="1043.4949494949494" y="600.0" type="line"/>
      <point x="870.8888888888889" y="854.3434343434343" type="line"/>
      <point x="796.1818181818181" y="828.3434343434343" type="line"/>
    </contour>
    <contour>
      <point x="784.6868686868687" y="346.72727272727275" type="curve" smooth="yes"/>
      <point x="465.17171717171715" y="346.72727272727275"/>
      <point x="256.82828282828285" y="557.6363636363636"/>
      <point x="256.82828282828285" y="882.0" type="curve" smooth="yes"/>
      <point x="256.82828282828285" y="1206.6464646464647"/>
      <point x="465.17171717171715" y="1419.2727272727273"/>
      <point x="784.6868686868687" y="1419.2727272727273" type="curve" smooth="yes"/>
      <point x="1104.20202020202" y="1419.2727272727273"/>
      <point x="1312.5454545454545" y="1206.6464646464647"/>
      <point x="1312.5454545454545" y="882.0" type="curve" smooth="yes"/>
      <point x="1312.5454545454545" y="557.6363636363636"/>
      <point x="1104.20202020202" y="346.72727272727275"/>
    </contour>
    <contour>
      <point x="574.7070707070707" y="600.0" type="line"/>
      <point x="654.8484848484849" y="600.0" type="line"/>
      <point x="655.6969696969697" y="820.3434343434343" type="line"/>
      <point x="771.5353535353536" y="820.3434343434343" type="line" smooth="yes"/>
      <point x="936.0808080808081" y="820.3434343434343"/>
      <point x="1018.3636363636364" y="886.060606060606"/>
      <point x="1018.3636363636364" y="1005.1717171717172" type="curve" smooth="yes"/>
      <point x="1018.3636363636364" y="1124.2828282828282"/>
      <point x="934.0808080808081" y="1192.0"/>
      <point x="771.5353535353536" y="1192.0" type="curve" smooth="yes"/>
      <point x="574.7070707070707" y="1192.0" type="line"/>
    </contour>
    <contour>
      <point x="655.6969696969697" y="892.2424242424242" type="line"/>
      <point x="655.6969696969697" y="1120.1010101010102" type="line"/>
      <point x="785.5151515151515" y="1120.1010101010102" type="line" smooth="yes"/>
      <point x="888.4646464646464" y="1120.1010101010102"/>
      <point x="938.7878787878788" y="1082.3636363636363"/>
      <point x="938.7878787878788" y="1005.1717171717172" type="curve" smooth="yes"/>
      <point x="938.7878787878788" y="927.979797979798"/>
      <point x="890.4646464646464" y="892.2424242424242"/>
      <point x="785.5151515151515" y="892.2424242424242" type="curve" smooth="yes"/>
    </contour>
  </outline>
</glyph>
<glyph name="degree" format="2">
  <advance width="1051.4747474747476"/>
  <unicode hex="00B0"/>
  <outline>
    <contour>
      <point x="525.7373737373738" y="796.4444444444445" type="curve" smooth="yes"/>
      <point x="730.5454545454545" y="796.4444444444445"/>
      <point x="876.7878787878788" y="943.8383838383838"/>
      <point x="876.7878787878788" y="1146.6464646464647" type="curve" smooth="yes"/>
      <point x="876.7878787878788" y="1349.4545454545455"/>
      <point x="730.5454545454545" y="1496.5656565656566"/>
      <point x="525.7373737373738" y="1496.5656565656566" type="curve" smooth="yes"/>
      <point x="320.92929292929296" y="1496.5656565656566"/>
      <point x="174.68686868686868" y="1349.4545454545455"/>
      <point x="174.68686868686868" y="1146.6464646464647" type="curve" smooth="yes"/>
      <point x="174.68686868686868" y="943.8383838383838"/>
      <point x="320.92929292929296" y="796.4444444444445"/>
    </contour>
    <contour>
      <point x="525.7373737373738" y="886.4646464646464" type="curve" smooth="yes"/>
      <point x="375.3333333333333" y="886.4646464646464"/>
      <point x="268.6868686868687" y="987.3939393939394"/>
      <point x="268.6868686868687" y="1146.6464646464647" type="curve" smooth="yes"/>
      <point x="268.6868686868687" y="1306.1818181818182"/>
      <point x="375.6161616161616" y="1406.5454545454545"/>
      <point x="525.7373737373738" y="1406.5454545454545" type="curve" smooth="yes"/>
      <point x="675.8585858585858" y="1406.5454545454545"/>
      <point x="782.7878787878788" y="1306.1818181818182"/>
      <point x="782.7878787878788" y="1146.6464646464647" type="curve" smooth="yes"/>
      <point x="782.7878787878788" y="987.3939393939394"/>
      <point x="676.1414141414141" y="886.4646464646464"/>
    </contour>
  </outline>
</glyph>
<glyph name="plusminus" format="2">
  <advance width="1120.4444444444443"/>
  <unicode hex="00B1"/>
  <outline>
    <contour>
      <point x="505.85858585858585" y="329.29292929292933" type="line"/>
      <point x="614.5858585858587" y="329.29292929292933" type="line"/>
      <point x="614.5858585858587" y="666.5656565656566" type="line"/>
      <point x="941.1919191919192" y="666.5656565656566" type="line"/>
      <point x="941.1919191919192" y="769.5959595959596" type="line"/>
      <point x="614.5858585858587" y="769.5959595959596" type="line"/>
      <point x="614.5858585858587" y="1106.8686868686868" type="line"/>
      <point x="505.85858585858585" y="1106.8686868686868" type="line"/>
      <point x="505.85858585858585" y="769.5959595959596" type="line"/>
      <point x="179.25252525252523" y="769.5959595959596" type="line"/>
      <point x="179.25252525252523" y="666.5656565656566" type="line"/>
      <point x="505.85858585858585" y="666.5656565656566" type="line"/>
    </contour>
    <contour>
      <point x="179.25252525252523" y="0.0" type="line"/>
      <point x="941.1919191919192" y="0.0" type="line"/>
      <point x="941.1919191919192" y="103.03030303030306" type="line"/>
      <point x="179.25252525252523" y="103.03030303030306" type="line"/>
    </contour>
  </outline>
</glyph>
<glyph name="acute" format="2">
  <advance width="1200.0"/>
  <unicode hex="00B4"/>
  <anchor x="600.0" y="1200.0" name="_top"/>
  <anchor x="600.0" y="1570.141414141414" name="top"/>
  <outline>
    <contour>
      <point x="537.9797979797979" y="1257.7777777777778" type="line"/>
      <point x="662.0202020202021" y="1257.7777777777778" type="line"/>
      <point x="948.5252525252525" y="1616.0" type="line"/>
      <point x="804.5656565656566" y="1616.0" type="line"/>
    </contour>
  </outline>
</glyph>
<glyph name="micro" format="2">
  <advance width="1264.828282828283"/>
  <unicode hex="00B5"/>
  <outline>
    <contour>
      <point x="574.1212121212121" y="-18.0" type="curve" smooth="yes"/>
      <point x="717.3535353535353" y="-18.0"/>
      <point x="853.1515151515151" y="30.86868686868687"/>
      <point x="956.9292929292928" y="123.47474747474747" type="curve"/>
      <point x="966.060606060606" y="123.47474747474747" type="line"/>
      <point x="975.1717171717172" y="0.0" type="line"/>
      <point x="1080.1414141414143" y="0.0" type="line"/>
      <point x="1080.1414141414143" y="1082.828282828283" type="line"/>
      <point x="956.1414141414141" y="1082.828282828283" type="line"/>
      <point x="956.1414141414141" y="253.13131313131316" type="line"/>
      <point x="852.6060606060606" y="143.01010101010104"/>
      <point x="709.3333333333334" y="92.969696969697"/>
      <point x="579.7979797979798" y="92.969696969697" type="curve" smooth="yes"/>
      <point x="408.5050505050505" y="92.969696969697"/>
      <point x="292.10101010101016" y="170.18181818181822"/>
      <point x="292.10101010101016" y="392.64646464646466" type="curve" smooth="yes"/>
      <point x="292.10101010101016" y="511.11111111111114" type="line"/>
      <point x="215.25252525252526" y="511.11111111111114" type="line"/>
      <point x="215.25252525252526" y="387.2525252525253" type="line" smooth="yes"/>
      <point x="215.25252525252526" y="95.93939393939394"/>
      <point x="350.6666666666667" y="-18.0"/>
    </contour>
    <contour>
      <point x="168.1010101010101" y="-440.0" type="line"/>
      <point x="292.10101010101016" y="-440.0" type="line"/>
      <point x="292.10101010101016" y="1082.5454545454545" type="line"/>
      <point x="168.1010101010101" y="1082.5454545454545" type="line"/>
    </contour>
  </outline>
</glyph>
<glyph name="paragraph" format="2">
  <advance width="1344.2626262626263"/>
  <unicode hex="00B6"/>
  <outline>
    <contour>
      <point x="800.8888888888889" y="0.0" type="line"/>
      <point x="904.2424242424242" y="0.0" type="line"/>
      <point x="904.2424242424242" y="1480.0" type="line"/>
      <point x="809.9797979797979" y="1488.8484848484848"/>
      <point x="699.6969696969697" y="1494.8484848484848"/>
      <point x="585.9797979797979" y="1494.8484848484848" type="curve" smooth="yes"/>
      <point x="272.9090909090909" y="1494.8484848484848"/>
      <point x="102.04040404040404" y="1343.7373737373737"/>
      <point x="102.04040404040404" y="1000.6666666666666" type="curve" smooth="yes"/>
      <point x="102.04040404040404" y="678.7474747474747"/>
      <point x="255.17171717171718" y="499.6161616161616"/>
      <point x="615.8383838383838" y="499.6161616161616" type="curve" smooth="yes"/>
      <point x="684.4848484848485" y="499.6161616161616"/>
      <point x="741.1111111111111" y="503.3333333333333"/>
      <point x="800.8888888888889" y="511.9191919191919" type="curve"/>
    </contour>
    <contour>
      <point x="1037.0707070707072" y="0.0" type="line"/>
      <point x="1140.4242424242425" y="0.0" type="line"/>
      <point x="1140.4242424242425" y="1480.0" type="line"/>
      <point x="1037.0707070707072" y="1480.0" type="line"/>
    </contour>
  </outline>
</glyph>
<glyph name="periodcentered" format="2">
  <advance width="486.5050505050505"/>
  <unicode hex="00B7"/>
  <anchor x="243.25252525252526" y="560.0" name="_periodcentered"/>
  <outline>
    <contour>
      <point x="243.25252525252526" y="468.8484848484848" type="curve" smooth="yes"/>
      <point x="299.89898989898995" y="468.8484848484848"/>
      <point x="337.49494949494954" y="503.8787878787879"/>
      <point x="337.49494949494954" y="558.2828282828283" type="curve" smooth="yes"/>
      <point x="337.49494949494954" y="612.6868686868687"/>
      <point x="300.4646464646465" y="649.4343434343434"/>
      <point x="243.25252525252526" y="649.4343434343434" type="curve" smooth="yes"/>
      <point x="186.04040404040404" y="649.4343434343434"/>
      <point x="149.010101010101" y="613.2525252525253"/>
      <point x="149.010101010101" y="558.2828282828283" type="curve" smooth="yes"/>
      <point x="149.010101010101" y="503.3131313131313"/>
      <point x="186.6060606060606" y="468.8484848484848"/>
    </contour>
  </outline>
</glyph>
<glyph name="cedilla" format="2">
  <advance width="1200.0"/>
  <unicode hex="00B8"/>
  <anchor x="600.0" y="0.0" name="_bottom"/>
  <outline>
    <contour>
      <point x="611.1717171717172" y="-408.4848484848485" type="curve" smooth="yes"/>
      <point x="738.4848484848485" y="-408.4848484848485"/>
      <point x="813.010101010101" y="-355.0909090909091"/>
      <point x="813.010101010101" y="-257.4141414141414" type="curve" smooth="yes"/>
      <point x="813.010101010101" y="-159.73737373737373"/>
      <point x="741.3131313131313" y="-105.4949494949495"/>
      <point x="614.5656565656566" y="-105.4949494949495" type="curve"/>
      <point x="641.8787878787879" y="-139.17171717171718" type="line"/>
      <point x="641.8787878787879" y="20.0" type="line"/>
      <point x="565.2323232323232" y="20.0" type="line"/>
      <point x="565.2323232323232" y="-166.82828282828282" type="line"/>
      <point x="606.6262626262626" y="-166.82828282828282" type="line" smooth="yes"/>
      <point x="690.6666666666666" y="-166.82828282828282"/>
      <point x="733.2525252525253" y="-193.13131313131314"/>
      <point x="733.2525252525253" y="-254.3030303030303" type="curve" smooth="yes"/>
      <point x="733.2525252525253" y="-315.47474747474746"/>
      <point x="690.6666666666666" y="-341.77777777777777"/>
      <point x="608.060606060606" y="-341.77777777777777" type="curve" smooth="yes"/>
      <point x="550.9090909090909" y="-341.77777777777777"/>
      <point x="487.7979797979798" y="-330.06060606060606"/>
      <point x="425.4949494949495" y="-299.75757575757575" type="curve"/>
      <point x="425.4949494949495" y="-369.6161616161616" type="line"/>
      <point x="473.19191919191917" y="-394.7676767676768"/>
      <point x="546.9090909090909" y="-408.4848484848485"/>
    </contour>
  </outline>
</glyph>
<glyph name="onesuperior" format="2">
  <advance width="840.909090909091"/>
  <unicode hex="00B9"/>
  <outline>
    <contour>
      <point x="412.9494949494949" y="-113.17171717171718" type="line"/>
      <point x="519.939393939394" y="-113.17171717171718" type="line"/>
      <point x="519.939393939394" y="868.0" type="line"/>
      <point x="447.0909090909091" y="868.0" type="line"/>
      <point x="144.88888888888889" y="655.7171717171717" type="line"/>
      <point x="144.88888888888889" y="549.7575757575758" type="line"/>
      <point x="447.0909090909091" y="762.040404040404" type="line"/>
      <point x="412.9494949494949" y="791.5959595959596" type="line"/>
    </contour>
    <contour>
      <point x="144.88888888888889" y="-136.0" type="line"/>
      <point x="774.0" y="-136.0" type="line"/>
      <point x="774.0" y="-44.020202020202" type="line"/>
      <point x="144.88888888888889" y="-44.020202020202" type="line"/>
    </contour>
  </outline>
</glyph>
<glyph name="ordmasculine" format="2">
  <advance width="1069.1717171717173"/>
  <unicode hex="00BA"/>
  <outline>
    <contour>
      <point x="534.4444444444445" y="595.4343434343434" type="curve" smooth="yes"/>
      <point x="791.3939393939395" y="595.4343434343434"/>
      <point x="965.0505050505051" y="741.939393939394"/>
      <point x="965.0505050505051" y="1046.5656565656566" type="curve" smooth="yes"/>
      <point x="965.0505050505051" y="1351.1919191919192"/>
      <point x="791.3939393939395" y="1493.4141414141413"/>
      <point x="534.4444444444445" y="1493.4141414141413" type="curve" smooth="yes"/>
      <point x="277.4949494949495" y="1493.4141414141413"/>
      <point x="104.12121212121211" y="1351.1919191919192"/>
      <point x="104.12121212121211" y="1046.5656565656566" type="curve" smooth="yes"/>
      <point x="104.12121212121211" y="741.939393939394"/>
      <point x="277.4949494949495" y="595.4343434343434"/>
    </contour>
    <contour>
      <point x="534.4444444444445" y="694.7878787878788" type="curve" smooth="yes"/>
      <point x="346.0" y="694.7878787878788"/>
      <point x="222.74747474747477" y="796.8686868686868"/>
      <point x="222.74747474747477" y="1046.5656565656566" type="curve" smooth="yes"/>
      <point x="222.74747474747477" y="1296.2626262626263"/>
      <point x="346.0" y="1394.060606060606"/>
      <point x="534.4444444444445" y="1394.060606060606" type="curve" smooth="yes"/>
      <point x="723.4545454545455" y="1394.060606060606"/>
      <point x="846.4242424242424" y="1296.2626262626263"/>
      <point x="846.4242424242424" y="1046.5656565656566" type="curve" smooth="yes"/>
      <point x="846.4242424242424" y="796.8686868686868"/>
      <point x="723.4545454545455" y="694.7878787878788"/>
    </contour>
  </outline>
</glyph>
<glyph name="guillemetright" format="2">
  <advance width="1126.989898989899"/>
  <unicode hex="00BB"/>
  <outline>
    <contour>
      <point x="95.53535353535352" y="138.58585858585857" type="line"/>
      <point x="232.10101010101013" y="138.58585858585857" type="line"/>
      <point x="552.4242424242425" y="561.4141414141415" type="line"/>
      <point x="232.10101010101013" y="984.2424242424242" type="line"/>
      <point x="95.53535353535352" y="984.2424242424242" type="line"/>
      <point x="415.85858585858585" y="561.4141414141415" type="line"/>
    </contour>
    <contour>
      <point x="534.5656565656566" y="138.58585858585857" type="line"/>
      <point x="671.1313131313132" y="138.58585858585857" type="line"/>
      <point x="991.4545454545455" y="561.4141414141415" type="line"/>
      <point x="671.1313131313132" y="984.2424242424242" type="line"/>
      <point x="534.5656565656566" y="984.2424242424242" type="line"/>
      <point x="854.8888888888889" y="561.4141414141415" type="line"/>
    </contour>
  </outline>
</glyph>
<glyph name="onequarter" format="2">
  <advance width="1979.737373737374"/>
  <unicode hex="00BC"/>
  <outline>
    <contour>
      <point x="412.9494949494949" y="638.8282828282828" type="line"/>
      <point x="519.939393939394" y="638.8282828282828" type="line"/>
      <point x="519.939393939394" y="1620.0" type="line"/>
      <point x="447.0909090909091" y="1620.0" type="line"/>
      <point x="144.88888888888889" y="1407.7171717171718" type="line"/>
      <point x="144.88888888888889" y="1301.7575757575758" type="line"/>
      <point x="447.0909090909091" y="1514.040404040404" type="line"/>
      <point x="412.9494949494949" y="1543.5959595959596" type="line"/>
    </contour>
    <contour>
      <point x="144.88888888888889" y="616.0" type="line"/>
      <point x="774.0" y="616.0" type="line"/>
      <point x="774.0" y="707.979797979798" type="line"/>
      <point x="144.88888888888889" y="707.979797979798" type="line"/>
    </contour>
    <contour>
      <point x="503.83838383838383" y="-136.0" type="line"/>
      <point x="614.5252525252525" y="-136.0" type="line"/>
      <point x="1475.8989898989898" y="1616.0" type="line"/>
      <point x="1365.2121212121212" y="1616.0" type="line"/>
    </contour>
    <contour>
      <point x="1169.1313131313132" y="103.27272727272727" type="line"/>
      <point x="1956.3030303030305" y="103.27272727272727" type="line"/>
      <point x="1956.3030303030305" y="192.6868686868687" type="line"/>
      <point x="1259.6161616161617" y="192.6868686868687" type="line"/>
      <point x="1274.1818181818182" y="162.2020202020202" type="line"/>
      <point x="1685.818181818182" y="864.0" type="line"/>
      <point x="1580.7676767676767" y="864.0" type="line"/>
      <point x="1169.1313131313132" y="163.91919191919192" type="line"/>
    </contour>
    <contour>
      <point x="1702.909090909091" y="-136.0" type="line"/>
      <point x="1801.3939393939395" y="-136.0" type="line"/>
      <point x="1801.3939393939395" y="526.0" type="line"/>
      <point x="1720.2828282828284" y="526.0" type="line"/>
      <point x="1702.909090909091" y="192.6868686868687" type="line"/>
    </contour>
  </outline>
</glyph>
<glyph name="onehalf" format="2">
  <advance width="1979.737373737374"/>
  <unicode hex="00BD"/>
  <outline>
    <contour>
      <point x="412.9494949494949" y="638.8282828282828" type="line"/>
      <point x="519.939393939394" y="638.8282828282828" type="line"/>
      <point x="519.939393939394" y="1620.0" type="line"/>
      <point x="447.0909090909091" y="1620.0" type="line"/>
      <point x="144.88888888888889" y="1407.7171717171718" type="line"/>
      <point x="144.88888888888889" y="1301.7575757575758" type="line"/>
      <point x="447.0909090909091" y="1514.040404040404" type="line"/>
      <point x="412.9494949494949" y="1543.5959595959596" type="line"/>
    </contour>
    <contour>
      <point x="144.88888888888889" y="616.0" type="line"/>
      <point x="774.0" y="616.0" type="line"/>
      <point x="774.0" y="707.979797979798" type="line"/>
      <point x="144.88888888888889" y="707.979797979798" type="line"/>
    </contour>
    <contour>
      <point x="503.83838383838383" y="-136.0" type="line"/>
      <point x="614.5252525252525" y="-136.0" type="line"/>
      <point x="1475.8989898989898" y="1616.0" type="line"/>
      <point x="1365.2121212121212" y="1616.0" type="line"/>
    </contour>
    <contour>
      <point x="1230.8686868686868" y="-136.0" type="line"/>
      <point x="1908.020202020202" y="-136.0" type="line"/>
      <point x="1908.020202020202" y="-44.020202020202" type="line"/>
      <point x="1351.79797979798" y="-44.020202020202" type="line"/>
      <point x="1354.6868686868688" y="-75.63636363636363" type="line"/>
      <point x="1652.2222222222222" y="247.39393939393938" type="line" smooth="yes"/>
      <point x="1789.9797979797981" y="398.04040404040404"/>
      <point x="1841.6969696969697" y="488.32323232323233"/>
      <point x="1841.6969696969697" y="604.3434343434343" type="curve" smooth="yes"/>
      <point x="1841.6969696969697" y="789.7373737373738"/>
      <point x="1719.4545454545455" y="876.2828282828283"/>
      <point x="1491.3535353535353" y="876.2828282828283" type="curve" smooth="yes"/>
      <point x="1387.3737373737374" y="876.2828282828283"/>
      <point x="1291.1313131313132" y="862.2828282828283"/>
      <point x="1218.8686868686868" y="836.2828282828283" type="curve"/>
      <point x="1218.8686868686868" y="742.5858585858585" type="line"/>
      <point x="1296.6060606060605" y="769.7373737373737"/>
      <point x="1386.0" y="785.1515151515151"/>
      <point x="1482.5656565656566" y="785.1515151515151" type="curve" smooth="yes"/>
      <point x="1651.4747474747476" y="785.1515151515151"/>
      <point x="1734.121212121212" y="724.5252525252525"/>
      <point x="1734.121212121212" y="593.2525252525253" type="curve" smooth="yes"/>
      <point x="1734.121212121212" y="506.8888888888889"/>
      <point x="1688.6666666666667" y="427.1111111111111"/>
      <point x="1567.7373737373737" y="294.44444444444446" type="curve" smooth="yes"/>
      <point x="1230.8686868686868" y="-77.9191919191919" type="line"/>
    </contour>
  </outline>
</glyph>
<glyph name="questiondown" format="2">
  <advance width="980.2222222222223"/>
  <unicode hex="00BF"/>
  <outline>
    <contour>
      <point x="567.3535353535353" y="750.020202020202" type="line"/>
      <point x="486.8282828282828" y="750.020202020202" type="line"/>
      <point x="474.2828282828283" y="409.37373737373736" type="line"/>
      <point x="174.4848484848485" y="306.72727272727275"/>
      <point x="66.86868686868686" y="180.44444444444446"/>
      <point x="66.86868686868686" y="-32.96969696969696" type="curve" smooth="yes"/>
      <point x="66.86868686868686" y="-259.45454545454544"/>
      <point x="241.95959595959596" y="-400.0"/>
      <point x="555.4545454545455" y="-400.0" type="curve" smooth="yes"/>
      <point x="687.7171717171717" y="-400.0"/>
      <point x="818.2020202020202" y="-380.8686868686869"/>
      <point x="933.0707070707072" y="-345.1515151515151" type="curve"/>
      <point x="933.0707070707072" y="-237.27272727272725" type="line"/>
      <point x="808.7676767676768" y="-276.98989898989896"/>
      <point x="683.0909090909091" y="-294.12121212121207"/>
      <point x="563.959595959596" y="-294.12121212121207" type="curve" smooth="yes"/>
      <point x="322.1414141414142" y="-294.12121212121207"/>
      <point x="190.8888888888889" y="-191.73737373737373"/>
      <point x="190.8888888888889" y="-27.010101010101" type="curve" smooth="yes"/>
      <point x="190.8888888888889" y="145.45454545454544"/>
      <point x="286.92929292929296" y="247.5151515151515"/>
      <point x="588.969696969697" y="337.050505050505" type="curve"/>
    </contour>
    <contour>
      <point x="526.9494949494949" y="1094.2424242424242" type="curve" smooth="yes"/>
      <point x="468.58585858585855" y="1094.2424242424242"/>
      <point x="432.70707070707067" y="1058.6262626262626"/>
      <point x="432.70707070707067" y="1007.6363636363636" type="curve" smooth="yes"/>
      <point x="432.70707070707067" y="954.9292929292928"/>
      <point x="469.73737373737373" y="919.3131313131313"/>
      <point x="526.9494949494949" y="919.3131313131313" type="curve" smooth="yes"/>
      <point x="584.1616161616162" y="919.3131313131313"/>
      <point x="621.1919191919192" y="954.3636363636364"/>
      <point x="621.1919191919192" y="1007.6363636363636" type="curve" smooth="yes"/>
      <point x="621.1919191919192" y="1059.1919191919192"/>
      <point x="583.5959595959596" y="1094.2424242424242"/>
    </contour>
  </outline>
</glyph>
<glyph name="Agrave" format="2">
  <advance width="1486.969696969697"/>
  <unicode hex="00C0"/>
  <anchor x="744.060606060606" y="1520.0" name="_top"/>
  <anchor x="744.3434343434344" y="0.0" name="bottom"/>
  <anchor x="1443.4949494949497" y="0.0" name="ogonek"/>
  <anchor x="744.060606060606" y="1520.0" name="top"/>
  <outline>
    <contour>
      <point x="43.474747474747474" y="0.0" type="line"/>
      <point x="172.0606060606061" y="0.0" type="line"/>
      <point x="755.4747474747475" y="1417.939393939394" type="line"/>
      <point x="729.2121212121212" y="1417.939393939394" type="line"/>
      <point x="1312.6262626262626" y="0.0" type="line"/>
      <point x="1443.4949494949497" y="0.0" type="line"/>
      <point x="829.0505050505051" y="1480.0" type="line"/>
      <point x="657.9191919191919" y="1480.0" type="line"/>
    </contour>
    <contour>
      <point x="347.1717171717172" y="500.5656565656565" type="line"/>
      <point x="1139.2323232323233" y="500.5656565656565" type="line"/>
      <point x="1106.7878787878788" y="606.7272727272727" type="line"/>
      <point x="379.89898989898995" y="606.7272727272727" type="line"/>
    </contour>
    <contour>
      <point x="683.4545454545455" y="1611.7575757575758" type="line"/>
      <point x="804.6666666666667" y="1611.7575757575758" type="line"/>
      <point x="585.2121212121212" y="1889.979797979798" type="line"/>
      <point x="442.3636363636364" y="1889.979797979798" type="line"/>
    </contour>
  </outline>
</glyph>
<glyph name="Acircumflex" format="2">
  <advance width="1486.969696969697"/>
  <unicode hex="00C2"/>
  <anchor x="744.060606060606" y="1520.0" name="_top"/>
  <anchor x="744.3434343434344" y="0.0" name="bottom"/>
  <anchor x="1443.4949494949497" y="0.0" name="ogonek"/>
  <anchor x="744.060606060606" y="1520.0" name="top"/>
  <outline>
    <contour>
      <point x="43.474747474747474" y="0.0" type="line"/>
      <point x="172.0606060606061" y="0.0" type="line"/>
      <point x="755.4747474747475" y="1417.939393939394" type="line"/>
      <point x="729.2121212121212" y="1417.939393939394" type="line"/>
      <point x="1312.6262626262626" y="0.0" type="line"/>
      <point x="1443.4949494949497" y="0.0" type="line"/>
      <point x="829.0505050505051" y="1480.0" type="line"/>
      <point x="657.9191919191919" y="1480.0" type="line"/>
    </contour>
    <contour>
      <point x="347.1717171717172" y="500.5656565656565" type="line"/>
      <point x="1139.2323232323233" y="500.5656565656565" type="line"/>
      <point x="1106.7878787878788" y="606.7272727272727" type="line"/>
      <point x="379.89898989898995" y="606.7272727272727" type="line"/>
    </contour>
    <contour>
      <point x="393.4949494949495" y="1611.7575757575758" type="line"/>
      <point x="523.959595959596" y="1611.7575757575758" type="line"/>
      <point x="764.8888888888889" y="1848.4040404040404" type="line"/>
      <point x="723.2323232323232" y="1848.4040404040404" type="line"/>
      <point x="964.1616161616162" y="1611.7575757575758" type="line"/>
      <point x="1094.6262626262626" y="1611.7575757575758" type="line"/>
      <point x="803.8383838383838" y="1889.979797979798" type="line"/>
      <point x="684.2828282828283" y="1889.979797979798" type="line"/>
    </contour>
  </outline>
</glyph>
<glyph name="Atilde" format="2">
  <advance width="1486.969696969697"/>
  <unicode hex="00C3"/>
  <anchor x="744.060606060606" y="1520.0" name="_top"/>
  <anchor x="744.3434343434344" y="0.0" name="bottom"/>
  <anchor x="1443.4949494949497" y="0.0" name="ogonek"/>
  <anchor x="744.060606060606" y="1520.0" name="top"/>
  <outline>
    <contour>
      <point x="43.474747474747474" y="0.0" type="line"/>
      <point x="172.0606060606061" y="0.0" type="line"/>
      <point x="755.4747474747475" y="1417.939393939394" type="line"/>
      <point x="729.2121212121212" y="1417.939393939394" type="line"/>
      <point x="1312.6262626262626" y="0.0" type="line"/>
      <point x="1443.4949494949497" y="0.0" type="line"/>
      <point x="829.0505050505051" y="1480.0" type="line"/>
      <point x="657.9191919191919" y="1480.0" type="line"/>
    </contour>
    <contour>
      <point x="347.1717171717172" y="500.5656565656565" type="line"/>
      <point x="1139.2323232323233" y="500.5656565656565" type="line"/>
      <point x="1106.7878787878788" y="606.7272727272727" type="line"/>
      <point x="379.89898989898995" y="606.7272727272727" type="line"/>
    </contour>
    <contour>
      <point x="909.4343434343434" y="1682.1616161616162" type="curve" smooth="yes"/>
      <point x="993.3939393939394" y="1682.1616161616162"/>
      <point x="1051.6565656565656" y="1702.4444444444443"/>
      <point x="1095.3333333333333" y="1744.141414141414" type="curve"/>
      <point x="1095.3333333333333" y="1835.3333333333333" type="line"/>
      <point x="1043.3737373737374" y="1787.8989898989898"/>
      <point x="989.6767676767677" y="1766.1818181818182"/>
      <point x="911.1313131313132" y="1766.1818181818182" type="curve" smooth="yes"/>
      <point x="803.1919191919192" y="1766.1818181818182"/>
      <point x="707.7777777777778" y="1840.1818181818182"/>
      <point x="578.6868686868687" y="1840.1818181818182" type="curve" smooth="yes"/>
      <point x="494.72727272727275" y="1840.1818181818182"/>
      <point x="436.4646464646465" y="1819.6161616161617"/>
      <point x="392.78787878787875" y="1777.919191919192" type="curve"/>
      <point x="392.78787878787875" y="1686.7272727272727" type="line"/>
      <point x="444.74747474747477" y="1734.1616161616162"/>
      <point x="498.44444444444446" y="1755.8787878787878"/>
      <point x="576.9898989898991" y="1755.8787878787878" type="curve" smooth="yes"/>
      <point x="684.929292929293" y="1755.8787878787878"/>
      <point x="780.3434343434344" y="1682.1616161616162"/>
    </contour>
  </outline>
</glyph>
<glyph name="Adieresis" format="2">
  <advance width="1486.969696969697"/>
  <unicode hex="00C4"/>
  <anchor x="744.060606060606" y="1520.0" name="_top"/>
  <anchor x="744.3434343434344" y="0.0" name="bottom"/>
  <anchor x="1443.4949494949497" y="0.0" name="ogonek"/>
  <anchor x="744.060606060606" y="1520.0" name="top"/>
  <outline>
    <contour>
      <point x="43.474747474747474" y="0.0" type="line"/>
      <point x="172.0606060606061" y="0.0" type="line"/>
      <point x="755.4747474747475" y="1417.939393939394" type="line"/>
      <point x="729.2121212121212" y="1417.939393939394" type="line"/>
      <point x="1312.6262626262626" y="0.0" type="line"/>
      <point x="1443.4949494949497" y="0.0" type="line"/>
      <point x="829.0505050505051" y="1480.0" type="line"/>
      <point x="657.9191919191919" y="1480.0" type="line"/>
    </contour>
    <contour>
      <point x="347.1717171717172" y="500.5656565656565" type="line"/>
      <point x="1139.2323232323233" y="500.5656565656565" type="line"/>
      <point x="1106.7878787878788" y="606.7272727272727" type="line"/>
      <point x="379.89898989898995" y="606.7272727272727" type="line"/>
    </contour>
    <contour>
      <point x="1009.1515151515151" y="1673.030303030303" type="curve" smooth="yes"/>
      <point x="1062.6868686868688" y="1673.030303030303"/>
      <point x="1094.6262626262626" y="1703.2525252525252"/>
      <point x="1094.6262626262626" y="1751.7171717171718" type="curve" smooth="yes"/>
      <point x="1094.6262626262626" y="1800.1818181818182"/>
      <point x="1062.6868686868688" y="1832.1212121212122"/>
      <point x="1009.1515151515151" y="1832.1212121212122" type="curve" smooth="yes"/>
      <point x="955.6161616161617" y="1832.1212121212122"/>
      <point x="923.6767676767677" y="1800.1818181818182"/>
      <point x="923.6767676767677" y="1751.7171717171718" type="curve" smooth="yes"/>
      <point x="923.6767676767677" y="1703.2525252525252"/>
      <point x="955.6161616161617" y="1673.030303030303"/>
    </contour>
    <contour>
      <point x="478.969696969697" y="1673.030303030303" type="curve" smooth="yes"/>
      <point x="532.5050505050506" y="1673.030303030303"/>
      <point x="564.4444444444445" y="1703.2525252525252"/>
      <point x="564.4444444444445" y="1751.7171717171718" type="curve" smooth="yes"/>
      <point x="564.4444444444445" y="1800.1818181818182"/>
      <point x="532.5050505050506" y="1832.1212121212122"/>
      <point x="478.969696969697" y="1832.1212121212122" type="curve" smooth="yes"/>
      <point x="425.4343434343434" y="1832.1212121212122"/>
      <point x="393.4949494949495" y="1800.1818181818182"/>
      <point x="393.4949494949495" y="1751.7171717171718" type="curve" smooth="yes"/>
      <point x="393.4949494949495" y="1703.2525252525252"/>
      <point x="425.4343434343434" y="1673.030303030303"/>
    </contour>
  </outline>
</glyph>
<glyph name="Egrave" format="2">
  <advance width="1314.2626262626263"/>
  <unicode hex="00C8"/>
  <anchor x="722.7474747474747" y="1520.0" name="_top"/>
  <anchor x="726.1818181818182" y="0.0" name="bottom"/>
  <anchor x="1126.5454545454545" y="0.0" name="ogonek"/>
  <anchor x="722.7474747474747" y="1520.0" name="top"/>
  <anchor x="45.15151515151515" y="1480.0" name="topleft"/>
  <outline>
    <contour>
      <point x="203.83838383838383" y="0.0" type="line"/>
      <point x="1209.3737373737374" y="0.0" type="line"/>
      <point x="1209.3737373737374" y="106.1616161616162" type="line"/>
      <point x="328.6868686868687" y="106.1616161616162" type="line"/>
      <point x="328.6868686868687" y="1373.8383838383838" type="line"/>
      <point x="1199.3737373737374" y="1373.8383838383838" type="line"/>
      <point x="1199.3737373737374" y="1480.0" type="line"/>
      <point x="203.83838383838383" y="1480.0" type="line"/>
    </contour>
    <contour>
      <point x="270.42424242424244" y="707.070707070707" type="line"/>
      <point x="1098.5252525252527" y="707.070707070707" type="line"/>
      <point x="1098.5252525252527" y="813.2323232323232" type="line"/>
      <point x="270.42424242424244" y="813.2323232323232" type="line"/>
    </contour>
    <contour>
      <point x="662.1414141414141" y="1611.7575757575758" type="line"/>
      <point x="783.3535353535353" y="1611.7575757575758" type="line"/>
      <point x="563.89898989899" y="1889.979797979798" type="line"/>
      <point x="421.050505050505" y="1889.979797979798" type="line"/>
    </contour>
  </outline>
</glyph>
<glyph name="Ecircumflex" format="2">
  <advance width="1314.2626262626263"/>
  <unicode hex="00CA"/>
  <anchor x="722.7474747474747" y="1520.0" name="_top"/>
  <anchor x="726.1818181818182" y="0.0" name="bottom"/>
  <anchor x="1126.5454545454545" y="0.0" name="ogonek"/>
  <anchor x="722.7474747474747" y="1520.0" name="top"/>
  <anchor x="45.15151515151515" y="1480.0" name="topleft"/>
  <outline>
    <contour>
      <point x="203.83838383838383" y="0.0" type="line"/>
      <point x="1209.3737373737374" y="0.0" type="line"/>
      <point x="1209.3737373737374" y="106.1616161616162" type="line"/>
      <point x="328.6868686868687" y="106.1616161616162" type="line"/>
      <point x="328.6868686868687" y="1373.8383838383838" type="line"/>
      <point x="1199.3737373737374" y="1373.8383838383838" type="line"/>
      <point x="1199.3737373737374" y="1480.0" type="line"/>
      <point x="203.83838383838383" y="1480.0" type="line"/>
    </contour>
    <contour>
      <point x="270.42424242424244" y="707.070707070707" type="line"/>
      <point x="1098.5252525252527" y="707.070707070707" type="line"/>
      <point x="1098.5252525252527" y="813.2323232323232" type="line"/>
      <point x="270.42424242424244" y="813.2323232323232" type="line"/>
    </contour>
    <contour>
      <point x="372.1818181818182" y="1611.7575757575758" type="line"/>
      <point x="502.64646464646466" y="1611.7575757575758" type="line"/>
      <point x="743.5757575757576" y="1848.4040404040404" type="line"/>
      <point x="701.9191919191919" y="1848.4040404040404" type="line"/>
      <point x="942.8484848484849" y="1611.7575757575758" type="line"/>
      <point x="1073.3131313131314" y="1611.7575757575758" type="line"/>
      <point x="782.5252525252525" y="1889.979797979798" type="line"/>
      <point x="662.969696969697" y="1889.979797979798" type="line"/>
    </contour>
  </outline>
</glyph>
<glyph name="Edieresis" format="2">
  <advance width="1314.2626262626263"/>
  <unicode hex="00CB"/>
  <anchor x="722.7474747474747" y="1520.0" name="_top"/>
  <anchor x="726.1818181818182" y="0.0" name="bottom"/>
  <anchor x="1126.5454545454545" y="0.0" name="ogonek"/>
  <anchor x="722.7474747474747" y="1520.0" name="top"/>
  <anchor x="45.15151515151515" y="1480.0" name="topleft"/>
  <outline>
    <contour>
      <point x="203.83838383838383" y="0.0" type="line"/>
      <point x="1209.3737373737374" y="0.0" type="line"/>
      <point x="1209.3737373737374" y="106.1616161616162" type="line"/>
      <point x="328.6868686868687" y="106.1616161616162" type="line"/>
      <point x="328.6868686868687" y="1373.8383838383838" type="line"/>
      <point x="1199.3737373737374" y="1373.8383838383838" type="line"/>
      <point x="1199.3737373737374" y="1480.0" type="line"/>
      <point x="203.83838383838383" y="1480.0" type="line"/>
    </contour>
    <contour>
      <point x="270.42424242424244" y="707.070707070707" type="line"/>
      <point x="1098.5252525252527" y="707.070707070707" type="line"/>
      <point x="1098.5252525252527" y="813.2323232323232" type="line"/>
      <point x="270.42424242424244" y="813.2323232323232" type="line"/>
    </contour>
    <contour>
      <point x="987.8383838383838" y="1673.030303030303" type="curve" smooth="yes"/>
      <point x="1041.3737373737374" y="1673.030303030303"/>
      <point x="1073.3131313131312" y="1703.2525252525252"/>
      <point x="1073.3131313131312" y="1751.7171717171718" type="curve" smooth="yes"/>
      <point x="1073.3131313131312" y="1800.1818181818182"/>
      <point x="1041.3737373737374" y="1832.1212121212122"/>
      <point x="987.8383838383838" y="1832.1212121212122" type="curve" smooth="yes"/>
      <point x="934.3030303030303" y="1832.1212121212122"/>
      <point x="902.3636363636364" y="1800.1818181818182"/>
      <point x="902.3636363636364" y="1751.7171717171718" type="curve" smooth="yes"/>
      <point x="902.3636363636364" y="1703.2525252525252"/>
      <point x="934.3030303030303" y="1673.030303030303"/>
    </contour>
    <contour>
      <point x="457.65656565656565" y="1673.030303030303" type="curve" smooth="yes"/>
      <point x="511.1919191919192" y="1673.030303030303"/>
      <point x="543.1313131313132" y="1703.2525252525252"/>
      <point x="543.1313131313132" y="1751.7171717171718" type="curve" smooth="yes"/>
      <point x="543.1313131313132" y="1800.1818181818182"/>
      <point x="511.1919191919192" y="1832.1212121212122"/>
      <point x="457.65656565656565" y="1832.1212121212122" type="curve" smooth="yes"/>
      <point x="404.1212121212121" y="1832.1212121212122"/>
      <point x="372.1818181818182" y="1800.1818181818182"/>
      <point x="372.1818181818182" y="1751.7171717171718" type="curve" smooth="yes"/>
      <point x="372.1818181818182" y="1703.2525252525252"/>
      <point x="404.1212121212121" y="1673.030303030303"/>
    </contour>
  </outline>
</glyph>
<glyph name="Igrave" format="2">
  <advance width="533.3737373737374"/>
  <unicode hex="00CC"/>
  <anchor x="266.6868686868687" y="1520.0" name="_top"/>
  <anchor x="266.4040404040404" y="0.0" name="bottom"/>
  <anchor x="329.5353535353536" y="0.0" name="ogonek"/>
  <anchor x="266.6868686868687" y="1520.0" name="top"/>
  <outline>
    <contour>
      <point x="203.83838383838383" y="0.0" type="line"/>
      <point x="329.5353535353536" y="0.0" type="line"/>
      <point x="329.5353535353536" y="1480.0" type="line"/>
      <point x="203.83838383838383" y="1480.0" type="line"/>
    </contour>
    <contour>
      <point x="206.08080808080808" y="1611.7575757575758" type="line"/>
      <point x="327.29292929292933" y="1611.7575757575758" type="line"/>
      <point x="107.83838383838386" y="1889.979797979798" type="line"/>
      <point x="-35.010101010101025" y="1889.979797979798" type="line"/>
    </contour>
  </outline>
</glyph>
<glyph name="Iacute" format="2">
  <advance width="533.3737373737374"/>
  <unicode hex="00CD"/>
  <anchor x="266.6868686868687" y="1520.0" name="_top"/>
  <anchor x="266.4040404040404" y="0.0" name="bottom"/>
  <anchor x="329.5353535353536" y="0.0" name="ogonek"/>
  <anchor x="266.6868686868687" y="1520.0" name="top"/>
  <outline>
    <contour>
      <point x="203.83838383838383" y="0.0" type="line"/>
      <point x="329.5353535353536" y="0.0" type="line"/>
      <point x="329.5353535353536" y="1480.0" type="line"/>
      <point x="203.83838383838383" y="1480.0" type="line"/>
    </contour>
    <contour>
      <point x="205.5151515151515" y="1611.7575757575758" type="line"/>
      <point x="326.72727272727275" y="1611.7575757575758" type="line"/>
      <point x="567.8181818181819" y="1889.979797979798" type="line"/>
      <point x="424.96969696969694" y="1889.979797979798" type="line"/>
    </contour>
  </outline>
</glyph>
<glyph name="Icircumflex" format="2">
  <advance width="533.3737373737374"/>
  <unicode hex="00CE"/>
  <anchor x="266.6868686868687" y="1520.0" name="_top"/>
  <anchor x="266.4040404040404" y="0.0" name="bottom"/>
  <anchor x="329.5353535353536" y="0.0" name="ogonek"/>
  <anchor x="266.6868686868687" y="1520.0" name="top"/>
  <outline>
    <contour>
      <point x="203.83838383838383" y="0.0" type="line"/>
      <point x="329.5353535353536" y="0.0" type="line"/>
      <point x="329.5353535353536" y="1480.0" type="line"/>
      <point x="203.83838383838383" y="1480.0" type="line"/>
    </contour>
    <contour>
      <point x="-83.87878787878789" y="1611.7575757575758" type="line"/>
      <point x="46.5858585858586" y="1611.7575757575758" type="line"/>
      <point x="287.5151515151515" y="1848.4040404040404" type="line"/>
      <point x="245.85858585858585" y="1848.4040404040404" type="line"/>
      <point x="486.78787878787875" y="1611.7575757575758" type="line"/>
      <point x="617.2525252525253" y="1611.7575757575758" type="line"/>
      <point x="326.4646464646465" y="1889.979797979798" type="line"/>
      <point x="206.9090909090909" y="1889.979797979798" type="line"/>
    </contour>
  </outline>
</glyph>
<glyph name="Idieresis" format="2">
  <advance width="533.3737373737374"/>
  <unicode hex="00CF"/>
  <anchor x="266.6868686868687" y="1520.0" name="_top"/>
  <anchor x="266.4040404040404" y="0.0" name="bottom"/>
  <anchor x="329.5353535353536" y="0.0" name="ogonek"/>
  <anchor x="266.6868686868687" y="1520.0" name="top"/>
  <outline>
    <contour>
      <point x="203.83838383838383" y="0.0" type="line"/>
      <point x="329.5353535353536" y="0.0" type="line"/>
      <point x="329.5353535353536" y="1480.0" type="line"/>
      <point x="203.83838383838383" y="1480.0" type="line"/>
    </contour>
    <contour>
      <point x="531.7777777777778" y="1673.030303030303" type="curve" smooth="yes"/>
      <point x="585.3131313131313" y="1673.030303030303"/>
      <point x="617.2525252525253" y="1703.2525252525252"/>
      <point x="617.2525252525253" y="1751.7171717171718" type="curve" smooth="yes"/>
      <point x="617.2525252525253" y="1800.1818181818182"/>
      <point x="585.3131313131313" y="1832.1212121212122"/>
      <point x="531.7777777777778" y="1832.1212121212122" type="curve" smooth="yes"/>
      <point x="478.24242424242425" y="1832.1212121212122"/>
      <point x="446.3030303030303" y="1800.1818181818182"/>
      <point x="446.3030303030303" y="1751.7171717171718" type="curve" smooth="yes"/>
      <point x="446.3030303030303" y="1703.2525252525252"/>
      <point x="478.24242424242425" y="1673.030303030303"/>
    </contour>
    <contour>
      <point x="1.5959595959596058" y="1673.030303030303" type="curve" smooth="yes"/>
      <point x="55.13131313131315" y="1673.030303030303"/>
      <point x="87.0707070707071" y="1703.2525252525252"/>
      <point x="87.0707070707071" y="1751.7171717171718" type="curve" smooth="yes"/>
      <point x="87.0707070707071" y="1800.1818181818182"/>
      <point x="55.13131313131315" y="1832.1212121212122"/>
      <point x="1.5959595959596058" y="1832.1212121212122" type="curve" smooth="yes"/>
      <point x="-51.939393939393945" y="1832.1212121212122"/>
      <point x="-83.87878787878788" y="1800.1818181818182"/>
      <point x="-83.87878787878788" y="1751.7171717171718" type="curve" smooth="yes"/>
      <point x="-83.87878787878788" y="1703.2525252525252"/>
      <point x="-51.939393939393945" y="1673.030303030303"/>
    </contour>
  </outline>
</glyph>
<glyph name="Ntilde" format="2">
  <advance width="1634.0"/>
  <unicode hex="00D1"/>
  <anchor x="817.8585858585859" y="1520.0" name="_top"/>
  <anchor x="817.8585858585859" y="0.0" name="bottom"/>
  <anchor x="817.8585858585859" y="1520.0" name="top"/>
  <outline>
    <contour>
      <point x="203.83838383838383" y="0.0" type="line"/>
      <point x="323.8585858585859" y="0.0" type="line"/>
      <point x="323.8585858585859" y="1351.2727272727273" type="line"/>
      <point x="287.6363636363637" y="1351.2727272727273" type="line"/>
      <point x="1299.3131313131312" y="0.0" type="line"/>
      <point x="1430.1616161616162" y="0.0" type="line"/>
      <point x="1430.1616161616162" y="1480.0" type="line"/>
      <point x="1310.141414141414" y="1480.0" type="line"/>
      <point x="1310.141414141414" y="128.72727272727278" type="line"/>
      <point x="1346.3636363636365" y="128.72727272727278" type="line"/>
      <point x="334.6868686868687" y="1480.0" type="line"/>
      <point x="203.83838383838383" y="1480.0" type="line"/>
    </contour>
    <contour>
      <point x="983.2323232323232" y="1682.1616161616162" type="curve" smooth="yes"/>
      <point x="1067.1919191919192" y="1682.1616161616162"/>
      <point x="1125.4545454545455" y="1702.4444444444443"/>
      <point x="1169.1313131313132" y="1744.141414141414" type="curve"/>
      <point x="1169.1313131313132" y="1835.3333333333333" type="line"/>
      <point x="1117.171717171717" y="1787.8989898989898"/>
      <point x="1063.4747474747476" y="1766.1818181818182"/>
      <point x="984.929292929293" y="1766.1818181818182" type="curve" smooth="yes"/>
      <point x="876.989898989899" y="1766.1818181818182"/>
      <point x="781.5757575757575" y="1840.1818181818182"/>
      <point x="652.4848484848485" y="1840.1818181818182" type="curve" smooth="yes"/>
      <point x="568.5252525252525" y="1840.1818181818182"/>
      <point x="510.26262626262627" y="1819.6161616161617"/>
      <point x="466.5858585858586" y="1777.919191919192" type="curve"/>
      <point x="466.5858585858586" y="1686.7272727272727" type="line"/>
      <point x="518.5454545454545" y="1734.1616161616162"/>
      <point x="572.2424242424242" y="1755.8787878787878"/>
      <point x="650.7878787878788" y="1755.8787878787878" type="curve" smooth="yes"/>
      <point x="758.7272727272727" y="1755.8787878787878"/>
      <point x="854.1414141414141" y="1682.1616161616162"/>
    </contour>
  </outline>
</glyph>
<glyph name="Otilde" format="2">
  <advance width="1617.2525252525252"/>
  <unicode hex="00D5"/>
  <anchor x="808.6262626262626" y="1520.0" name="_top"/>
  <anchor x="808.6262626262626" y="0.0" name="bottom"/>
  <anchor x="808.6262626262626" y="740.0" name="center"/>
  <anchor x="985.5151515151515" y="0.0" name="ogonek"/>
  <anchor x="808.6262626262626" y="1520.0" name="top"/>
  <anchor x="51.41414141414141" y="1480.0" name="topleft"/>
  <anchor x="993.9797979797979" y="1480.0" name="topright"/>
  <outline>
    <contour>
      <point x="808.6262626262626" y="-18.282828282828284" type="curve" smooth="yes"/>
      <point x="1206.969696969697" y="-18.282828282828284"/>
      <point x="1486.888888888889" y="217.33333333333334"/>
      <point x="1486.888888888889" y="740.0" type="curve" smooth="yes"/>
      <point x="1486.888888888889" y="1262.6666666666667"/>
      <point x="1212.4040404040404" y="1498.2828282828282"/>
      <point x="808.6262626262626" y="1498.2828282828282" type="curve" smooth="yes"/>
      <point x="410.0" y="1498.2828282828282"/>
      <point x="130.36363636363637" y="1263.2323232323233"/>
      <point x="130.36363636363637" y="740.0" type="curve" smooth="yes"/>
      <point x="130.36363636363637" y="216.7676767676768"/>
      <point x="405.13131313131316" y="-18.282828282828284"/>
    </contour>
    <contour>
      <point x="808.6262626262626" y="92.14141414141417" type="curve" smooth="yes"/>
      <point x="481.9191919191919" y="92.14141414141417"/>
      <point x="260.62626262626264" y="275.6565656565657"/>
      <point x="260.62626262626264" y="744.5656565656566" type="curve" smooth="yes"/>
      <point x="260.62626262626264" y="1204.3434343434344"/>
      <point x="482.7676767676768" y="1387.858585858586"/>
      <point x="808.6262626262626" y="1387.858585858586" type="curve" smooth="yes"/>
      <point x="1134.4848484848485" y="1387.858585858586"/>
      <point x="1356.6262626262626" y="1203.4949494949494"/>
      <point x="1356.6262626262626" y="735.4343434343434" type="curve" smooth="yes"/>
      <point x="1356.6262626262626" y="276.5050505050505"/>
      <point x="1135.3333333333333" y="92.14141414141417"/>
    </contour>
    <contour>
      <point x="974.0" y="1682.1616161616162" type="curve" smooth="yes"/>
      <point x="1057.959595959596" y="1682.1616161616162"/>
      <point x="1116.2222222222222" y="1702.4444444444443"/>
      <point x="1159.8989898989898" y="1744.141414141414" type="curve"/>
      <point x="1159.8989898989898" y="1835.3333333333333" type="line"/>
      <point x="1107.939393939394" y="1787.8989898989898"/>
      <point x="1054.2424242424242" y="1766.1818181818182"/>
      <point x="975.6969696969697" y="1766.1818181818182" type="curve" smooth="yes"/>
      <point x="867.7575757575758" y="1766.1818181818182"/>
      <point x="772.3434343434344" y="1840.1818181818182"/>
      <point x="643.2525252525253" y="1840.1818181818182" type="curve" smooth="yes"/>
      <point x="559.2929292929293" y="1840.1818181818182"/>
      <point x="501.030303030303" y="1819.6161616161617"/>
      <point x="457.35353535353534" y="1777.919191919192" type="curve"/>
      <point x="457.35353535353534" y="1686.7272727272727" type="line"/>
      <point x="509.3131313131313" y="1734.1616161616162"/>
      <point x="563.010101010101" y="1755.8787878787878"/>
      <point x="641.5555555555555" y="1755.8787878787878" type="curve" smooth="yes"/>
      <point x="749.4949494949495" y="1755.8787878787878"/>
      <point x="844.909090909091" y="1682.1616161616162"/>
    </contour>
  </outline>
</glyph>
<glyph name="Odieresis" format="2">
  <advance width="1617.2525252525252"/>
  <unicode hex="00D6"/>
  <anchor x="808.6262626262626" y="1520.0" name="_top"/>
  <anchor x="808.6262626262626" y="0.0" name="bottom"/>
  <anchor x="808.6262626262626" y="740.0" name="center"/>
  <anchor x="985.5151515151515" y="0.0" name="ogonek"/>
  <anchor x="808.6262626262626" y="1520.0" name="top"/>
  <anchor x="51.41414141414141" y="1480.0" name="topleft"/>
  <anchor x="993.9797979797979" y="1480.0" name="topright"/>
  <outline>
    <contour>
      <point x="808.6262626262626" y="-18.282828282828284" type="curve" smooth="yes"/>
      <point x="1206.969696969697" y="-18.282828282828284"/>
      <point x="1486.888888888889" y="217.33333333333334"/>
      <point x="1486.888888888889" y="740.0" type="curve" smooth="yes"/>
      <point x="1486.888888888889" y="1262.6666666666667"/>
      <point x="1212.4040404040404" y="1498.2828282828282"/>
      <point x="808.6262626262626" y="1498.2828282828282" type="curve" smooth="yes"/>
      <point x="410.0" y="1498.2828282828282"/>
      <point x="130.36363636363637" y="1263.2323232323233"/>
      <point x="130.36363636363637" y="740.0" type="curve" smooth="yes"/>
      <point x="130.36363636363637" y="216.7676767676768"/>
      <point x="405.13131313131316" y="-18.282828282828284"/>
    </contour>
    <contour>
      <point x="808.6262626262626" y="92.14141414141417" type="curve" smooth="yes"/>
      <point x="481.9191919191919" y="92.14141414141417"/>
      <point x="260.62626262626264" y="275.6565656565657"/>
      <point x="260.62626262626264" y="744.5656565656566" type="curve" smooth="yes"/>
      <point x="260.62626262626264" y="1204.3434343434344"/>
      <point x="482.7676767676768" y="1387.858585858586"/>
      <point x="808.6262626262626" y="1387.858585858586" type="curve" smooth="yes"/>
      <point x="1134.4848484848485" y="1387.858585858586"/>
      <point x="1356.6262626262626" y="1203.4949494949494"/>
      <point x="1356.6262626262626" y="735.4343434343434" type="curve" smooth="yes"/>
      <point x="1356.6262626262626" y="276.5050505050505"/>
      <point x="1135.3333333333333" y="92.14141414141417"/>
    </contour>
    <contour>
      <point x="1073.7171717171718" y="1673.030303030303" type="curve" smooth="yes"/>
      <point x="1127.2525252525252" y="1673.030303030303"/>
      <point x="1159.1919191919192" y="1703.2525252525252"/>
      <point x="1159.1919191919192" y="1751.7171717171718" type="curve" smooth="yes"/>
      <point x="1159.1919191919192" y="1800.1818181818182"/>
      <point x="1127.2525252525252" y="1832.1212121212122"/>
      <point x="1073.7171717171718" y="1832.1212121212122" type="curve" smooth="yes"/>
      <point x="1020.1818181818182" y="1832.1212121212122"/>
      <point x="988.2424242424242" y="1800.1818181818182"/>
      <point x="988.2424242424242" y="1751.7171717171718" type="curve" smooth="yes"/>
      <point x="988.2424242424242" y="1703.2525252525252"/>
      <point x="1020.1818181818182" y="1673.030303030303"/>
    </contour>
    <contour>
      <point x="543.5353535353536" y="1673.030303030303" type="curve" smooth="yes"/>
      <point x="597.070707070707" y="1673.030303030303"/>
      <point x="629.010101010101" y="1703.2525252525252"/>
      <point x="629.010101010101" y="1751.7171717171718" type="curve" smooth="yes"/>
      <point x="629.010101010101" y="1800.1818181818182"/>
      <point x="597.070707070707" y="1832.1212121212122"/>
      <point x="543.5353535353536" y="1832.1212121212122" type="curve" smooth="yes"/>
      <point x="490.0" y="1832.1212121212122"/>
      <point x="458.06060606060606" y="1800.1818181818182"/>
      <point x="458.06060606060606" y="1751.7171717171718" type="curve" smooth="yes"/>
      <point x="458.06060606060606" y="1703.2525252525252"/>
      <point x="490.0" y="1673.030303030303"/>
    </contour>
  </outline>
</glyph>
<glyph name="multiply" format="2">
  <advance width="1021.5353535353536"/>
  <unicode hex="00D7"/>
  <outline>
    <contour>
      <point x="210.969696969697" y="388.4848484848485" type="line"/>
      <point x="510.7676767676768" y="688.2828282828283" type="line"/>
      <point x="810.5656565656566" y="388.4848484848485" type="line"/>
      <point x="882.2828282828283" y="460.2020202020202" type="line"/>
      <point x="582.4848484848485" y="760.0" type="line"/>
      <point x="882.2828282828283" y="1059.7979797979797" type="line"/>
      <point x="810.5656565656566" y="1131.5151515151515" type="line"/>
      <point x="510.7676767676768" y="831.7171717171717" type="line"/>
      <point x="210.969696969697" y="1131.5151515151515" type="line"/>
      <point x="139.25252525252523" y="1059.7979797979797" type="line"/>
      <point x="439.050505050505" y="760.0" type="line"/>
      <point x="139.25252525252523" y="460.2020202020202" type="line"/>
    </contour>
  </outline>
</glyph>
<glyph name="Udieresis" format="2">
  <advance width="1575.6969696969697"/>
  <unicode hex="00DC"/>
  <anchor x="789.2727272727273" y="1520.0" name="_top"/>
  <anchor x="789.2727272727273" y="0.0" name="bottom"/>
  <anchor x="956.2626262626263" y="3.434343434343434" name="ogonek"/>
  <anchor x="789.2727272727273" y="1520.0" name="top"/>
  <anchor x="1256.7272727272727" y="1480.0" name="topright"/>
  <outline>
    <contour>
      <point x="789.2727272727273" y="-18.282828282828284" type="curve" smooth="yes"/>
      <point x="1192.4848484848485" y="-18.282828282828284"/>
      <point x="1379.5757575757575" y="167.010101010101"/>
      <point x="1379.5757575757575" y="584.1010101010102" type="curve" smooth="yes"/>
      <point x="1379.5757575757575" y="1480.0" type="line"/>
      <point x="1256.7272727272727" y="1480.0" type="line"/>
      <point x="1256.7272727272727" y="570.1414141414141" type="line" smooth="yes"/>
      <point x="1256.7272727272727" y="233.63636363636365"/>
      <point x="1107.7777777777778" y="91.55555555555559"/>
      <point x="789.2727272727273" y="91.55555555555559" type="curve" smooth="yes"/>
      <point x="470.7676767676768" y="91.55555555555559"/>
      <point x="321.81818181818187" y="233.63636363636365"/>
      <point x="321.81818181818187" y="570.1414141414141" type="curve" smooth="yes"/>
      <point x="321.81818181818187" y="1480.0" type="line"/>
      <point x="196.12121212121212" y="1480.0" type="line"/>
      <point x="196.12121212121212" y="584.1010101010102" type="line" smooth="yes"/>
      <point x="196.12121212121212" y="167.010101010101"/>
      <point x="384.64646464646466" y="-18.282828282828284"/>
    </contour>
    <contour>
      <point x="1054.3636363636365" y="1673.030303030303" type="curve" smooth="yes"/>
      <point x="1107.8989898989898" y="1673.030303030303"/>
      <point x="1139.8383838383838" y="1703.2525252525252"/>
      <point x="1139.8383838383838" y="1751.7171717171718" type="curve" smooth="yes"/>
      <point x="1139.8383838383838" y="1800.1818181818182"/>
      <point x="1107.8989898989898" y="1832.1212121212122"/>
      <point x="1054.3636363636365" y="1832.1212121212122" type="curve" smooth="yes"/>
      <point x="1000.8282828282829" y="1832.1212121212122"/>
      <point x="968.8888888888889" y="1800.1818181818182"/>
      <point x="968.8888888888889" y="1751.7171717171718" type="curve" smooth="yes"/>
      <point x="968.8888888888889" y="1703.2525252525252"/>
      <point x="1000.8282828282829" y="1673.030303030303"/>
    </contour>
    <contour>
      <point x="524.1818181818182" y="1673.030303030303" type="curve" smooth="yes"/>
      <point x="577.7171717171717" y="1673.030303030303"/>
      <point x="609.6565656565657" y="1703.2525252525252"/>
      <point x="609.6565656565657" y="1751.7171717171718" type="curve" smooth="yes"/>
      <point x="609.6565656565657" y="1800.1818181818182"/>
      <point x="577.7171717171717" y="1832.1212121212122"/>
      <point x="524.1818181818182" y="1832.1212121212122" type="curve" smooth="yes"/>
      <point x="470.64646464646466" y="1832.1212121212122"/>
      <point x="438.70707070707067" y="1800.1818181818182"/>
      <point x="438.70707070707067" y="1751.7171717171718" type="curve" smooth="yes"/>
      <point x="438.70707070707067" y="1703.2525252525252"/>
      <point x="470.64646464646466" y="1673.030303030303"/>
    </contour>
  </outline>
</glyph>
<glyph name="Yacute" format="2">
  <advance width="1284.7272727272727"/>
  <unicode hex="00DD"/>
  <anchor x="642.0808080808081" y="1520.0" name="_top"/>
  <anchor x="642.0808080808081" y="0.0" name="bottom"/>
  <anchor x="642.0808080808081" y="1520.0" name="top"/>
  <anchor x="15.434343434343434" y="1480.0" name="topleft"/>
  <outline>
    <contour>
      <point x="580.0808080808081" y="0.0" type="line"/>
      <point x="705.7777777777778" y="0.0" type="line"/>
      <point x="705.7777777777778" y="715.89898989899" type="line"/>
      <point x="675.5959595959596" y="625.6969696969696" type="line"/>
      <point x="1297.2525252525252" y="1480.0" type="line"/>
      <point x="1158.949494949495" y="1480.0" type="line"/>
      <point x="619.2727272727273" y="738.0606060606061" type="line"/>
      <point x="672.2828282828283" y="738.0606060606061" type="line"/>
      <point x="124.32323232323236" y="1480.0" type="line"/>
      <point x="-22.22222222222223" y="1480.0" type="line"/>
      <point x="610.2626262626263" y="625.6969696969696" type="line"/>
      <point x="580.0808080808081" y="716.7474747474747" type="line"/>
    </contour>
    <contour>
      <point x="580.9090909090909" y="1611.7575757575758" type="line"/>
      <point x="702.1212121212121" y="1611.7575757575758" type="line"/>
      <point x="943.2121212121212" y="1889.979797979798" type="line"/>
      <point x="800.3636363636364" y="1889.979797979798" type="line"/>
    </contour>
  </outline>
</glyph>
<glyph name="Thorn" format="2">
  <advance width="1354.2626262626263"/>
  <unicode hex="00DE"/>
  <outline>
    <contour>
      <point x="203.83838383838383" y="0.0" type="line"/>
      <point x="329.5353535353536" y="0.0" type="line"/>
      <point x="329.5353535353536" y="274.6868686868687" type="line"/>
      <point x="420.7676767676768" y="266.1010101010101"/>
      <point x="492.80808080808083" y="262.3838383838384"/>
      <point x="581.1717171717172" y="262.3838383838384" type="curve" smooth="yes"/>
      <point x="1044.020202020202" y="262.3838383838384"/>
      <point x="1242.2222222222222" y="441.5151515151515"/>
      <point x="1242.2222222222222" y="763.4343434343434" type="curve" smooth="yes"/>
      <point x="1242.2222222222222" y="1106.5050505050506"/>
      <point x="1023.1313131313132" y="1257.6161616161617"/>
      <point x="620.7474747474747" y="1257.6161616161617" type="curve" smooth="yes"/>
      <point x="495.4343434343435" y="1257.6161616161617"/>
      <point x="408.4848484848485" y="1247.030303030303"/>
      <point x="329.5353535353536" y="1233.2929292929293" type="curve"/>
      <point x="329.5353535353536" y="1481.7171717171718" type="line"/>
      <point x="203.83838383838383" y="1481.7171717171718" type="line"/>
    </contour>
    <contour>
      <point x="581.1717171717172" y="365.1515151515152" type="curve" smooth="yes"/>
      <point x="485.0909090909091" y="365.1515151515152"/>
      <point x="409.8787878787879" y="370.5858585858586"/>
      <point x="329.5353535353536" y="381.4545454545455" type="curve"/>
      <point x="329.5353535353536" y="1129.6767676767677" type="line"/>
      <point x="417.33333333333337" y="1145.979797979798"/>
      <point x="509.7171717171717" y="1154.8484848484848"/>
      <point x="625.8383838383838" y="1154.8484848484848" type="curve" smooth="yes"/>
      <point x="951.2121212121212" y="1154.8484848484848"/>
      <point x="1115.6363636363635" y="1035.3333333333333"/>
      <point x="1115.6363636363635" y="761.7171717171717" type="curve" smooth="yes"/>
      <point x="1115.6363636363635" y="498.7070707070707"/>
      <point x="966.6666666666666" y="365.1515151515152"/>
    </contour>
  </outline>
</glyph>
<glyph name="germandbls" format="2">
  <advance width="1517.5757575757575"/>
  <unicode hex="00DF"/>
  <outline>
    <contour>
      <point x="968.969696969697" y="-18.565656565656568" type="curve" smooth="yes"/>
      <point x="1283.6363636363637" y="-18.565656565656568"/>
      <point x="1427.5151515151515" y="102.82828282828282"/>
      <point x="1427.5151515151515" y="292.4646464646465" type="curve" smooth="yes"/>
      <point x="1427.5151515151515" y="455.21212121212125"/>
      <point x="1338.1616161616162" y="538.6464646464647"/>
      <point x="1119.3131313131314" y="576.9494949494949" type="curve" smooth="yes"/>
      <point x="943.4141414141415" y="606.9494949494949" type="line" smooth="yes"/>
      <point x="788.6666666666667" y="635.2727272727273"/>
      <point x="744.0404040404042" y="705.3737373737374"/>
      <point x="744.0404040404042" y="795.4949494949495" type="curve" smooth="yes"/>
      <point x="744.0404040404042" y="912.7878787878788"/>
      <point x="825.2727272727273" y="999.4545454545454"/>
      <point x="1080.7474747474748" y="999.4545454545454" type="curve" smooth="yes"/>
      <point x="1157.8989898989898" y="999.4545454545454"/>
      <point x="1207.878787878788" y="992.3030303030303"/>
      <point x="1245.2727272727275" y="986.5858585858585" type="curve"/>
      <point x="1261.5555555555557" y="1045.6969696969697"/>
      <point x="1272.1212121212122" y="1125.7373737373737"/>
      <point x="1272.1212121212122" y="1182.2626262626263" type="curve" smooth="yes"/>
      <point x="1272.1212121212122" y="1498.6868686868686"/>
      <point x="1065.6565656565658" y="1636.0"/>
      <point x="788.4646464646464" y="1636.0" type="curve" smooth="yes"/>
      <point x="449.5959595959596" y="1636.0"/>
      <point x="257.47474747474746" y="1460.7070707070707"/>
      <point x="257.47474747474746" y="1106.5454545454545" type="curve" smooth="yes"/>
      <point x="257.47474747474746" y="0.0" type="line"/>
      <point x="381.4747474747475" y="0.0" type="line"/>
      <point x="381.4747474747475" y="1103.6565656565656" type="line" smooth="yes"/>
      <point x="381.4747474747475" y="1409.4747474747473"/>
      <point x="526.9494949494949" y="1537.4747474747473"/>
      <point x="792.6868686868687" y="1537.4747474747473" type="curve" smooth="yes"/>
      <point x="1011.8585858585859" y="1537.4747474747473"/>
      <point x="1172.2020202020203" y="1445.171717171717"/>
      <point x="1170.4848484848485" y="1188.4444444444443" type="curve" smooth="yes"/>
      <point x="1170.4848484848485" y="1147.6363636363635"/>
      <point x="1163.6363636363637" y="1088.7878787878788"/>
      <point x="1150.5050505050506" y="1041.9595959595958" type="curve"/>
      <point x="1223.939393939394" y="1086.2626262626263" type="line"/>
      <point x="1172.7878787878788" y="1091.979797979798"/>
      <point x="1119.4545454545455" y="1095.6969696969697"/>
      <point x="1068.5858585858587" y="1095.6969696969697" type="curve" smooth="yes"/>
      <point x="755.010101010101" y="1095.6969696969697"/>
      <point x="620.5656565656566" y="968.2828282828283"/>
      <point x="620.5656565656566" y="787.5151515151515" type="curve" smooth="yes"/>
      <point x="620.5656565656566" y="636.1414141414141"/>
      <point x="704.2626262626263" y="537.5959595959596"/>
      <point x="920.4646464646465" y="500.16161616161617" type="curve" smooth="yes"/>
      <point x="1096.3636363636365" y="470.16161616161617" type="line" smooth="yes"/>
      <point x="1256.2626262626263" y="441.83838383838383"/>
      <point x="1304.0404040404042" y="387.19191919191917"/>
      <point x="1304.0404040404042" y="282.7676767676768" type="curve" smooth="yes"/>
      <point x="1304.0404040404042" y="156.04040404040407"/>
      <point x="1215.9595959595958" y="81.09090909090912"/>
      <point x="972.9898989898991" y="81.09090909090912" type="curve" smooth="yes"/>
      <point x="862.7272727272727" y="81.09090909090912"/>
      <point x="758.2828282828283" y="93.0707070707071"/>
      <point x="636.8282828282829" y="127.3737373737374" type="curve"/>
      <point x="636.8282828282829" y="25.717171717171716" type="line"/>
      <point x="742.2222222222222" y="-6.0"/>
      <point x="850.969696969697" y="-18.565656565656568"/>
    </contour>
    <contour>
      <point x="25.959595959595962" y="973.5555555555555" type="line"/>
      <point x="321.8989898989899" y="973.5555555555555" type="line"/>
      <point x="321.8989898989899" y="1082.828282828283" type="line"/>
      <point x="25.959595959595962" y="1082.828282828283" type="line"/>
    </contour>
  </outline>
</glyph>
